AnekGujarati-Medium.ufo
<glyph name="Doubledanda.gj" format="2">
  <advance width="1002"/>
  <unicode hex="0965"/>
  <anchor x="729" y="-75" name="Bottom"/>
  <anchor x="711" y="1266" name="Top"/>
  <anchor x="751" y="1266" name="Top2"/>
  <outline>
    <contour>
      <point x="153" y="495" type="line"/>
      <point x="348" y="495" type="line"/>
      <point x="348" y="1192" type="line"/>
      <point x="153" y="1192" type="line"/>
    </contour>
    <contour>
      <point x="153" y="0" type="line"/>
      <point x="348" y="0" type="line"/>
      <point x="348" y="628" type="line"/>
      <point x="153" y="628" type="line"/>
    </contour>
    <contour>
      <point x="654" y="495" type="line"/>
      <point x="849" y="495" type="line"/>
      <point x="849" y="1192" type="line"/>
      <point x="654" y="1192" type="line"/>
    </contour>
    <contour>
      <point x="654" y="0" type="line"/>
      <point x="849" y="0" type="line"/>
      <point x="849" y="628" type="line"/>
      <point x="654" y="628" type="line"/>
    </contour>
  </outline>
</glyph>
<glyph name="Chandrabindu.gj" format="2">
  <unicode hex="0A81"/>
  <anchor x="451" y="1266" name="_Top2"/>
  <outline>
    <contour>
      <point x="451" y="1315" type="curve" smooth="yes"/>
      <point x="685" y="1315"/>
      <point x="809" y="1416"/>
      <point x="809" y="1614" type="curve" smooth="yes"/>
      <point x="809" y="1625"/>
      <point x="809" y="1636"/>
      <point x="807" y="1662" type="curve"/>
      <point x="653" y="1662" type="line"/>
      <point x="653" y="1633" type="line" smooth="yes"/>
      <point x="653" y="1508"/>
      <point x="584" y="1448"/>
      <point x="452" y="1448" type="curve" smooth="yes"/>
      <point x="316" y="1448"/>
      <point x="251" y="1509"/>
      <point x="251" y="1633" type="curve" smooth="yes"/>
      <point x="251" y="1662" type="line"/>
      <point x="97" y="1662" type="line"/>
      <point x="95" y="1636"/>
      <point x="95" y="1625"/>
      <point x="95" y="1614" type="curve" smooth="yes"/>
      <point x="95" y="1416"/>
      <point x="216" y="1315"/>
    </contour>
    <contour>
      <point x="452" y="1558" type="curve" smooth="yes"/>
      <point x="518" y="1558"/>
      <point x="548" y="1601"/>
      <point x="548" y="1669" type="curve" smooth="yes"/>
      <point x="548" y="1679" type="line" smooth="yes"/>
      <point x="548" y="1746"/>
      <point x="518" y="1790"/>
      <point x="452" y="1790" type="curve" smooth="yes"/>
      <point x="384" y="1790"/>
      <point x="355" y="1746"/>
      <point x="355" y="1679" type="curve" smooth="yes"/>
      <point x="355" y="1669" type="line" smooth="yes"/>
      <point x="355" y="1601"/>
      <point x="384" y="1558"/>
    </contour>
  </outline>
</glyph>
<glyph name="Bindu.gj" format="2">
  <unicode hex="0A82"/>
  <anchor x="223" y="1266" name="_Top2"/>
  <outline>
    <contour>
      <point x="223" y="1359" type="curve" smooth="yes"/>
      <point x="310" y="1359"/>
      <point x="347" y="1406"/>
      <point x="347" y="1483" type="curve" smooth="yes"/>
      <point x="347" y="1494" type="line" smooth="yes"/>
      <point x="347" y="1570"/>
      <point x="308" y="1617"/>
      <point x="223" y="1617" type="curve" smooth="yes"/>
      <point x="139" y="1617"/>
      <point x="99" y="1569"/>
      <point x="99" y="1494" type="curve" smooth="yes"/>
      <point x="99" y="1483" type="line" smooth="yes"/>
      <point x="99" y="1406"/>
      <point x="138" y="1359"/>
    </contour>
  </outline>
</glyph>
<glyph name="Visarga.gj" format="2">
  <advance width="503"/>
  <unicode hex="0A83"/>
  <anchor x="252" y="100" name="_Top2"/>
  <outline>
    <contour>
      <point x="252" y="193" type="curve" smooth="yes"/>
      <point x="339" y="193"/>
      <point x="376" y="240"/>
      <point x="376" y="317" type="curve" smooth="yes"/>
      <point x="376" y="328" type="line" smooth="yes"/>
      <point x="376" y="404"/>
      <point x="337" y="451"/>
      <point x="252" y="451" type="curve" smooth="yes"/>
      <point x="168" y="451"/>
      <point x="128" y="403"/>
      <point x="128" y="328" type="curve" smooth="yes"/>
      <point x="128" y="317" type="line" smooth="yes"/>
      <point x="128" y="240"/>
      <point x="167" y="193"/>
    </contour>
    <contour>
      <point x="252" y="762" type="curve" smooth="yes"/>
      <point x="339" y="762"/>
      <point x="376" y="809"/>
      <point x="376" y="886" type="curve" smooth="yes"/>
      <point x="376" y="897" type="line" smooth="yes"/>
      <point x="376" y="973"/>
      <point x="337" y="1020"/>
      <point x="252" y="1020" type="curve" smooth="yes"/>
      <point x="168" y="1020"/>
      <point x="128" y="972"/>
      <point x="128" y="897" type="curve" smooth="yes"/>
      <point x="128" y="886" type="line" smooth="yes"/>
      <point x="128" y="809"/>
      <point x="167" y="762"/>
    </contour>
  </outline>
</glyph>
<glyph name="VowelI.gj" format="2">
  <advance width="1284"/>
  <unicode hex="0A87"/>
  <anchor x="511" y="1266" name="Top2"/>
  <outline>
    <contour>
      <point x="950" y="654" type="line"/>
      <point x="1145" y="654" type="line"/>
      <point x="1145" y="1611" type="line"/>
      <point x="950" y="1587" type="line"/>
    </contour>
    <contour>
      <point x="602" y="-22" type="curve" smooth="yes"/>
      <point x="963" y="-22"/>
      <point x="1145" y="138"/>
      <point x="1145" y="463" type="curve" smooth="yes"/>
      <point x="1145" y="676" type="line"/>
      <point x="950" y="676" type="line"/>
      <point x="950" y="467" type="line" smooth="yes"/>
      <point x="950" y="251"/>
      <point x="835" y="146"/>
      <point x="602" y="146" type="curve" smooth="yes"/>
      <point x="406" y="146"/>
      <point x="314" y="211"/>
      <point x="314" y="351" type="curve" smooth="yes"/>
      <point x="314" y="363" type="line" smooth="yes"/>
      <point x="314" y="485"/>
      <point x="382" y="536"/>
      <point x="525" y="541" type="curve" smooth="yes"/>
      <point x="689" y="547" type="line"/>
      <point x="689" y="703" type="line"/>
      <point x="523" y="709" type="line" smooth="yes"/>
      <point x="382" y="714"/>
      <point x="317" y="759"/>
      <point x="317" y="871" type="curve" smooth="yes"/>
      <point x="317" y="883" type="line" smooth="yes"/>
      <point x="317" y="1002"/>
      <point x="391" y="1056"/>
      <point x="538" y="1056" type="curve" smooth="yes"/>
      <point x="627" y="1056"/>
      <point x="693" y="1039"/>
      <point x="744" y="1018" type="curve"/>
      <point x="728" y="1176" type="line"/>
      <point x="676" y="1198"/>
      <point x="595" y="1218"/>
      <point x="489" y="1218" type="curve" smooth="yes"/>
      <point x="248" y="1218"/>
      <point x="115" y="1123"/>
      <point x="115" y="912" type="curve" smooth="yes"/>
      <point x="115" y="895" type="line" smooth="yes"/>
      <point x="115" y="729"/>
      <point x="194" y="647"/>
      <point x="356" y="627" type="curve"/>
      <point x="356" y="623" type="line"/>
      <point x="193" y="603"/>
      <point x="112" y="514"/>
      <point x="112" y="348" type="curve" smooth="yes"/>
      <point x="112" y="332" type="line" smooth="yes"/>
      <point x="112" y="103"/>
      <point x="273" y="-22"/>
    </contour>
  </outline>
</glyph>
<glyph name="VowelIi.gj" format="2">
  <advance width="1284"/>
  <unicode hex="0A88"/>
  <anchor x="511" y="1266" name="Top2"/>
  <outline>
    <contour>
      <point x="950" y="621" type="line"/>
      <point x="1145" y="621" type="line"/>
      <point x="1145" y="1327" type="line" smooth="yes"/>
      <point x="1145" y="1435"/>
      <point x="1180" y="1481"/>
      <point x="1259" y="1481" type="curve" smooth="yes"/>
      <point x="1287" y="1481"/>
      <point x="1312" y="1477"/>
      <point x="1338" y="1470" type="curve"/>
      <point x="1324" y="1623" type="line"/>
      <point x="1291" y="1634"/>
      <point x="1253" y="1639"/>
      <point x="1208" y="1639" type="curve" smooth="yes"/>
      <point x="1036" y="1639"/>
      <point x="950" y="1539"/>
      <point x="950" y="1338" type="curve" smooth="yes"/>
    </contour>
    <contour>
      <point x="602" y="-22" type="curve" smooth="yes"/>
      <point x="963" y="-22"/>
      <point x="1145" y="138"/>
      <point x="1145" y="463" type="curve" smooth="yes"/>
      <point x="1145" y="676" type="line"/>
      <point x="950" y="676" type="line"/>
      <point x="950" y="467" type="line" smooth="yes"/>
      <point x="950" y="251"/>
      <point x="835" y="146"/>
      <point x="602" y="146" type="curve" smooth="yes"/>
      <point x="406" y="146"/>
      <point x="314" y="211"/>
      <point x="314" y="351" type="curve" smooth="yes"/>
      <point x="314" y="363" type="line" smooth="yes"/>
      <point x="314" y="485"/>
      <point x="382" y="536"/>
      <point x="525" y="541" type="curve" smooth="yes"/>
      <point x="689" y="547" type="line"/>
      <point x="689" y="703" type="line"/>
      <point x="523" y="709" type="line" smooth="yes"/>
      <point x="382" y="714"/>
      <point x="317" y="759"/>
      <point x="317" y="871" type="curve" smooth="yes"/>
      <point x="317" y="883" type="line" smooth="yes"/>
      <point x="317" y="1002"/>
      <point x="391" y="1056"/>
      <point x="538" y="1056" type="curve" smooth="yes"/>
      <point x="627" y="1056"/>
      <point x="693" y="1039"/>
      <point x="744" y="1018" type="curve"/>
      <point x="728" y="1176" type="line"/>
      <point x="676" y="1198"/>
      <point x="595" y="1218"/>
      <point x="489" y="1218" type="curve" smooth="yes"/>
      <point x="248" y="1218"/>
      <point x="115" y="1123"/>
      <point x="115" y="912" type="curve" smooth="yes"/>
      <point x="115" y="895" type="line" smooth="yes"/>
      <point x="115" y="729"/>
      <point x="194" y="647"/>
      <point x="356" y="627" type="curve"/>
      <point x="356" y="623" type="line"/>
      <point x="193" y="603"/>
      <point x="112" y="514"/>
      <point x="112" y="348" type="curve" smooth="yes"/>
      <point x="112" y="332" type="line" smooth="yes"/>
      <point x="112" y="103"/>
      <point x="273" y="-22"/>
    </contour>
  </outline>
</glyph>
<glyph name="VowelU.gj" format="2">
  <advance width="1279"/>
  <unicode hex="0A89"/>
  <anchor x="773" y="1693" name="Top2"/>
  <outline>
    <contour>
      <point x="120" y="728" type="line"/>
      <point x="321" y="728" type="line"/>
      <point x="321" y="912" type="line" smooth="yes"/>
      <point x="321" y="1285"/>
      <point x="481" y="1474"/>
      <point x="804" y="1474" type="curve" smooth="yes"/>
      <point x="865" y="1474"/>
      <point x="916" y="1468"/>
      <point x="960" y="1459" type="curve"/>
      <point x="945" y="1617" type="line"/>
      <point x="903" y="1629"/>
      <point x="846" y="1638"/>
      <point x="785" y="1638" type="curve" smooth="yes"/>
      <point x="359" y="1638"/>
      <point x="120" y="1396"/>
      <point x="120" y="914" type="curve" smooth="yes"/>
    </contour>
    <contour>
      <point x="700" y="-22" type="curve" smooth="yes"/>
      <point x="1018" y="-22"/>
      <point x="1173" y="104"/>
      <point x="1173" y="334" type="curve" smooth="yes"/>
      <point x="1173" y="348" type="line" smooth="yes"/>
      <point x="1173" y="514"/>
      <point x="1089" y="604"/>
      <point x="921" y="624" type="curve"/>
      <point x="921" y="629" type="line"/>
      <point x="1083" y="648"/>
      <point x="1161" y="732"/>
      <point x="1161" y="902" type="curve" smooth="yes"/>
      <point x="1161" y="918" type="line" smooth="yes"/>
      <point x="1161" y="1120"/>
      <point x="1030" y="1218"/>
      <point x="803" y="1218" type="curve" smooth="yes"/>
      <point x="693" y="1218"/>
      <point x="608" y="1195"/>
      <point x="555" y="1173" type="curve"/>
      <point x="537" y="1009" type="line"/>
      <point x="598" y="1034"/>
      <point x="674" y="1056"/>
      <point x="760" y="1056" type="curve" smooth="yes"/>
      <point x="889" y="1056"/>
      <point x="959" y="1002"/>
      <point x="959" y="892" type="curve" smooth="yes"/>
      <point x="959" y="879" type="line" smooth="yes"/>
      <point x="959" y="764"/>
      <point x="894" y="714"/>
      <point x="750" y="710" type="curve" smooth="yes"/>
      <point x="588" y="705" type="line"/>
      <point x="588" y="547" type="line"/>
      <point x="750" y="542" type="line" smooth="yes"/>
      <point x="900" y="537"/>
      <point x="971" y="484"/>
      <point x="971" y="365" type="curve" smooth="yes"/>
      <point x="971" y="353" type="line" smooth="yes"/>
      <point x="971" y="212"/>
      <point x="884" y="146"/>
      <point x="700" y="146" type="curve" smooth="yes"/>
      <point x="444" y="146"/>
      <point x="321" y="290"/>
      <point x="321" y="605" type="curve" smooth="yes"/>
      <point x="321" y="757" type="line"/>
      <point x="120" y="757" type="line"/>
      <point x="120" y="606" type="line" smooth="yes"/>
      <point x="120" y="179"/>
      <point x="312" y="-22"/>
    </contour>
  </outline>
</glyph>
<glyph name="VowelUu.gj" format="2">
  <advance width="1760"/>
  <unicode hex="0A8A"/>
  <guideline x="2451" y="1693" angle="0"/>
  <guideline x="1358" y="899" angle="0"/>
  <guideline x="1358" y="891" angle="0"/>
  <anchor x="870" y="1693" name="Top2"/>
  <outline>
    <contour>
      <point x="1411" y="0" type="line"/>
      <point x="1607" y="0" type="line"/>
      <point x="1607" y="899" type="line" smooth="yes"/>
      <point x="1607" y="1392"/>
      <point x="1333" y="1638"/>
      <point x="866" y="1638" type="curve" smooth="yes"/>
      <point x="386" y="1638"/>
      <point x="120" y="1388"/>
      <point x="120" y="890" type="curve" smooth="yes"/>
      <point x="120" y="729" type="line"/>
      <point x="321" y="729" type="line"/>
      <point x="321" y="892" type="line" smooth="yes"/>
      <point x="321" y="1278"/>
      <point x="501" y="1474"/>
      <point x="866" y="1474" type="curve" smooth="yes"/>
      <point x="1226" y="1474"/>
      <point x="1411" y="1281"/>
      <point x="1411" y="899" type="curve" smooth="yes"/>
    </contour>
    <contour>
      <point x="700" y="-22" type="curve" smooth="yes"/>
      <point x="1018" y="-22"/>
      <point x="1173" y="104"/>
      <point x="1173" y="334" type="curve" smooth="yes"/>
      <point x="1173" y="348" type="line" smooth="yes"/>
      <point x="1173" y="514"/>
      <point x="1089" y="604"/>
      <point x="921" y="624" type="curve"/>
      <point x="921" y="629" type="line"/>
      <point x="1083" y="648"/>
      <point x="1161" y="732"/>
      <point x="1161" y="902" type="curve" smooth="yes"/>
      <point x="1161" y="918" type="line" smooth="yes"/>
      <point x="1161" y="1120"/>
      <point x="1030" y="1218"/>
      <point x="803" y="1218" type="curve" smooth="yes"/>
      <point x="693" y="1218"/>
      <point x="608" y="1195"/>
      <point x="555" y="1173" type="curve"/>
      <point x="537" y="1009" type="line"/>
      <point x="598" y="1034"/>
      <point x="674" y="1056"/>
      <point x="760" y="1056" type="curve" smooth="yes"/>
      <point x="889" y="1056"/>
      <point x="959" y="1002"/>
      <point x="959" y="892" type="curve" smooth="yes"/>
      <point x="959" y="879" type="line" smooth="yes"/>
      <point x="959" y="764"/>
      <point x="894" y="714"/>
      <point x="750" y="710" type="curve" smooth="yes"/>
      <point x="588" y="705" type="line"/>
      <point x="588" y="547" type="line"/>
      <point x="750" y="542" type="line" smooth="yes"/>
      <point x="900" y="537"/>
      <point x="971" y="484"/>
      <point x="971" y="365" type="curve" smooth="yes"/>
      <point x="971" y="353" type="line" smooth="yes"/>
      <point x="971" y="212"/>
      <point x="884" y="146"/>
      <point x="700" y="146" type="curve" smooth="yes"/>
      <point x="444" y="146"/>
      <point x="321" y="290"/>
      <point x="321" y="605" type="curve" smooth="yes"/>
      <point x="321" y="757" type="line"/>
      <point x="120" y="757" type="line"/>
      <point x="120" y="606" type="line" smooth="yes"/>
      <point x="120" y="179"/>
      <point x="312" y="-22"/>
    </contour>
  </outline>
</glyph>
<glyph name="VowelRu.gj" format="2">
  <advance width="1740"/>
  <unicode hex="0A8B"/>
  <anchor x="879" y="-75" name="Bottom"/>
  <anchor x="860" y="1271" name="Top"/>
  <anchor x="900" y="1271" name="Top2"/>
  <outline>
    <contour>
      <point x="1365" y="89" type="curve" smooth="yes"/>
      <point x="1549" y="89"/>
      <point x="1644" y="183"/>
      <point x="1644" y="372" type="curve" smooth="yes"/>
      <point x="1644" y="391" type="line" smooth="yes"/>
      <point x="1644" y="544"/>
      <point x="1592" y="644"/>
      <point x="1468" y="724" type="curve"/>
      <point x="1324" y="655" type="line"/>
      <point x="1415" y="594"/>
      <point x="1454" y="532"/>
      <point x="1454" y="415" type="curve" smooth="yes"/>
      <point x="1454" y="403" type="line" smooth="yes"/>
      <point x="1454" y="299"/>
      <point x="1404" y="245"/>
      <point x="1313" y="245" type="curve" smooth="yes"/>
      <point x="1263" y="245"/>
      <point x="1221" y="258"/>
      <point x="1187" y="274" type="curve"/>
      <point x="1202" y="123" type="line"/>
      <point x="1242" y="105"/>
      <point x="1298" y="89"/>
    </contour>
    <contour>
      <point x="257" y="352" type="curve"/>
      <point x="492" y="405" type="line"/>
      <point x="474" y="445" type="line"/>
      <point x="558" y="500"/>
      <point x="597" y="586"/>
      <point x="597" y="723" type="curve" smooth="yes"/>
      <point x="597" y="739" type="line" smooth="yes"/>
      <point x="597" y="943"/>
      <point x="499" y="1053"/>
      <point x="304" y="1053" type="curve" smooth="yes"/>
      <point x="216" y="1053"/>
      <point x="144" y="1027"/>
      <point x="99" y="1001" type="curve"/>
      <point x="84" y="837" type="line"/>
      <point x="129" y="865"/>
      <point x="187" y="888"/>
      <point x="253" y="888" type="curve" smooth="yes"/>
      <point x="352" y="888"/>
      <point x="400" y="817"/>
      <point x="400" y="677" type="curve" smooth="yes"/>
      <point x="400" y="662" type="line" smooth="yes"/>
      <point x="400" y="514"/>
      <point x="356" y="426"/>
    </contour>
    <contour>
      <point x="86" y="109" type="line"/>
      <point x="843" y="422" type="line"/>
      <point x="841" y="597" type="line"/>
      <point x="644" y="514" type="line" smooth="yes"/>
      <point x="571" y="483"/>
      <point x="505" y="451"/>
      <point x="437" y="417" type="curve"/>
      <point x="415" y="419" type="line"/>
      <point x="86" y="292" type="line"/>
    </contour>
    <contour>
      <point x="955" y="455" type="line"/>
      <point x="1448" y="664" type="line"/>
      <point x="1395" y="813" type="line"/>
      <point x="953" y="631" type="line"/>
    </contour>
    <contour>
      <point x="1309" y="677" type="line"/>
      <point x="1488" y="703" type="line"/>
      <point x="1549" y="785" type="line"/>
      <point x="1535" y="883"/>
      <point x="1512" y="973"/>
      <point x="1480" y="1058" type="curve"/>
      <point x="1309" y="1058" type="line"/>
    </contour>
    <contour>
      <point x="805" y="495" type="line"/>
      <point x="1000" y="495" type="line"/>
      <point x="1000" y="1192" type="line"/>
      <point x="805" y="1192" type="line"/>
    </contour>
    <contour>
      <point x="805" y="0" type="line"/>
      <point x="1000" y="0" type="line"/>
      <point x="1000" y="628" type="line"/>
      <point x="805" y="628" type="line"/>
    </contour>
  </outline>
</glyph>
<glyph name="VowelLru.gj" format="2">
  <advance width="1527"/>
  <unicode hex="0A8C"/>
  <guideline x="128" y="797" angle="0"/>
  <guideline x="128" y="964" angle="0"/>
  <guideline x="1240" y="-137" angle="90"/>
  <guideline x="1428" y="-250" angle="84.3554"/>
  <guideline x="1191" y="-137" angle="90"/>
  <guideline x="1240" y="-137" angle="90"/>
  <anchor x="1092" y="1271" name="Top2"/>
  <outline>
    <contour>
      <point x="1207" y="-387" type="curve" smooth="yes"/>
      <point x="1295" y="-387"/>
      <point x="1363" y="-370"/>
      <point x="1419" y="-341" type="curve"/>
      <point x="1436" y="-158" type="line"/>
      <point x="1378" y="-192"/>
      <point x="1310" y="-219"/>
      <point x="1228" y="-219" type="curve" smooth="yes"/>
      <point x="1136" y="-219"/>
      <point x="1086" y="-178"/>
      <point x="1086" y="-108" type="curve" smooth="yes"/>
      <point x="1086" y="-103" type="line" smooth="yes"/>
      <point x="1086" y="85"/>
      <point x="1432" y="206"/>
      <point x="1432" y="563" type="curve" smooth="yes"/>
      <point x="1432" y="592" type="line" smooth="yes"/>
      <point x="1432" y="832"/>
      <point x="1316" y="964"/>
      <point x="1072" y="964" type="curve" smooth="yes"/>
      <point x="890" y="964"/>
      <point x="794" y="877"/>
      <point x="774" y="747" type="curve"/>
      <point x="744" y="747" type="line"/>
      <point x="743" y="319" type="line"/>
      <point x="861" y="319" type="line"/>
      <point x="868" y="570" type="line" smooth="yes"/>
      <point x="872" y="728"/>
      <point x="932" y="795"/>
      <point x="1053" y="796" type="curve" smooth="yes"/>
      <point x="1174" y="797"/>
      <point x="1230" y="723"/>
      <point x="1230" y="588" type="curve" smooth="yes"/>
      <point x="1230" y="561" type="line" smooth="yes"/>
      <point x="1230" y="281"/>
      <point x="886" y="179"/>
      <point x="886" y="-103" type="curve" smooth="yes"/>
      <point x="886" y="-109" type="line" smooth="yes"/>
      <point x="886" y="-294"/>
      <point x="1011" y="-387"/>
    </contour>
    <contour>
      <point x="300" y="0" type="curve"/>
      <point x="544" y="0" type="line"/>
      <point x="544" y="5" type="line"/>
      <point x="392" y="146"/>
      <point x="316" y="275"/>
      <point x="316" y="502" type="curve" smooth="yes"/>
      <point x="316" y="541" type="line" smooth="yes"/>
      <point x="316" y="710"/>
      <point x="373" y="796"/>
      <point x="505" y="796" type="curve" smooth="yes"/>
      <point x="612" y="796"/>
      <point x="669" y="729"/>
      <point x="673" y="570" type="curve" smooth="yes"/>
      <point x="680" y="319" type="line"/>
      <point x="768" y="319" type="line"/>
      <point x="768" y="747" type="line"/>
      <point x="747" y="876"/>
      <point x="661" y="964"/>
      <point x="486" y="964" type="curve" smooth="yes"/>
      <point x="233" y="964"/>
      <point x="114" y="814"/>
      <point x="114" y="549" type="curve" smooth="yes"/>
      <point x="114" y="503" type="line" smooth="yes"/>
      <point x="114" y="270"/>
      <point x="167" y="125"/>
    </contour>
    <contour>
      <point x="995" y="860" type="line"/>
      <point x="1190" y="860" type="line"/>
      <point x="1190" y="1192" type="line"/>
      <point x="995" y="1192" type="line"/>
    </contour>
  </outline>
</glyph>
<glyph name="VowelChadraE.gj" format="2">
  <advance width="1709"/>
  <unicode hex="0A8D"/>
  <anchor x="1436" y="-75" name="Bottom"/>
  <anchor x="1418" y="1266" name="Top"/>
  <anchor x="1458" y="1266" name="Top2"/>
  <outline>
    <contour>
      <point x="664" y="89" type="curve" smooth="yes"/>
      <point x="933" y="89"/>
      <point x="1077" y="226"/>
      <point x="1077" y="491" type="curve" smooth="yes"/>
      <point x="1077" y="1001" type="line"/>
      <point x="887" y="1001" type="line"/>
      <point x="887" y="495" type="line" smooth="yes"/>
      <point x="887" y="334"/>
      <point x="808" y="254"/>
      <point x="663" y="254" type="curve" smooth="yes"/>
      <point x="522" y="254"/>
      <point x="435" y="328"/>
      <point x="420" y="481" type="curve" smooth="yes"/>
      <point x="411" y="572" type="line"/>
      <point x="222" y="551" type="line"/>
      <point x="232" y="461" type="line" smooth="yes"/>
      <point x="259" y="214"/>
      <point x="402" y="89"/>
    </contour>
    <contour>
      <point x="275" y="466" type="line"/>
      <point x="277" y="495" type="line"/>
      <point x="341" y="495" type="line" smooth="yes"/>
      <point x="545" y="495"/>
      <point x="661" y="614"/>
      <point x="661" y="832" type="curve" smooth="yes"/>
      <point x="661" y="881" type="line" smooth="yes"/>
      <point x="661" y="1107"/>
      <point x="539" y="1218"/>
      <point x="332" y="1218" type="curve" smooth="yes"/>
      <point x="240" y="1218"/>
      <point x="163" y="1196"/>
      <point x="108" y="1164" type="curve"/>
      <point x="93" y="1005" type="line"/>
      <point x="150" y="1037"/>
      <point x="215" y="1057"/>
      <point x="293" y="1057" type="curve" smooth="yes"/>
      <point x="403" y="1057"/>
      <point x="465" y="996"/>
      <point x="465" y="871" type="curve" smooth="yes"/>
      <point x="465" y="837" type="line" smooth="yes"/>
      <point x="465" y="705"/>
      <point x="393" y="644"/>
      <point x="257" y="643" type="curve" smooth="yes"/>
      <point x="71" y="642" type="line"/>
      <point x="71" y="497" type="line"/>
    </contour>
    <contour>
      <point x="1361" y="495" type="line"/>
      <point x="1556" y="495" type="line"/>
      <point x="1556" y="1192" type="line"/>
      <point x="1361" y="1192" type="line"/>
    </contour>
    <contour>
      <point x="1361" y="0" type="line"/>
      <point x="1556" y="0" type="line"/>
      <point x="1556" y="628" type="line"/>
      <point x="1361" y="628" type="line"/>
    </contour>
    <contour>
      <point x="994" y="533" type="line"/>
      <point x="1448" y="533" type="line"/>
      <point x="1433" y="695" type="line"/>
      <point x="994" y="695" type="line"/>
    </contour>
    <contour>
      <point x="1486" y="1266" type="curve" smooth="yes"/>
      <point x="1550" y="1266"/>
      <point x="1601" y="1283"/>
      <point x="1631" y="1303" type="curve"/>
      <point x="1631" y="1458" type="line"/>
      <point x="1608" y="1442"/>
      <point x="1564" y="1423"/>
      <point x="1506" y="1423" type="curve" smooth="yes"/>
      <point x="1425" y="1423"/>
      <point x="1360" y="1452"/>
      <point x="1248" y="1543" type="curve" smooth="yes"/>
      <point x="924" y="1807" type="line"/>
      <point x="810" y="1656" type="line"/>
      <point x="1144" y="1407" type="line" smooth="yes"/>
      <point x="1291" y="1297"/>
      <point x="1383" y="1266"/>
    </contour>
  </outline>
</glyph>
<glyph name="Ka.gj" format="2">
  <advance width="1102"/>
  <unicode hex="0A95"/>
  <anchor x="569" y="-75" name="Bottom"/>
  <anchor x="684" y="1266" name="Top"/>
  <anchor x="549" y="1266" name="Top2"/>
  <outline>
    <contour>
      <point x="504" y="626" type="curve"/>
      <point x="601" y="690" type="line"/>
      <point x="422" y="703"/>
      <point x="348" y="765"/>
      <point x="348" y="873" type="curve" smooth="yes"/>
      <point x="348" y="883" type="line" smooth="yes"/>
      <point x="348" y="996"/>
      <point x="423" y="1054"/>
      <point x="590" y="1054" type="curve" smooth="yes"/>
      <point x="707" y="1054"/>
      <point x="807" y="1026"/>
      <point x="886" y="991" type="curve"/>
      <point x="868" y="1154" type="line"/>
      <point x="801" y="1187"/>
      <point x="691" y="1218"/>
      <point x="557" y="1218" type="curve" smooth="yes"/>
      <point x="287" y="1218"/>
      <point x="146" y="1114"/>
      <point x="146" y="909" type="curve" smooth="yes"/>
      <point x="146" y="895" type="line" smooth="yes"/>
      <point x="146" y="718"/>
      <point x="279" y="635"/>
    </contour>
    <contour>
      <point x="525" y="-22" type="curve" smooth="yes"/>
      <point x="803" y="-22"/>
      <point x="959" y="83"/>
      <point x="959" y="301" type="curve" smooth="yes"/>
      <point x="959" y="321" type="line" smooth="yes"/>
      <point x="959" y="510"/>
      <point x="834" y="607"/>
      <point x="619" y="613" type="curve"/>
      <point x="521" y="553" type="line"/>
      <point x="687" y="537"/>
      <point x="757" y="469"/>
      <point x="757" y="356" type="curve" smooth="yes"/>
      <point x="757" y="341" type="line" smooth="yes"/>
      <point x="757" y="207"/>
      <point x="668" y="146"/>
      <point x="496" y="146" type="curve" smooth="yes"/>
      <point x="351" y="146"/>
      <point x="235" y="177"/>
      <point x="132" y="224" type="curve"/>
      <point x="150" y="44" type="line"/>
      <point x="236" y="7"/>
      <point x="359" y="-22"/>
    </contour>
    <contour>
      <point x="83" y="434" type="line"/>
      <point x="642" y="549" type="line"/>
      <point x="512" y="677" type="line"/>
      <point x="83" y="605" type="line"/>
    </contour>
    <contour>
      <point x="456" y="684" type="line"/>
      <point x="532" y="556" type="line"/>
      <point x="1037" y="639" type="line"/>
      <point x="1037" y="807" type="line"/>
    </contour>
  </outline>
</glyph>
<glyph name="Kha.gj" format="2">
  <advance width="1573"/>
  <unicode hex="0A96"/>
  <anchor x="1300" y="-74" name="Bottom"/>
  <anchor x="1282" y="1267" name="Top"/>
  <anchor x="1322" y="1267" name="Top2"/>
  <outline>
    <contour>
      <point x="179" y="763" type="line"/>
      <point x="374" y="763" type="line"/>
      <point x="374" y="975" type="line" smooth="yes"/>
      <point x="374" y="1131"/>
      <point x="305" y="1204"/>
      <point x="168" y="1204" type="curve" smooth="yes"/>
      <point x="121" y="1204"/>
      <point x="80" y="1196"/>
      <point x="46" y="1184" type="curve"/>
      <point x="34" y="1038" type="line"/>
      <point x="54" y="1044"/>
      <point x="76" y="1049"/>
      <point x="98" y="1049" type="curve" smooth="yes"/>
      <point x="156" y="1049"/>
      <point x="179" y="1017"/>
      <point x="179" y="949" type="curve" smooth="yes"/>
    </contour>
    <contour>
      <point x="546" y="138" type="curve" smooth="yes"/>
      <point x="792" y="138"/>
      <point x="914" y="261"/>
      <point x="914" y="518" type="curve" smooth="yes"/>
      <point x="914" y="1002" type="line"/>
      <point x="722" y="1002" type="line"/>
      <point x="722" y="509" type="line" smooth="yes"/>
      <point x="722" y="373"/>
      <point x="664" y="306"/>
      <point x="548" y="306" type="curve" smooth="yes"/>
      <point x="431" y="306"/>
      <point x="374" y="378"/>
      <point x="374" y="522" type="curve" smooth="yes"/>
      <point x="374" y="786" type="line"/>
      <point x="179" y="786" type="line"/>
      <point x="179" y="531" type="line" smooth="yes"/>
      <point x="179" y="266"/>
      <point x="301" y="138"/>
    </contour>
    <contour>
      <point x="832" y="548" type="line"/>
      <point x="1370" y="548" type="line"/>
      <point x="1355" y="710" type="line"/>
      <point x="832" y="710" type="line"/>
    </contour>
    <contour>
      <point x="1225" y="496" type="line"/>
      <point x="1420" y="496" type="line"/>
      <point x="1420" y="1193" type="line"/>
      <point x="1225" y="1193" type="line"/>
    </contour>
    <contour>
      <point x="1225" y="1" type="line"/>
      <point x="1420" y="1" type="line"/>
      <point x="1420" y="629" type="line"/>
      <point x="1225" y="629" type="line"/>
    </contour>
  </outline>
</glyph>
<glyph name="Gha.gj" format="2">
  <advance width="1279"/>
  <unicode hex="0A98"/>
  <anchor x="1006" y="-75" name="Bottom"/>
  <anchor x="988" y="1266" name="Top"/>
  <anchor x="1028" y="1266" name="Top2"/>
  <outline>
    <contour>
      <point x="533" y="94" type="curve" smooth="yes"/>
      <point x="762" y="94"/>
      <point x="882" y="167"/>
      <point x="921" y="270" type="curve"/>
      <point x="946" y="270" type="line"/>
      <point x="935" y="440" type="line"/>
      <point x="903" y="327"/>
      <point x="782" y="258"/>
      <point x="580" y="258" type="curve" smooth="yes"/>
      <point x="402" y="258"/>
      <point x="313" y="310"/>
      <point x="313" y="428" type="curve" smooth="yes"/>
      <point x="313" y="435" type="line" smooth="yes"/>
      <point x="313" y="537"/>
      <point x="379" y="580"/>
      <point x="515" y="584" type="curve" smooth="yes"/>
      <point x="667" y="589" type="line"/>
      <point x="667" y="743" type="line"/>
      <point x="513" y="748" type="line" smooth="yes"/>
      <point x="376" y="753"/>
      <point x="311" y="794"/>
      <point x="311" y="898" type="curve" smooth="yes"/>
      <point x="311" y="905" type="line" smooth="yes"/>
      <point x="311" y="1009"/>
      <point x="380" y="1056"/>
      <point x="519" y="1056" type="curve" smooth="yes"/>
      <point x="607" y="1056"/>
      <point x="674" y="1039"/>
      <point x="724" y="1018" type="curve"/>
      <point x="707" y="1176" type="line"/>
      <point x="656" y="1197"/>
      <point x="577" y="1218"/>
      <point x="474" y="1218" type="curve" smooth="yes"/>
      <point x="239" y="1218"/>
      <point x="108" y="1126"/>
      <point x="108" y="934" type="curve" smooth="yes"/>
      <point x="108" y="924" type="line" smooth="yes"/>
      <point x="108" y="762"/>
      <point x="186" y="685"/>
      <point x="345" y="668" type="curve"/>
      <point x="345" y="664" type="line"/>
      <point x="190" y="645"/>
      <point x="111" y="563"/>
      <point x="111" y="409" type="curve" smooth="yes"/>
      <point x="111" y="399" type="line" smooth="yes"/>
      <point x="111" y="200"/>
      <point x="257" y="94"/>
    </contour>
    <contour>
      <point x="931" y="495" type="line"/>
      <point x="1126" y="495" type="line"/>
      <point x="1126" y="1192" type="line"/>
      <point x="931" y="1192" type="line"/>
    </contour>
    <contour>
      <point x="931" y="0" type="line"/>
      <point x="1126" y="0" type="line"/>
      <point x="1126" y="628" type="line"/>
      <point x="931" y="628" type="line"/>
    </contour>
  </outline>
</glyph>
<glyph name="Nga.gj" format="2">
  <advance width="1265"/>
  <unicode hex="0A99"/>
  <anchor x="553" y="-75" name="Bottom"/>
  <anchor x="655" y="1271" name="Top"/>
  <anchor x="526" y="1271" name="Top2"/>
  <outline>
    <contour>
      <point x="1100" y="632" type="curve" smooth="yes"/>
      <point x="1186" y="632"/>
      <point x="1227" y="677"/>
      <point x="1227" y="758" type="curve" smooth="yes"/>
      <point x="1227" y="770" type="line" smooth="yes"/>
      <point x="1227" y="850"/>
      <point x="1186" y="896"/>
      <point x="1100" y="896" type="curve" smooth="yes"/>
      <point x="1015" y="896"/>
      <point x="973" y="851"/>
      <point x="973" y="770" type="curve" smooth="yes"/>
      <point x="973" y="758" type="line" smooth="yes"/>
      <point x="973" y="677"/>
      <point x="1015" y="632"/>
    </contour>
    <contour>
      <point x="500" y="-22" type="curve" smooth="yes"/>
      <point x="781" y="-22"/>
      <point x="936" y="87"/>
      <point x="936" y="322" type="curve" smooth="yes"/>
      <point x="936" y="343" type="line" smooth="yes"/>
      <point x="936" y="543"/>
      <point x="845" y="626"/>
      <point x="590" y="690" type="curve" smooth="yes"/>
      <point x="518" y="708" type="line" smooth="yes"/>
      <point x="363" y="747"/>
      <point x="307" y="788"/>
      <point x="307" y="881" type="curve" smooth="yes"/>
      <point x="307" y="892" type="line" smooth="yes"/>
      <point x="307" y="1001"/>
      <point x="383" y="1054"/>
      <point x="556" y="1054" type="curve" smooth="yes"/>
      <point x="683" y="1054"/>
      <point x="792" y="1023"/>
      <point x="878" y="981" type="curve"/>
      <point x="860" y="1149" type="line"/>
      <point x="787" y="1185"/>
      <point x="670" y="1218"/>
      <point x="525" y="1218" type="curve" smooth="yes"/>
      <point x="246" y="1218"/>
      <point x="105" y="1110"/>
      <point x="105" y="900" type="curve" smooth="yes"/>
      <point x="105" y="883" type="line" smooth="yes"/>
      <point x="105" y="708"/>
      <point x="197" y="615"/>
      <point x="442" y="557" type="curve" smooth="yes"/>
      <point x="509" y="541" type="line" smooth="yes"/>
      <point x="685" y="499"/>
      <point x="734" y="455"/>
      <point x="734" y="346" type="curve" smooth="yes"/>
      <point x="734" y="332" type="line" smooth="yes"/>
      <point x="734" y="206"/>
      <point x="652" y="146"/>
      <point x="479" y="146" type="curve" smooth="yes"/>
      <point x="325" y="146"/>
      <point x="198" y="191"/>
      <point x="93" y="249" type="curve"/>
      <point x="113" y="63" type="line"/>
      <point x="202" y="18"/>
      <point x="331" y="-22"/>
    </contour>
  </outline>
</glyph>
<glyph name="Ca.gj" format="2">
  <advance width="1316"/>
  <unicode hex="0A9A"/>
  <anchor x="1043" y="-75" name="Bottom"/>
  <anchor x="1025" y="1266" name="Top"/>
  <anchor x="1065" y="1266" name="Top2"/>
  <outline>
    <contour>
      <point x="685" y="286" type="curve" smooth="yes"/>
      <point x="526" y="286"/>
      <point x="432" y="363"/>
      <point x="419" y="503" type="curve" smooth="yes"/>
      <point x="412" y="580" type="line"/>
      <point x="214" y="563" type="line"/>
      <point x="222" y="484" type="line" smooth="yes"/>
      <point x="246" y="242"/>
      <point x="383" y="118"/>
      <point x="637" y="118" type="curve" smooth="yes"/>
      <point x="821" y="118"/>
      <point x="920" y="193"/>
      <point x="958" y="293" type="curve"/>
      <point x="980" y="293" type="line"/>
      <point x="974" y="471" type="line"/>
      <point x="946" y="357"/>
      <point x="844" y="286"/>
    </contour>
    <contour>
      <point x="968" y="495" type="line"/>
      <point x="1163" y="495" type="line"/>
      <point x="1163" y="1192" type="line"/>
      <point x="968" y="1192" type="line"/>
    </contour>
    <contour>
      <point x="968" y="0" type="line"/>
      <point x="1163" y="0" type="line"/>
      <point x="1163" y="628" type="line"/>
      <point x="968" y="628" type="line"/>
    </contour>
    <contour>
      <point x="270" y="480" type="line"/>
      <point x="280" y="508" type="line"/>
      <point x="352" y="508" type="line" smooth="yes"/>
      <point x="566" y="508"/>
      <point x="685" y="627"/>
      <point x="685" y="845" type="curve" smooth="yes"/>
      <point x="685" y="881" type="line" smooth="yes"/>
      <point x="685" y="1107"/>
      <point x="561" y="1218"/>
      <point x="344" y="1218" type="curve" smooth="yes"/>
      <point x="244" y="1218"/>
      <point x="161" y="1196"/>
      <point x="101" y="1165" type="curve"/>
      <point x="85" y="1003" type="line"/>
      <point x="147" y="1035"/>
      <point x="215" y="1056"/>
      <point x="298" y="1056" type="curve" smooth="yes"/>
      <point x="421" y="1056"/>
      <point x="488" y="997"/>
      <point x="488" y="876" type="curve" smooth="yes"/>
      <point x="488" y="849" type="line" smooth="yes"/>
      <point x="488" y="720"/>
      <point x="412" y="660"/>
      <point x="263" y="660" type="curve" smooth="yes"/>
      <point x="60" y="659" type="line"/>
      <point x="60" y="514" type="line"/>
    </contour>
  </outline>
</glyph>
<glyph name="Cha.gj" format="2">
  <advance width="1478"/>
  <unicode hex="0A9B"/>
  <anchor x="702" y="-75" name="Bottom"/>
  <anchor x="1117" y="1266" name="Top"/>
  <anchor x="1036" y="1266" name="Top2"/>
  <outline>
    <contour>
      <point x="687" y="-22" type="curve" smooth="yes"/>
      <point x="1118" y="-22"/>
      <point x="1363" y="193"/>
      <point x="1363" y="610" type="curve" smooth="yes"/>
      <point x="1363" y="654" type="line"/>
      <point x="1169" y="653" type="line"/>
      <point x="1169" y="596" type="line" smooth="yes"/>
      <point x="1169" y="299"/>
      <point x="994" y="146"/>
      <point x="687" y="146" type="curve" smooth="yes"/>
      <point x="436" y="146"/>
      <point x="314" y="217"/>
      <point x="314" y="370" type="curve" smooth="yes"/>
      <point x="314" y="378" type="line" smooth="yes"/>
      <point x="314" y="491"/>
      <point x="379" y="539"/>
      <point x="509" y="546" type="curve" smooth="yes"/>
      <point x="608" y="551" type="line"/>
      <point x="608" y="704" type="line"/>
      <point x="507" y="709" type="line" smooth="yes"/>
      <point x="380" y="715"/>
      <point x="320" y="761"/>
      <point x="320" y="875" type="curve" smooth="yes"/>
      <point x="320" y="889" type="line" smooth="yes"/>
      <point x="320" y="1002"/>
      <point x="381" y="1056"/>
      <point x="495" y="1056" type="curve" smooth="yes"/>
      <point x="559" y="1056"/>
      <point x="609" y="1043"/>
      <point x="645" y="1025" type="curve"/>
      <point x="629" y="1187" type="line"/>
      <point x="590" y="1204"/>
      <point x="526" y="1218"/>
      <point x="445" y="1218" type="curve" smooth="yes"/>
      <point x="236" y="1218"/>
      <point x="118" y="1119"/>
      <point x="118" y="915" type="curve" smooth="yes"/>
      <point x="118" y="898" type="line" smooth="yes"/>
      <point x="118" y="731"/>
      <point x="190" y="649"/>
      <point x="337" y="630" type="curve"/>
      <point x="337" y="624" type="line"/>
      <point x="188" y="605"/>
      <point x="112" y="519"/>
      <point x="112" y="362" type="curve" smooth="yes"/>
      <point x="112" y="351" type="line" smooth="yes"/>
      <point x="112" y="108"/>
      <point x="304" y="-22"/>
    </contour>
    <contour>
      <point x="961" y="470" type="curve" smooth="yes"/>
      <point x="1072" y="470"/>
      <point x="1134" y="523"/>
      <point x="1159" y="589" type="curve"/>
      <point x="1184" y="589" type="line"/>
      <point x="1179" y="725" type="line"/>
      <point x="1157" y="664"/>
      <point x="1103" y="624"/>
      <point x="1031" y="624" type="curve" smooth="yes"/>
      <point x="945" y="624"/>
      <point x="901" y="677"/>
      <point x="901" y="779" type="curve" smooth="yes"/>
      <point x="901" y="887" type="line" smooth="yes"/>
      <point x="901" y="1002"/>
      <point x="948" y="1060"/>
      <point x="1035" y="1060" type="curve" smooth="yes"/>
      <point x="1125" y="1060"/>
      <point x="1169" y="1003"/>
      <point x="1171" y="870" type="curve" smooth="yes"/>
      <point x="1174" y="645" type="line"/>
      <point x="1363" y="647" type="line"/>
      <point x="1363" y="847" type="line" smooth="yes"/>
      <point x="1363" y="1093"/>
      <point x="1260" y="1218"/>
      <point x="1034" y="1218" type="curve" smooth="yes"/>
      <point x="826" y="1218"/>
      <point x="719" y="1105"/>
      <point x="719" y="887" type="curve" smooth="yes"/>
      <point x="719" y="758" type="line" smooth="yes"/>
      <point x="719" y="559"/>
      <point x="809" y="470"/>
    </contour>
  </outline>
</glyph>
<glyph name="Jha.gj" format="2">
  <advance width="1402"/>
  <unicode hex="0A9D"/>
  <anchor x="989" y="-75" name="Bottom"/>
  <anchor x="1088" y="1266" name="Top"/>
  <anchor x="1196" y="1266" name="Top2"/>
  <outline>
    <contour>
      <point x="351" y="131" type="curve" smooth="yes"/>
      <point x="604" y="131"/>
      <point x="751" y="273"/>
      <point x="751" y="575" type="curve" smooth="yes"/>
      <point x="751" y="780" type="line" smooth="yes"/>
      <point x="751" y="1077"/>
      <point x="605" y="1218"/>
      <point x="354" y="1218" type="curve" smooth="yes"/>
      <point x="246" y="1218"/>
      <point x="164" y="1191"/>
      <point x="106" y="1159" type="curve"/>
      <point x="90" y="991" type="line"/>
      <point x="148" y="1025"/>
      <point x="222" y="1052"/>
      <point x="318" y="1052" type="curve" smooth="yes"/>
      <point x="467" y="1052"/>
      <point x="549" y="958"/>
      <point x="549" y="774" type="curve" smooth="yes"/>
      <point x="549" y="581" type="line" smooth="yes"/>
      <point x="549" y="394"/>
      <point x="468" y="299"/>
      <point x="316" y="299" type="curve" smooth="yes"/>
      <point x="212" y="299"/>
      <point x="136" y="328"/>
      <point x="70" y="366" type="curve"/>
      <point x="86" y="190" type="line"/>
      <point x="144" y="157"/>
      <point x="233" y="131"/>
    </contour>
    <contour>
      <point x="973" y="-22" type="curve" smooth="yes"/>
      <point x="1199" y="-22"/>
      <point x="1312" y="94"/>
      <point x="1312" y="324" type="curve" smooth="yes"/>
      <point x="1312" y="392" type="line" smooth="yes"/>
      <point x="1312" y="625"/>
      <point x="1185" y="736"/>
      <point x="951" y="739" type="curve"/>
      <point x="891" y="752" type="line"/>
      <point x="720" y="752" type="line"/>
      <point x="720" y="592" type="line"/>
      <point x="891" y="592" type="line" smooth="yes"/>
      <point x="1046" y="592"/>
      <point x="1117" y="532"/>
      <point x="1117" y="388" type="curve" smooth="yes"/>
      <point x="1117" y="328" type="line" smooth="yes"/>
      <point x="1117" y="203"/>
      <point x="1057" y="140"/>
      <point x="942" y="140" type="curve" smooth="yes"/>
      <point x="870" y="140"/>
      <point x="811" y="157"/>
      <point x="764" y="178" type="curve"/>
      <point x="780" y="14" type="line"/>
      <point x="824" y="-4"/>
      <point x="889" y="-22"/>
    </contour>
    <contour>
      <point x="947" y="679" type="line"/>
      <point x="997" y="738"/>
      <point x="1040" y="801"/>
      <point x="1087" y="867" type="curve" smooth="yes"/>
      <point x="1311" y="1183" type="line"/>
      <point x="1311" y="1192" type="line"/>
      <point x="1073" y="1192" type="line"/>
      <point x="792" y="712" type="line"/>
    </contour>
  </outline>
</glyph>
<glyph name="Tta.gj" format="2">
  <advance width="1051"/>
  <unicode hex="0A9F"/>
  <anchor x="590" y="-75" name="Bottom"/>
  <anchor x="699" y="1266" name="Top"/>
  <anchor x="570" y="1266" name="Top2"/>
  <outline>
    <contour>
      <point x="574" y="-22" type="curve" smooth="yes"/>
      <point x="725" y="-22"/>
      <point x="857" y="7"/>
      <point x="948" y="56" type="curve"/>
      <point x="966" y="249" type="line"/>
      <point x="867" y="185"/>
      <point x="728" y="146"/>
      <point x="594" y="146" type="curve" smooth="yes"/>
      <point x="393" y="146"/>
      <point x="295" y="211"/>
      <point x="295" y="347" type="curve" smooth="yes"/>
      <point x="295" y="358" type="line" smooth="yes"/>
      <point x="295" y="477"/>
      <point x="361" y="542"/>
      <point x="513" y="576" type="curve" smooth="yes"/>
      <point x="653" y="606" type="line" smooth="yes"/>
      <point x="846" y="648"/>
      <point x="939" y="743"/>
      <point x="939" y="897" type="curve" smooth="yes"/>
      <point x="939" y="915" type="line" smooth="yes"/>
      <point x="939" y="1122"/>
      <point x="796" y="1218"/>
      <point x="531" y="1218" type="curve" smooth="yes"/>
      <point x="385" y="1218"/>
      <point x="270" y="1185"/>
      <point x="202" y="1155" type="curve"/>
      <point x="180" y="984" type="line"/>
      <point x="270" y="1021"/>
      <point x="381" y="1054"/>
      <point x="503" y="1054" type="curve" smooth="yes"/>
      <point x="666" y="1054"/>
      <point x="737" y="1012"/>
      <point x="737" y="910" type="curve" smooth="yes"/>
      <point x="737" y="904" type="line" smooth="yes"/>
      <point x="737" y="828"/>
      <point x="687" y="779"/>
      <point x="574" y="755" type="curve" smooth="yes"/>
      <point x="450" y="729" type="line" smooth="yes"/>
      <point x="199" y="680"/>
      <point x="93" y="562"/>
      <point x="93" y="364" type="curve" smooth="yes"/>
      <point x="93" y="341" type="line" smooth="yes"/>
      <point x="93" y="103"/>
      <point x="249" y="-22"/>
    </contour>
  </outline>
</glyph>
<glyph name="Ttha.gj" format="2">
  <advance width="1148"/>
  <unicode hex="0AA0"/>
  <anchor x="604" y="-75" name="Bottom"/>
  <anchor x="720" y="1266" name="Top"/>
  <anchor x="589" y="1266" name="Top2"/>
  <outline>
    <contour>
      <point x="580" y="-22" type="curve" smooth="yes"/>
      <point x="893" y="-22"/>
      <point x="1057" y="103"/>
      <point x="1057" y="349" type="curve" smooth="yes"/>
      <point x="1057" y="383" type="line" smooth="yes"/>
      <point x="1057" y="609"/>
      <point x="946" y="726"/>
      <point x="653" y="765" type="curve" smooth="yes"/>
      <point x="570" y="776" type="line" smooth="yes"/>
      <point x="411" y="797"/>
      <point x="377" y="849"/>
      <point x="377" y="918" type="curve" smooth="yes"/>
      <point x="377" y="923" type="line" smooth="yes"/>
      <point x="377" y="1015"/>
      <point x="451" y="1060"/>
      <point x="620" y="1060" type="curve" smooth="yes"/>
      <point x="750" y="1060"/>
      <point x="861" y="1029"/>
      <point x="948" y="987" type="curve"/>
      <point x="931" y="1146" type="line"/>
      <point x="856" y="1184"/>
      <point x="737" y="1218"/>
      <point x="589" y="1218" type="curve" smooth="yes"/>
      <point x="315" y="1218"/>
      <point x="175" y="1121"/>
      <point x="175" y="938" type="curve" smooth="yes"/>
      <point x="175" y="928" type="line" smooth="yes"/>
      <point x="175" y="789"/>
      <point x="261" y="717"/>
      <point x="393" y="682" type="curve"/>
      <point x="396" y="639" type="line"/>
      <point x="424" y="635"/>
      <point x="453" y="630"/>
      <point x="480" y="628" type="curve" smooth="yes"/>
      <point x="575" y="619" type="line" smooth="yes"/>
      <point x="789" y="599"/>
      <point x="857" y="526"/>
      <point x="857" y="390" type="curve" smooth="yes"/>
      <point x="857" y="360" type="line" smooth="yes"/>
      <point x="857" y="214"/>
      <point x="765" y="142"/>
      <point x="580" y="142" type="curve" smooth="yes"/>
      <point x="396" y="142"/>
      <point x="303" y="216"/>
      <point x="303" y="368" type="curve" smooth="yes"/>
      <point x="303" y="383" type="line"/>
      <point x="103" y="373" type="line"/>
      <point x="103" y="350" type="line" smooth="yes"/>
      <point x="103" y="104"/>
      <point x="267" y="-22"/>
    </contour>
    <contour>
      <point x="103" y="369" type="line"/>
      <point x="303" y="379" type="line"/>
      <point x="303" y="396" type="line" smooth="yes"/>
      <point x="303" y="530"/>
      <point x="361" y="596"/>
      <point x="487" y="642" type="curve"/>
      <point x="396" y="724" type="line"/>
      <point x="212" y="683"/>
      <point x="103" y="582"/>
      <point x="103" y="384" type="curve" smooth="yes"/>
    </contour>
  </outline>
</glyph>
<glyph name="Ddha.gj" format="2">
  <advance width="1188"/>
  <unicode hex="0AA2"/>
  <anchor x="641" y="-75" name="Bottom"/>
  <anchor x="760" y="1271" name="Top"/>
  <anchor x="610" y="1271" name="Top2"/>
  <outline>
    <contour>
      <point x="619" y="-22" type="curve" smooth="yes"/>
      <point x="920" y="-22"/>
      <point x="1108" y="84"/>
      <point x="1108" y="305" type="curve" smooth="yes"/>
      <point x="1108" y="326" type="line" smooth="yes"/>
      <point x="1108" y="500"/>
      <point x="1008" y="587"/>
      <point x="811" y="587" type="curve" smooth="yes"/>
      <point x="608" y="587"/>
      <point x="514" y="499"/>
      <point x="514" y="343" type="curve" smooth="yes"/>
      <point x="514" y="326" type="line" smooth="yes"/>
      <point x="514" y="223"/>
      <point x="558" y="166"/>
      <point x="646" y="130" type="curve"/>
      <point x="646" y="112" type="line"/>
      <point x="799" y="124" type="line"/>
      <point x="721" y="165"/>
      <point x="685" y="206"/>
      <point x="685" y="302" type="curve" smooth="yes"/>
      <point x="685" y="316" type="line" smooth="yes"/>
      <point x="685" y="401"/>
      <point x="730" y="450"/>
      <point x="813" y="450" type="curve" smooth="yes"/>
      <point x="896" y="450"/>
      <point x="936" y="409"/>
      <point x="936" y="322" type="curve" smooth="yes"/>
      <point x="936" y="308" type="line" smooth="yes"/>
      <point x="936" y="204"/>
      <point x="867" y="151"/>
      <point x="746" y="129" type="curve"/>
      <point x="731" y="138" type="line"/>
      <point x="698" y="127"/>
      <point x="661" y="122"/>
      <point x="616" y="122" type="curve" smooth="yes"/>
      <point x="403" y="122"/>
      <point x="292" y="216"/>
      <point x="292" y="392" type="curve" smooth="yes"/>
      <point x="292" y="408" type="line" smooth="yes"/>
      <point x="292" y="566"/>
      <point x="359" y="642"/>
      <point x="542" y="674" type="curve" smooth="yes"/>
      <point x="720" y="705" type="line" smooth="yes"/>
      <point x="923" y="740"/>
      <point x="983" y="817"/>
      <point x="983" y="953" type="curve" smooth="yes"/>
      <point x="983" y="958" type="line" smooth="yes"/>
      <point x="983" y="1126"/>
      <point x="861" y="1218"/>
      <point x="587" y="1218" type="curve" smooth="yes"/>
      <point x="439" y="1218"/>
      <point x="321" y="1185"/>
      <point x="253" y="1155" type="curve"/>
      <point x="233" y="987" type="line"/>
      <point x="333" y="1029"/>
      <point x="458" y="1058"/>
      <point x="572" y="1058" type="curve" smooth="yes"/>
      <point x="728" y="1058"/>
      <point x="789" y="1029"/>
      <point x="789" y="958" type="curve" smooth="yes"/>
      <point x="789" y="955" type="line" smooth="yes"/>
      <point x="789" y="903"/>
      <point x="765" y="876"/>
      <point x="634" y="853" type="curve" smooth="yes"/>
      <point x="466" y="824" type="line" smooth="yes"/>
      <point x="215" y="781"/>
      <point x="97" y="654"/>
      <point x="97" y="412" type="curve" smooth="yes"/>
      <point x="97" y="388" type="line" smooth="yes"/>
      <point x="97" y="118"/>
      <point x="279" y="-22"/>
    </contour>
  </outline>
</glyph>
<glyph name="Ta.gj" format="2">
  <advance width="1148"/>
  <unicode hex="0AA4"/>
  <anchor x="875" y="-75" name="Bottom"/>
  <anchor x="857" y="1266" name="Top"/>
  <anchor x="897" y="1266" name="Top2"/>
  <outline>
    <contour>
      <point x="800" y="495" type="line"/>
      <point x="995" y="495" type="line"/>
      <point x="995" y="1192" type="line"/>
      <point x="800" y="1192" type="line"/>
    </contour>
    <contour>
      <point x="800" y="0" type="line"/>
      <point x="995" y="0" type="line"/>
      <point x="995" y="628" type="line"/>
      <point x="800" y="628" type="line"/>
    </contour>
    <contour>
      <point x="261" y="0" type="curve"/>
      <point x="470" y="0" type="line"/>
      <point x="375" y="149"/>
      <point x="297" y="351"/>
      <point x="297" y="508" type="curve" smooth="yes"/>
      <point x="297" y="665"/>
      <point x="372" y="740"/>
      <point x="538" y="740" type="curve" smooth="yes"/>
      <point x="895" y="740" type="line"/>
      <point x="895" y="902" type="line"/>
      <point x="479" y="902" type="line" smooth="yes"/>
      <point x="216" y="902"/>
      <point x="95" y="773"/>
      <point x="95" y="528" type="curve" smooth="yes"/>
      <point x="95" y="351"/>
      <point x="170" y="145"/>
    </contour>
  </outline>
</glyph>
<glyph name="Tha.gj" format="2">
  <advance width="1354"/>
  <unicode hex="0AA5"/>
  <anchor x="1081" y="-75" name="Bottom"/>
  <anchor x="1063" y="1266" name="Top"/>
  <anchor x="1103" y="1266" name="Top2"/>
  <outline>
    <contour>
      <point x="602" y="98" type="curve" smooth="yes"/>
      <point x="835" y="98"/>
      <point x="958" y="178"/>
      <point x="996" y="286" type="curve"/>
      <point x="1019" y="286" type="line"/>
      <point x="1011" y="464" type="line"/>
      <point x="969" y="340"/>
      <point x="850" y="262"/>
      <point x="638" y="262" type="curve" smooth="yes"/>
      <point x="409" y="262"/>
      <point x="299" y="359"/>
      <point x="299" y="528" type="curve" smooth="yes"/>
      <point x="299" y="555"/>
      <point x="299" y="580"/>
      <point x="300" y="607" type="curve"/>
      <point x="199" y="497" type="line"/>
      <point x="407" y="497" type="line" smooth="yes"/>
      <point x="665" y="497"/>
      <point x="788" y="619"/>
      <point x="788" y="860" type="curve" smooth="yes"/>
      <point x="788" y="896" type="line" smooth="yes"/>
      <point x="788" y="1108"/>
      <point x="670" y="1218"/>
      <point x="446" y="1218" type="curve" smooth="yes"/>
      <point x="230" y="1218"/>
      <point x="117" y="1117"/>
      <point x="117" y="922" type="curve" smooth="yes"/>
      <point x="117" y="872"/>
      <point x="123" y="820"/>
      <point x="133" y="775" type="curve"/>
      <point x="296" y="775" type="line"/>
      <point x="296" y="815"/>
      <point x="296" y="851"/>
      <point x="296" y="895" type="curve" smooth="yes"/>
      <point x="296" y="1011"/>
      <point x="350" y="1066"/>
      <point x="447" y="1066" type="curve" smooth="yes"/>
      <point x="545" y="1066"/>
      <point x="597" y="1008"/>
      <point x="597" y="894" type="curve" smooth="yes"/>
      <point x="597" y="864" type="line" smooth="yes"/>
      <point x="597" y="716"/>
      <point x="520" y="647"/>
      <point x="342" y="647" type="curve" smooth="yes"/>
      <point x="113" y="647" type="line"/>
      <point x="109" y="613"/>
      <point x="107" y="577"/>
      <point x="107" y="523" type="curve" smooth="yes"/>
      <point x="107" y="250"/>
      <point x="278" y="98"/>
    </contour>
    <contour>
      <point x="1006" y="495" type="line"/>
      <point x="1201" y="495" type="line"/>
      <point x="1201" y="1192" type="line"/>
      <point x="1006" y="1192" type="line"/>
    </contour>
    <contour>
      <point x="1006" y="0" type="line"/>
      <point x="1201" y="0" type="line"/>
      <point x="1201" y="628" type="line"/>
      <point x="1006" y="628" type="line"/>
    </contour>
  </outline>
</glyph>
<glyph name="Da.gj" format="2">
  <advance width="959"/>
  <unicode hex="0AA6"/>
  <anchor x="558" y="-75" name="Bottom"/>
  <anchor x="653" y="1266" name="Top"/>
  <anchor x="537" y="1266" name="Top2"/>
  <outline>
    <contour>
      <point x="538" y="-22" type="curve" smooth="yes"/>
      <point x="692" y="-22"/>
      <point x="807" y="17"/>
      <point x="875" y="59" type="curve"/>
      <point x="893" y="239" type="line"/>
      <point x="809" y="186"/>
      <point x="706" y="145"/>
      <point x="566" y="145" type="curve" smooth="yes"/>
      <point x="397" y="145"/>
      <point x="311" y="206"/>
      <point x="311" y="335" type="curve" smooth="yes"/>
      <point x="311" y="347" type="line" smooth="yes"/>
      <point x="311" y="471"/>
      <point x="387" y="528"/>
      <point x="541" y="531" type="curve" smooth="yes"/>
      <point x="770" y="536" type="line"/>
      <point x="770" y="695" type="line"/>
      <point x="540" y="700" type="line" smooth="yes"/>
      <point x="399" y="703"/>
      <point x="326" y="753"/>
      <point x="326" y="865" type="curve" smooth="yes"/>
      <point x="326" y="878" type="line" smooth="yes"/>
      <point x="326" y="997"/>
      <point x="408" y="1056"/>
      <point x="566" y="1056" type="curve" smooth="yes"/>
      <point x="686" y="1056"/>
      <point x="789" y="1024"/>
      <point x="870" y="981" type="curve"/>
      <point x="851" y="1148" type="line"/>
      <point x="781" y="1185"/>
      <point x="670" y="1218"/>
      <point x="532" y="1218" type="curve" smooth="yes"/>
      <point x="270" y="1218"/>
      <point x="124" y="1113"/>
      <point x="124" y="903" type="curve" smooth="yes"/>
      <point x="124" y="888" type="line" smooth="yes"/>
      <point x="124" y="719"/>
      <point x="205" y="636"/>
      <point x="362" y="618" type="curve"/>
      <point x="362" y="613" type="line"/>
      <point x="198" y="591"/>
      <point x="109" y="498"/>
      <point x="109" y="324" type="curve" smooth="yes"/>
      <point x="109" y="310" type="line" smooth="yes"/>
      <point x="109" y="94"/>
      <point x="257" y="-22"/>
    </contour>
  </outline>
</glyph>
<glyph name="Dha.gj" format="2">
  <advance width="1244"/>
  <unicode hex="0AA7"/>
  <anchor x="971" y="-75" name="Bottom"/>
  <anchor x="952" y="1271" name="Top"/>
  <anchor x="993" y="1271" name="Top2"/>
  <outline>
    <contour>
      <point x="516" y="93" type="curve" smooth="yes"/>
      <point x="733" y="93"/>
      <point x="848" y="168"/>
      <point x="887" y="269" type="curve"/>
      <point x="912" y="269" type="line"/>
      <point x="899" y="439" type="line"/>
      <point x="869" y="326"/>
      <point x="750" y="257"/>
      <point x="567" y="257" type="curve" smooth="yes"/>
      <point x="397" y="257"/>
      <point x="311" y="312"/>
      <point x="311" y="439" type="curve" smooth="yes"/>
      <point x="311" y="446" type="line" smooth="yes"/>
      <point x="311" y="558"/>
      <point x="380" y="604"/>
      <point x="521" y="609" type="curve" smooth="yes"/>
      <point x="677" y="614" type="line"/>
      <point x="677" y="768" type="line"/>
      <point x="519" y="773" type="line" smooth="yes"/>
      <point x="378" y="777"/>
      <point x="312" y="816"/>
      <point x="312" y="919" type="curve" smooth="yes"/>
      <point x="312" y="924" type="line" smooth="yes"/>
      <point x="312" y="1038"/>
      <point x="402" y="1145"/>
      <point x="549" y="1275" type="curve"/>
      <point x="549" y="1283" type="line"/>
      <point x="320" y="1283" type="line"/>
      <point x="188" y="1163"/>
      <point x="110" y="1058"/>
      <point x="110" y="930" type="curve" smooth="yes"/>
      <point x="110" y="925" type="line" smooth="yes"/>
      <point x="110" y="778"/>
      <point x="185" y="708"/>
      <point x="338" y="693" type="curve"/>
      <point x="338" y="689" type="line"/>
      <point x="185" y="669"/>
      <point x="108" y="584"/>
      <point x="108" y="425" type="curve" smooth="yes"/>
      <point x="108" y="411" type="line" smooth="yes"/>
      <point x="108" y="204"/>
      <point x="250" y="93"/>
    </contour>
    <contour>
      <point x="896" y="495" type="line"/>
      <point x="1091" y="495" type="line"/>
      <point x="1091" y="1192" type="line"/>
      <point x="896" y="1192" type="line"/>
    </contour>
    <contour>
      <point x="896" y="0" type="line"/>
      <point x="1091" y="0" type="line"/>
      <point x="1091" y="628" type="line"/>
      <point x="896" y="628" type="line"/>
    </contour>
  </outline>
</glyph>
<glyph name="Na.gj" format="2">
  <advance width="1110"/>
  <unicode hex="0AA8"/>
  <anchor x="837" y="-75" name="Bottom"/>
  <anchor x="819" y="1266" name="Top"/>
  <anchor x="859" y="1266" name="Top2"/>
  <outline>
    <contour>
      <point x="762" y="495" type="line"/>
      <point x="957" y="495" type="line"/>
      <point x="957" y="1192" type="line"/>
      <point x="762" y="1192" type="line"/>
    </contour>
    <contour>
      <point x="762" y="0" type="line"/>
      <point x="957" y="0" type="line"/>
      <point x="957" y="628" type="line"/>
      <point x="762" y="628" type="line"/>
    </contour>
    <contour>
      <point x="184" y="228" type="curve"/>
      <point x="353" y="228" type="line"/>
      <point x="353" y="833" type="line"/>
      <point x="180" y="833" type="line"/>
      <point x="82" y="772" type="line"/>
      <point x="97" y="560"/>
      <point x="133" y="400"/>
    </contour>
    <contour>
      <point x="296" y="671" type="line"/>
      <point x="852" y="671" type="line"/>
      <point x="837" y="833" type="line"/>
      <point x="296" y="833" type="line"/>
    </contour>
  </outline>
</glyph>
<glyph name="Pa.gj" format="2">
  <advance width="1173"/>
  <unicode hex="0AAA"/>
  <anchor x="900" y="-75" name="Bottom"/>
  <anchor x="882" y="1266" name="Top"/>
  <anchor x="922" y="1266" name="Top2"/>
  <outline>
    <contour>
      <point x="526" y="233" type="curve" smooth="yes"/>
      <point x="692" y="233"/>
      <point x="784" y="313"/>
      <point x="815" y="407" type="curve"/>
      <point x="836" y="407" type="line"/>
      <point x="827" y="580" type="line"/>
      <point x="800" y="470"/>
      <point x="719" y="402"/>
      <point x="583" y="402" type="curve" smooth="yes"/>
      <point x="439" y="402"/>
      <point x="363" y="476"/>
      <point x="363" y="646" type="curve" smooth="yes"/>
      <point x="363" y="801" type="line"/>
      <point x="168" y="801" type="line"/>
      <point x="168" y="626" type="line" smooth="yes"/>
      <point x="168" y="363"/>
      <point x="284" y="233"/>
    </contour>
    <contour>
      <point x="168" y="762" type="line"/>
      <point x="363" y="762" type="line"/>
      <point x="363" y="974" type="line" smooth="yes"/>
      <point x="363" y="1130"/>
      <point x="294" y="1203"/>
      <point x="157" y="1203" type="curve" smooth="yes"/>
      <point x="110" y="1203"/>
      <point x="69" y="1195"/>
      <point x="35" y="1183" type="curve"/>
      <point x="23" y="1037" type="line"/>
      <point x="43" y="1043"/>
      <point x="65" y="1048"/>
      <point x="87" y="1048" type="curve" smooth="yes"/>
      <point x="145" y="1048"/>
      <point x="168" y="1016"/>
      <point x="168" y="948" type="curve" smooth="yes"/>
    </contour>
    <contour>
      <point x="825" y="495" type="line"/>
      <point x="1020" y="495" type="line"/>
      <point x="1020" y="1192" type="line"/>
      <point x="825" y="1192" type="line"/>
    </contour>
    <contour>
      <point x="825" y="0" type="line"/>
      <point x="1020" y="0" type="line"/>
      <point x="1020" y="628" type="line"/>
      <point x="825" y="628" type="line"/>
    </contour>
  </outline>
</glyph>
<glyph name="Ba.gj" format="2">
  <advance width="1532"/>
  <unicode hex="0AAC"/>
  <anchor x="1259" y="-75" name="Bottom"/>
  <anchor x="1241" y="1266" name="Top"/>
  <anchor x="1281" y="1266" name="Top2"/>
  <outline>
    <contour>
      <point x="1184" y="495" type="line"/>
      <point x="1379" y="495" type="line"/>
      <point x="1379" y="1192" type="line"/>
      <point x="1184" y="1192" type="line"/>
    </contour>
    <contour>
      <point x="1184" y="0" type="line"/>
      <point x="1379" y="0" type="line"/>
      <point x="1379" y="628" type="line"/>
      <point x="1184" y="628" type="line"/>
    </contour>
    <contour>
      <point x="802" y="547" type="line"/>
      <point x="1306" y="547" type="line"/>
      <point x="1291" y="709" type="line"/>
      <point x="802" y="709" type="line"/>
    </contour>
    <contour>
      <point x="503" y="137" type="curve" smooth="yes"/>
      <point x="756" y="137"/>
      <point x="883" y="265"/>
      <point x="883" y="530" type="curve" smooth="yes"/>
      <point x="883" y="1001" type="line"/>
      <point x="689" y="1001" type="line"/>
      <point x="689" y="528" type="line" smooth="yes"/>
      <point x="689" y="377"/>
      <point x="629" y="304"/>
      <point x="505" y="304" type="curve" smooth="yes"/>
      <point x="375" y="304"/>
      <point x="313" y="390"/>
      <point x="313" y="562" type="curve" smooth="yes"/>
      <point x="313" y="731" type="line" smooth="yes"/>
      <point x="313" y="924"/>
      <point x="367" y="1057"/>
      <point x="482" y="1192" type="curve"/>
      <point x="268" y="1192" type="line"/>
      <point x="168" y="1084"/>
      <point x="111" y="941"/>
      <point x="111" y="733" type="curve" smooth="yes"/>
      <point x="111" y="564" type="line" smooth="yes"/>
      <point x="111" y="275"/>
      <point x="241" y="137"/>
    </contour>
  </outline>
</glyph>
<glyph name="Bha.gj" format="2">
  <advance width="1615"/>
  <unicode hex="0AAD"/>
  <anchor x="1342" y="-75" name="Bottom"/>
  <anchor x="1324" y="1266" name="Top"/>
  <anchor x="1364" y="1266" name="Top2"/>
  <outline>
    <contour>
      <point x="1267" y="495" type="line"/>
      <point x="1462" y="495" type="line"/>
      <point x="1462" y="1192" type="line"/>
      <point x="1267" y="1192" type="line"/>
    </contour>
    <contour>
      <point x="1267" y="0" type="line"/>
      <point x="1462" y="0" type="line"/>
      <point x="1462" y="628" type="line"/>
      <point x="1267" y="628" type="line"/>
    </contour>
    <contour>
      <point x="845" y="496" type="line"/>
      <point x="1358" y="496" type="line"/>
      <point x="1343" y="658" type="line"/>
      <point x="845" y="658" type="line"/>
    </contour>
    <contour>
      <point x="309" y="0" type="curve"/>
      <point x="522" y="0" type="line"/>
      <point x="382" y="168"/>
      <point x="316" y="333"/>
      <point x="316" y="573" type="curve" smooth="yes"/>
      <point x="316" y="725" type="line" smooth="yes"/>
      <point x="316" y="943"/>
      <point x="415" y="1051"/>
      <point x="605" y="1051" type="curve" smooth="yes"/>
      <point x="661" y="1051"/>
      <point x="713" y="1041"/>
      <point x="758" y="1016" type="curve"/>
      <point x="727" y="1077" type="line"/>
      <point x="727" y="587" type="line"/>
      <point x="922" y="587" type="line"/>
      <point x="922" y="1151" type="line"/>
      <point x="830" y="1196"/>
      <point x="721" y="1218"/>
      <point x="603" y="1218" type="curve" smooth="yes"/>
      <point x="276" y="1218"/>
      <point x="115" y="1052"/>
      <point x="115" y="726" type="curve" smooth="yes"/>
      <point x="115" y="575" type="line" smooth="yes"/>
      <point x="115" y="314"/>
      <point x="185" y="135"/>
    </contour>
    <contour>
      <point x="744" y="168" type="curve"/>
      <point x="917" y="168" type="line"/>
      <point x="917" y="649" type="line"/>
      <point x="738" y="649" type="line"/>
      <point x="640" y="588" type="line"/>
      <point x="654" y="424"/>
      <point x="690" y="303"/>
    </contour>
  </outline>
</glyph>
<glyph name="Ya.gj" format="2">
  <advance width="1286"/>
  <unicode hex="0AAF"/>
  <anchor x="1013" y="-75" name="Bottom"/>
  <anchor x="995" y="1266" name="Top"/>
  <anchor x="1035" y="1266" name="Top2"/>
  <outline>
    <contour>
      <point x="566" y="107" type="curve" smooth="yes"/>
      <point x="784" y="107"/>
      <point x="893" y="188"/>
      <point x="928" y="293" type="curve"/>
      <point x="947" y="293" type="line"/>
      <point x="943" y="471" type="line"/>
      <point x="906" y="349"/>
      <point x="796" y="275"/>
      <point x="608" y="275" type="curve" smooth="yes"/>
      <point x="407" y="275"/>
      <point x="294" y="368"/>
      <point x="294" y="540" type="curve" smooth="yes"/>
      <point x="294" y="582"/>
      <point x="295" y="607"/>
      <point x="297" y="645" type="curve"/>
      <point x="213" y="528" type="line"/>
      <point x="350" y="528" type="line" smooth="yes"/>
      <point x="564" y="528"/>
      <point x="682" y="640"/>
      <point x="682" y="853" type="curve" smooth="yes"/>
      <point x="682" y="889" type="line" smooth="yes"/>
      <point x="682" y="1111"/>
      <point x="561" y="1218"/>
      <point x="352" y="1218" type="curve" smooth="yes"/>
      <point x="261" y="1218"/>
      <point x="188" y="1198"/>
      <point x="134" y="1167" type="curve"/>
      <point x="119" y="1005" type="line"/>
      <point x="172" y="1035"/>
      <point x="235" y="1056"/>
      <point x="309" y="1056" type="curve" smooth="yes"/>
      <point x="422" y="1056"/>
      <point x="485" y="1001"/>
      <point x="485" y="884" type="curve" smooth="yes"/>
      <point x="485" y="858" type="line" smooth="yes"/>
      <point x="485" y="733"/>
      <point x="412" y="678"/>
      <point x="271" y="678" type="curve" smooth="yes"/>
      <point x="103" y="678" type="line"/>
      <point x="99" y="635"/>
      <point x="97" y="594"/>
      <point x="97" y="541" type="curve" smooth="yes"/>
      <point x="97" y="266"/>
      <point x="264" y="107"/>
    </contour>
    <contour>
      <point x="938" y="495" type="line"/>
      <point x="1133" y="495" type="line"/>
      <point x="1133" y="1192" type="line"/>
      <point x="938" y="1192" type="line"/>
    </contour>
    <contour>
      <point x="938" y="0" type="line"/>
      <point x="1133" y="0" type="line"/>
      <point x="1133" y="628" type="line"/>
      <point x="938" y="628" type="line"/>
    </contour>
  </outline>
</glyph>
<glyph name="Ra.gj" format="2">
  <advance width="899"/>
  <unicode hex="0AB0"/>
  <anchor x="663" y="-75" name="Bottom"/>
  <anchor x="533" y="1266" name="Top"/>
  <anchor x="454" y="1266" name="Top2"/>
  <outline>
    <contour>
      <point x="290" y="411" type="line"/>
      <point x="294" y="444" type="line"/>
      <point x="399" y="444" type="line" smooth="yes"/>
      <point x="657" y="444"/>
      <point x="794" y="574"/>
      <point x="794" y="813" type="curve" smooth="yes"/>
      <point x="794" y="856" type="line" smooth="yes"/>
      <point x="794" y="1099"/>
      <point x="649" y="1218"/>
      <point x="403" y="1218" type="curve" smooth="yes"/>
      <point x="272" y="1218"/>
      <point x="179" y="1189"/>
      <point x="113" y="1158" type="curve"/>
      <point x="97" y="995" type="line"/>
      <point x="168" y="1027"/>
      <point x="256" y="1054"/>
      <point x="362" y="1054" type="curve" smooth="yes"/>
      <point x="509" y="1054"/>
      <point x="592" y="985"/>
      <point x="592" y="845" type="curve" smooth="yes"/>
      <point x="592" y="815" type="line" smooth="yes"/>
      <point x="592" y="667"/>
      <point x="502" y="598"/>
      <point x="322" y="597" type="curve" smooth="yes"/>
      <point x="62" y="596" type="line"/>
      <point x="62" y="449" type="line"/>
    </contour>
    <contour>
      <point x="640" y="-22" type="curve" smooth="yes"/>
      <point x="704" y="-22"/>
      <point x="751" y="-9"/>
      <point x="788" y="4" type="curve"/>
      <point x="804" y="166" type="line"/>
      <point x="779" y="156"/>
      <point x="728" y="143"/>
      <point x="670" y="143" type="curve" smooth="yes"/>
      <point x="527" y="143"/>
      <point x="428" y="218"/>
      <point x="391" y="394" type="curve" smooth="yes"/>
      <point x="363" y="528" type="line"/>
      <point x="176" y="512" type="line"/>
      <point x="205" y="364" type="line" smooth="yes"/>
      <point x="258" y="95"/>
      <point x="408" y="-22"/>
    </contour>
  </outline>
</glyph>
<glyph name="Lla.gj" format="2">
  <advance width="1540"/>
  <unicode hex="0AB3"/>
  <anchor x="1265" y="-75" name="Bottom"/>
  <anchor x="1127" y="1271" name="Top"/>
  <anchor x="1027" y="1271" name="Top2"/>
  <outline>
    <contour>
      <point x="1192" y="0" type="line"/>
      <point x="1387" y="0" type="line"/>
      <point x="1387" y="837" type="line" smooth="yes"/>
      <point x="1387" y="1096"/>
      <point x="1267" y="1218"/>
      <point x="1027" y="1218" type="curve" smooth="yes"/>
      <point x="787" y="1218"/>
      <point x="664" y="1098"/>
      <point x="664" y="850" type="curve" smooth="yes"/>
      <point x="664" y="732"/>
      <point x="674" y="628"/>
      <point x="674" y="509" type="curve" smooth="yes"/>
      <point x="674" y="371"/>
      <point x="618" y="305"/>
      <point x="503" y="305" type="curve" smooth="yes"/>
      <point x="374" y="305"/>
      <point x="313" y="385"/>
      <point x="313" y="548" type="curve" smooth="yes"/>
      <point x="313" y="731" type="line" smooth="yes"/>
      <point x="313" y="924"/>
      <point x="367" y="1057"/>
      <point x="482" y="1192" type="curve"/>
      <point x="268" y="1192" type="line"/>
      <point x="168" y="1084"/>
      <point x="111" y="941"/>
      <point x="111" y="733" type="curve" smooth="yes"/>
      <point x="111" y="553" type="line" smooth="yes"/>
      <point x="111" y="272"/>
      <point x="240" y="137"/>
      <point x="501" y="137" type="curve" smooth="yes"/>
      <point x="746" y="137"/>
      <point x="869" y="258"/>
      <point x="869" y="513" type="curve" smooth="yes"/>
      <point x="869" y="640"/>
      <point x="859" y="744"/>
      <point x="859" y="852" type="curve" smooth="yes"/>
      <point x="859" y="984"/>
      <point x="914" y="1052"/>
      <point x="1026" y="1052" type="curve" smooth="yes"/>
      <point x="1136" y="1052"/>
      <point x="1192" y="984"/>
      <point x="1192" y="844" type="curve" smooth="yes"/>
    </contour>
  </outline>
</glyph>
<glyph name="Va.gj" format="2">
  <advance width="1181"/>
  <unicode hex="0AB5"/>
  <anchor x="908" y="-75" name="Bottom"/>
  <anchor x="890" y="1266" name="Top"/>
  <anchor x="930" y="1266" name="Top2"/>
  <outline>
    <contour>
      <point x="514" y="197" type="curve" smooth="yes"/>
      <point x="691" y="197"/>
      <point x="786" y="272"/>
      <point x="823" y="371" type="curve"/>
      <point x="842" y="371" type="line"/>
      <point x="836" y="549" type="line"/>
      <point x="809" y="436"/>
      <point x="713" y="366"/>
      <point x="564" y="366" type="curve" smooth="yes"/>
      <point x="392" y="366"/>
      <point x="309" y="457"/>
      <point x="309" y="633" type="curve" smooth="yes"/>
      <point x="309" y="755" type="line" smooth="yes"/>
      <point x="309" y="935"/>
      <point x="386" y="1027"/>
      <point x="550" y="1027" type="curve" smooth="yes"/>
      <point x="615" y="1027"/>
      <point x="662" y="1018"/>
      <point x="697" y="1007" type="curve"/>
      <point x="681" y="1167" type="line"/>
      <point x="643" y="1180"/>
      <point x="585" y="1192"/>
      <point x="509" y="1192" type="curve" smooth="yes"/>
      <point x="245" y="1192"/>
      <point x="108" y="1047"/>
      <point x="108" y="757" type="curve" smooth="yes"/>
      <point x="108" y="631" type="line" smooth="yes"/>
      <point x="108" y="352"/>
      <point x="242" y="197"/>
    </contour>
    <contour>
      <point x="833" y="495" type="line"/>
      <point x="1028" y="495" type="line"/>
      <point x="1028" y="1192" type="line"/>
      <point x="833" y="1192" type="line"/>
    </contour>
    <contour>
      <point x="833" y="0" type="line"/>
      <point x="1028" y="0" type="line"/>
      <point x="1028" y="628" type="line"/>
      <point x="833" y="628" type="line"/>
    </contour>
  </outline>
</glyph>
<glyph name="Ssa.gj" format="2">
  <advance width="1200"/>
  <unicode hex="0AB7"/>
  <anchor x="927" y="-74" name="Bottom"/>
  <anchor x="909" y="1267" name="Top"/>
  <anchor x="949" y="1267" name="Top2"/>
  <outline>
    <contour>
      <point x="834" y="454" type="line"/>
      <point x="912" y="561" type="line"/>
      <point x="309" y="1148" type="line"/>
      <point x="257" y="1054" type="line"/>
      <point x="308" y="973"/>
      <point x="384" y="887"/>
      <point x="453" y="820" type="curve" smooth="yes"/>
    </contour>
    <contour>
      <point x="541" y="210" type="curve" smooth="yes"/>
      <point x="714" y="210"/>
      <point x="811" y="287"/>
      <point x="842" y="378" type="curve"/>
      <point x="866" y="378" type="line"/>
      <point x="857" y="551" type="line"/>
      <point x="830" y="445"/>
      <point x="742" y="379"/>
      <point x="598" y="379" type="curve" smooth="yes"/>
      <point x="444" y="379"/>
      <point x="363" y="453"/>
      <point x="363" y="623" type="curve" smooth="yes"/>
      <point x="363" y="778" type="line"/>
      <point x="168" y="778" type="line"/>
      <point x="168" y="603" type="line" smooth="yes"/>
      <point x="168" y="340"/>
      <point x="289" y="210"/>
    </contour>
    <contour>
      <point x="168" y="761" type="line"/>
      <point x="363" y="761" type="line"/>
      <point x="363" y="973" type="line" smooth="yes"/>
      <point x="363" y="1129"/>
      <point x="294" y="1202"/>
      <point x="157" y="1202" type="curve" smooth="yes"/>
      <point x="110" y="1202"/>
      <point x="69" y="1194"/>
      <point x="35" y="1182" type="curve"/>
      <point x="23" y="1036" type="line"/>
      <point x="43" y="1042"/>
      <point x="65" y="1047"/>
      <point x="87" y="1047" type="curve" smooth="yes"/>
      <point x="145" y="1047"/>
      <point x="168" y="1015"/>
      <point x="168" y="947" type="curve" smooth="yes"/>
    </contour>
    <contour>
      <point x="852" y="496" type="line"/>
      <point x="1047" y="496" type="line"/>
      <point x="1047" y="1193" type="line"/>
      <point x="852" y="1193" type="line"/>
    </contour>
    <contour>
      <point x="852" y="1" type="line"/>
      <point x="1047" y="1" type="line"/>
      <point x="1047" y="629" type="line"/>
      <point x="852" y="629" type="line"/>
    </contour>
  </outline>
</glyph>
<glyph name="Sa.gj" format="2">
  <advance width="1360"/>
  <unicode hex="0AB8"/>
  <anchor x="1087" y="-75" name="Bottom"/>
  <anchor x="1069" y="1266" name="Top"/>
  <anchor x="1109" y="1266" name="Top2"/>
  <outline>
    <contour>
      <point x="1012" y="495" type="line"/>
      <point x="1207" y="495" type="line"/>
      <point x="1207" y="1192" type="line"/>
      <point x="1012" y="1192" type="line"/>
    </contour>
    <contour>
      <point x="1012" y="0" type="line"/>
      <point x="1207" y="0" type="line"/>
      <point x="1207" y="628" type="line"/>
      <point x="1012" y="628" type="line"/>
    </contour>
    <contour>
      <point x="279" y="435" type="line"/>
      <point x="282" y="467" type="line"/>
      <point x="367" y="467" type="line" smooth="yes"/>
      <point x="596" y="467"/>
      <point x="717" y="593"/>
      <point x="717" y="823" type="curve" smooth="yes"/>
      <point x="717" y="869" type="line" smooth="yes"/>
      <point x="717" y="1103"/>
      <point x="590" y="1218"/>
      <point x="367" y="1218" type="curve" smooth="yes"/>
      <point x="251" y="1218"/>
      <point x="167" y="1190"/>
      <point x="110" y="1161" type="curve"/>
      <point x="94" y="997" type="line"/>
      <point x="158" y="1027"/>
      <point x="238" y="1054"/>
      <point x="334" y="1054" type="curve" smooth="yes"/>
      <point x="453" y="1054"/>
      <point x="520" y="991"/>
      <point x="520" y="860" type="curve" smooth="yes"/>
      <point x="520" y="832" type="line" smooth="yes"/>
      <point x="520" y="687"/>
      <point x="444" y="621"/>
      <point x="291" y="620" type="curve" smooth="yes"/>
      <point x="60" y="619" type="line"/>
      <point x="60" y="473" type="line"/>
    </contour>
    <contour>
      <point x="642" y="-22" type="curve" smooth="yes"/>
      <point x="697" y="-22"/>
      <point x="737" y="-13"/>
      <point x="769" y="-2" type="curve"/>
      <point x="785" y="162" type="line"/>
      <point x="758" y="152"/>
      <point x="720" y="143"/>
      <point x="669" y="143" type="curve" smooth="yes"/>
      <point x="530" y="143"/>
      <point x="433" y="220"/>
      <point x="396" y="395" type="curve" smooth="yes"/>
      <point x="365" y="542" type="line"/>
      <point x="181" y="525" type="line"/>
      <point x="213" y="364" type="line" smooth="yes"/>
      <point x="266" y="98"/>
      <point x="417" y="-22"/>
    </contour>
    <contour>
      <point x="809" y="538" type="curve" smooth="yes"/>
      <point x="1152" y="538" type="line"/>
      <point x="1137" y="700" type="line"/>
      <point x="1083" y="700"/>
      <point x="1009" y="700"/>
      <point x="956" y="700" type="curve"/>
      <point x="601" y="700" type="line"/>
      <point x="585" y="560" type="line"/>
      <point x="653" y="545"/>
      <point x="731" y="538"/>
    </contour>
  </outline>
</glyph>
<glyph name="Ha.gj" format="2">
  <advance width="1107"/>
  <unicode hex="0AB9"/>
  <anchor x="638" y="-112" name="Bottom"/>
  <anchor x="696" y="1266" name="Top"/>
  <anchor x="575" y="1266" name="Top2"/>
  <outline>
    <contour>
      <point x="624" y="-57" type="curve" smooth="yes"/>
      <point x="763" y="-57"/>
      <point x="886" y="-33"/>
      <point x="978" y="4" type="curve"/>
      <point x="995" y="180" type="line"/>
      <point x="898" y="138"/>
      <point x="780" y="111"/>
      <point x="647" y="111" type="curve" smooth="yes"/>
      <point x="425" y="111"/>
      <point x="308" y="200"/>
      <point x="308" y="383" type="curve" smooth="yes"/>
      <point x="308" y="434"/>
      <point x="310" y="481"/>
      <point x="318" y="534" type="curve"/>
      <point x="126" y="534" type="line"/>
      <point x="113" y="471"/>
      <point x="106" y="413"/>
      <point x="106" y="350" type="curve" smooth="yes"/>
      <point x="106" y="80"/>
      <point x="282" y="-57"/>
    </contour>
    <contour>
      <point x="783" y="310" type="curve"/>
      <point x="968" y="310" type="line"/>
      <point x="993" y="365"/>
      <point x="1007" y="427"/>
      <point x="1007" y="484" type="curve" smooth="yes"/>
      <point x="1007" y="660"/>
      <point x="899" y="740"/>
      <point x="710" y="757" type="curve" smooth="yes"/>
      <point x="521" y="774" type="line" smooth="yes"/>
      <point x="399" y="785"/>
      <point x="349" y="828"/>
      <point x="349" y="902" type="curve" smooth="yes"/>
      <point x="349" y="906" type="line" smooth="yes"/>
      <point x="349" y="1004"/>
      <point x="426" y="1054"/>
      <point x="591" y="1054" type="curve" smooth="yes"/>
      <point x="723" y="1054"/>
      <point x="836" y="1021"/>
      <point x="923" y="978" type="curve"/>
      <point x="904" y="1150" type="line"/>
      <point x="830" y="1185"/>
      <point x="713" y="1218"/>
      <point x="566" y="1218" type="curve" smooth="yes"/>
      <point x="288" y="1218"/>
      <point x="147" y="1115"/>
      <point x="147" y="909" type="curve" smooth="yes"/>
      <point x="147" y="899" type="line" smooth="yes"/>
      <point x="147" y="724"/>
      <point x="254" y="630"/>
      <point x="459" y="615" type="curve" smooth="yes"/>
      <point x="627" y="603" type="line" smooth="yes"/>
      <point x="760" y="593"/>
      <point x="809" y="549"/>
      <point x="809" y="440" type="curve" smooth="yes"/>
      <point x="809" y="398"/>
      <point x="801" y="357"/>
    </contour>
  </outline>
</glyph>
<glyph name="Nukta.gj" format="2">
  <unicode hex="0ABC"/>
  <anchor x="202" y="-75" name="_Bottom"/>
  <outline>
    <contour>
      <point x="223" y="-333" type="curve" smooth="yes"/>
      <point x="310" y="-333"/>
      <point x="347" y="-286"/>
      <point x="347" y="-210" type="curve" smooth="yes"/>
      <point x="347" y="-198" type="line" smooth="yes"/>
      <point x="347" y="-122"/>
      <point x="308" y="-75"/>
      <point x="223" y="-75" type="curve" smooth="yes"/>
      <point x="139" y="-75"/>
      <point x="99" y="-123"/>
      <point x="99" y="-198" type="curve" smooth="yes"/>
      <point x="99" y="-210" type="line" smooth="yes"/>
      <point x="99" y="-286"/>
      <point x="138" y="-333"/>
    </contour>
  </outline>
</glyph>
<glyph name="Avagraha.gj" format="2">
  <advance width="1030"/>
  <unicode hex="0ABD"/>
  <outline>
    <contour>
      <point x="502" y="-22" type="curve" smooth="yes"/>
      <point x="782" y="-22"/>
      <point x="936" y="87"/>
      <point x="936" y="322" type="curve" smooth="yes"/>
      <point x="936" y="344" type="line" smooth="yes"/>
      <point x="936" y="543"/>
      <point x="847" y="622"/>
      <point x="588" y="690" type="curve" smooth="yes"/>
      <point x="516" y="709" type="line" smooth="yes"/>
      <point x="360" y="750"/>
      <point x="307" y="788"/>
      <point x="307" y="879" type="curve" smooth="yes"/>
      <point x="307" y="887" type="line" smooth="yes"/>
      <point x="307" y="985"/>
      <point x="373" y="1034"/>
      <point x="520" y="1034" type="curve" smooth="yes"/>
      <point x="869" y="1034" type="line"/>
      <point x="850" y="1192" type="line"/>
      <point x="489" y="1192" type="line" smooth="yes"/>
      <point x="234" y="1192"/>
      <point x="105" y="1090"/>
      <point x="105" y="892" type="curve" smooth="yes"/>
      <point x="105" y="878" type="line" smooth="yes"/>
      <point x="105" y="707"/>
      <point x="200" y="617"/>
      <point x="442" y="559" type="curve" smooth="yes"/>
      <point x="509" y="543" type="line" smooth="yes"/>
      <point x="687" y="500"/>
      <point x="734" y="456"/>
      <point x="734" y="347" type="curve" smooth="yes"/>
      <point x="734" y="332" type="line" smooth="yes"/>
      <point x="734" y="206"/>
      <point x="651" y="146"/>
      <point x="477" y="146" type="curve" smooth="yes"/>
      <point x="324" y="146"/>
      <point x="197" y="191"/>
      <point x="93" y="249" type="curve"/>
      <point x="112" y="68" type="line"/>
      <point x="201" y="22"/>
      <point x="332" y="-22"/>
    </contour>
  </outline>
</glyph>
<glyph name="MatraI.gj" format="2">
  <advance width="500"/>
  <unicode hex="0ABF"/>
  <anchor x="229" y="-75" name="Bottom"/>
  <anchor x="210" y="1266" name="Top"/>
  <anchor x="250" y="1266" name="Top2"/>
  <outline>
    <contour>
      <point x="153" y="1162" type="curve"/>
      <point x="348" y="1162" type="line"/>
      <point x="348" y="1223"/>
      <point x="348" y="1250"/>
      <point x="348" y="1296" type="curve" smooth="yes"/>
      <point x="348" y="1525"/>
      <point x="465" y="1632"/>
      <point x="710" y="1632" type="curve" smooth="yes"/>
      <point x="960" y="1632"/>
      <point x="1196" y="1489"/>
      <point x="1346" y="1266" type="curve"/>
      <point x="1486" y="1366" type="line"/>
      <point x="1321" y="1625"/>
      <point x="1034" y="1792"/>
      <point x="707" y="1792" type="curve" smooth="yes"/>
      <point x="356" y="1792"/>
      <point x="153" y="1631"/>
      <point x="153" y="1296" type="curve" smooth="yes"/>
      <point x="153" y="1241"/>
      <point x="153" y="1218"/>
    </contour>
    <contour>
      <point x="153" y="495" type="line"/>
      <point x="348" y="495" type="line"/>
      <point x="348" y="1192" type="line"/>
      <point x="153" y="1192" type="line"/>
    </contour>
    <contour>
      <point x="153" y="0" type="line"/>
      <point x="348" y="0" type="line"/>
      <point x="348" y="628" type="line"/>
      <point x="153" y="628" type="line"/>
    </contour>
  </outline>
</glyph>
<glyph name="MatraU.gj" format="2">
  <unicode hex="0AC1"/>
  <anchor x="716" y="-75" name="_Bottom"/>
  <outline>
    <contour>
      <point x="658" y="-676" type="curve" smooth="yes"/>
      <point x="908" y="-676"/>
      <point x="1018" y="-562"/>
      <point x="1018" y="-377" type="curve" smooth="yes"/>
      <point x="1018" y="-363" type="line" smooth="yes"/>
      <point x="1018" y="-188"/>
      <point x="918" y="-75"/>
      <point x="704" y="-75" type="curve" smooth="yes"/>
      <point x="624" y="-75"/>
      <point x="561" y="-89"/>
      <point x="499" y="-115" type="curve"/>
      <point x="482" y="-280" type="line"/>
      <point x="546" y="-250"/>
      <point x="613" y="-231"/>
      <point x="681" y="-231" type="curve" smooth="yes"/>
      <point x="788" y="-231"/>
      <point x="832" y="-282"/>
      <point x="832" y="-365" type="curve" smooth="yes"/>
      <point x="832" y="-376" type="line" smooth="yes"/>
      <point x="832" y="-460"/>
      <point x="787" y="-518"/>
      <point x="661" y="-518" type="curve" smooth="yes"/>
      <point x="488" y="-518"/>
      <point x="378" y="-427"/>
      <point x="301" y="-221" type="curve"/>
      <point x="109" y="-221" type="line"/>
      <point x="203" y="-534"/>
      <point x="378" y="-676"/>
    </contour>
  </outline>
</glyph>
<glyph name="MatraUu.gj" format="2">
  <unicode hex="0AC2"/>
  <anchor x="444" y="-75" name="_Bottom"/>
  <outline>
    <contour>
      <point x="799" y="-673" type="curve"/>
      <point x="990" y="-673" type="line"/>
      <point x="887" y="-255"/>
      <point x="745" y="-72"/>
      <point x="436" y="-75" type="curve" smooth="yes"/>
      <point x="208" y="-77"/>
      <point x="95" y="-197"/>
      <point x="95" y="-376" type="curve" smooth="yes"/>
      <point x="95" y="-388" type="line" smooth="yes"/>
      <point x="95" y="-572"/>
      <point x="217" y="-676"/>
      <point x="411" y="-676" type="curve" smooth="yes"/>
      <point x="480" y="-676"/>
      <point x="543" y="-662"/>
      <point x="588" y="-641" type="curve"/>
      <point x="603" y="-478" type="line"/>
      <point x="556" y="-502"/>
      <point x="496" y="-517"/>
      <point x="437" y="-518" type="curve" smooth="yes"/>
      <point x="337" y="-520"/>
      <point x="281" y="-471"/>
      <point x="281" y="-384" type="curve" smooth="yes"/>
      <point x="281" y="-375" type="line" smooth="yes"/>
      <point x="281" y="-289"/>
      <point x="331" y="-233"/>
      <point x="443" y="-232" type="curve" smooth="yes"/>
      <point x="632" y="-230"/>
      <point x="716" y="-361"/>
    </contour>
  </outline>
</glyph>
<glyph name="MatraRu.gj" format="2">
  <unicode hex="0AC3"/>
  <guideline x="493" y="-124" angle="90"/>
  <guideline x="457" y="-124" angle="90"/>
  <guideline x="549" y="-75" angle="180"/>
  <anchor x="493" y="-75" name="_Bottom"/>
  <outline>
    <contour>
      <point x="448" y="-676" type="curve" smooth="yes"/>
      <point x="562" y="-676"/>
      <point x="646" y="-655"/>
      <point x="716" y="-615" type="curve"/>
      <point x="731" y="-449" type="line"/>
      <point x="658" y="-493"/>
      <point x="565" y="-518"/>
      <point x="471" y="-518" type="curve" smooth="yes"/>
      <point x="350" y="-518"/>
      <point x="282" y="-471"/>
      <point x="282" y="-378" type="curve" smooth="yes"/>
      <point x="282" y="-368" type="line" smooth="yes"/>
      <point x="282" y="-274"/>
      <point x="342" y="-228"/>
      <point x="477" y="-228" type="curve" smooth="yes"/>
      <point x="641" y="-228" type="line"/>
      <point x="641" y="-76" type="line"/>
      <point x="457" y="-76" type="line" smooth="yes"/>
      <point x="213" y="-76"/>
      <point x="97" y="-170"/>
      <point x="97" y="-367" type="curve" smooth="yes"/>
      <point x="97" y="-382" type="line" smooth="yes"/>
      <point x="97" y="-572"/>
      <point x="237" y="-676"/>
    </contour>
  </outline>
</glyph>
<glyph name="MatraRuu.gj" format="2">
  <unicode hex="0AC4"/>
  <guideline x="417" y="-53" angle="90"/>
  <guideline x="464" y="-75" angle="0"/>
  <guideline x="450" y="-53" angle="90"/>
  <anchor x="450" y="-73" name="_Bottom"/>
  <outline>
    <contour>
      <point x="424" y="-558" type="curve" smooth="yes"/>
      <point x="527" y="-558"/>
      <point x="599" y="-542"/>
      <point x="660" y="-509" type="curve"/>
      <point x="671" y="-353" type="line"/>
      <point x="605" y="-388"/>
      <point x="523" y="-408"/>
      <point x="435" y="-408" type="curve" smooth="yes"/>
      <point x="329" y="-408"/>
      <point x="276" y="-374"/>
      <point x="276" y="-309" type="curve" smooth="yes"/>
      <point x="276" y="-306" type="line" smooth="yes"/>
      <point x="276" y="-244"/>
      <point x="326" y="-213"/>
      <point x="438" y="-213" type="curve" smooth="yes"/>
      <point x="592" y="-213" type="line"/>
      <point x="592" y="-75" type="line"/>
      <point x="413" y="-75" type="line" smooth="yes"/>
      <point x="201" y="-75"/>
      <point x="96" y="-152"/>
      <point x="96" y="-307" type="curve" smooth="yes"/>
      <point x="96" y="-316" type="line" smooth="yes"/>
      <point x="96" y="-417"/>
      <point x="156" y="-496"/>
      <point x="265" y="-524" type="curve"/>
      <point x="306" y="-546" type="line"/>
      <point x="348" y="-555"/>
      <point x="381" y="-558"/>
    </contour>
    <contour>
      <point x="418" y="-892" type="curve" smooth="yes"/>
      <point x="524" y="-892"/>
      <point x="603" y="-874"/>
      <point x="666" y="-842" type="curve"/>
      <point x="679" y="-686" type="line"/>
      <point x="613" y="-721"/>
      <point x="526" y="-742"/>
      <point x="436" y="-742" type="curve" smooth="yes"/>
      <point x="326" y="-742"/>
      <point x="274" y="-705"/>
      <point x="274" y="-646" type="curve" smooth="yes"/>
      <point x="274" y="-641" type="line" smooth="yes"/>
      <point x="274" y="-591"/>
      <point x="312" y="-556"/>
      <point x="401" y="-552" type="curve"/>
      <point x="243" y="-503" type="line"/>
      <point x="243" y="-524" type="line"/>
      <point x="144" y="-541"/>
      <point x="97" y="-594"/>
      <point x="97" y="-677" type="curve" smooth="yes"/>
      <point x="97" y="-685" type="line" smooth="yes"/>
      <point x="97" y="-817"/>
      <point x="221" y="-892"/>
    </contour>
  </outline>
</glyph>
<glyph name="MatraChandraE.gj" format="2">
  <unicode hex="0AC5"/>
  <guideline x="708" y="1338" angle="90"/>
  <anchor x="708" y="1266" name="_Top"/>
  <outline>
    <contour>
      <point x="776" y="1266" type="curve" smooth="yes"/>
      <point x="840" y="1266"/>
      <point x="891" y="1283"/>
      <point x="921" y="1303" type="curve"/>
      <point x="921" y="1458" type="line"/>
      <point x="898" y="1442"/>
      <point x="854" y="1423"/>
      <point x="796" y="1423" type="curve" smooth="yes"/>
      <point x="715" y="1423"/>
      <point x="650" y="1452"/>
      <point x="538" y="1543" type="curve" smooth="yes"/>
      <point x="214" y="1807" type="line"/>
      <point x="100" y="1656" type="line"/>
      <point x="434" y="1407" type="line" smooth="yes"/>
      <point x="581" y="1297"/>
      <point x="673" y="1266"/>
    </contour>
  </outline>
</glyph>
<glyph name="MatraE.gj" format="2">
  <unicode hex="0AC7"/>
  <anchor x="767" y="1266" name="_Top"/>
  <outline>
    <contour>
      <point x="767" y="1266" type="curve"/>
      <point x="843" y="1383" type="line"/>
      <point x="632" y="1524"/>
      <point x="421" y="1667"/>
      <point x="211" y="1807" type="curve"/>
      <point x="105" y="1640" type="line"/>
      <point x="324" y="1515"/>
      <point x="548" y="1389"/>
    </contour>
  </outline>
</glyph>
<glyph name="MatraAi.gj" format="2">
  <unicode hex="0AC8"/>
  <anchor x="790" y="1266" name="_Top"/>
  <outline>
    <contour>
      <point x="790" y="1266" type="line"/>
      <point x="881" y="1384" type="line"/>
      <point x="472" y="1975" type="line"/>
      <point x="339" y="1862" type="line"/>
      <point x="728" y="1407" type="line"/>
      <point x="724" y="1403" type="line"/>
      <point x="183" y="1671" type="line"/>
      <point x="105" y="1512" type="line"/>
    </contour>
  </outline>
</glyph>
<glyph name="MatraChandraO.gj" format="2">
  <advance width="501"/>
  <unicode hex="0AC9"/>
  <anchor x="229" y="-75" name="Bottom"/>
  <anchor x="210" y="1266" name="Top"/>
  <anchor x="250" y="1266" name="Top2"/>
  <outline>
    <contour>
      <point x="153" y="495" type="line"/>
      <point x="348" y="495" type="line"/>
      <point x="348" y="1192" type="line"/>
      <point x="153" y="1192" type="line"/>
    </contour>
    <contour>
      <point x="153" y="0" type="line"/>
      <point x="348" y="0" type="line"/>
      <point x="348" y="628" type="line"/>
      <point x="153" y="628" type="line"/>
    </contour>
    <contour>
      <point x="278" y="1266" type="curve" smooth="yes"/>
      <point x="342" y="1266"/>
      <point x="393" y="1283"/>
      <point x="423" y="1303" type="curve"/>
      <point x="423" y="1458" type="line"/>
      <point x="400" y="1442"/>
      <point x="356" y="1423"/>
      <point x="298" y="1423" type="curve" smooth="yes"/>
      <point x="217" y="1423"/>
      <point x="152" y="1452"/>
      <point x="40" y="1543" type="curve" smooth="yes"/>
      <point x="-284" y="1807" type="line"/>
      <point x="-398" y="1656" type="line"/>
      <point x="-64" y="1407" type="line" smooth="yes"/>
      <point x="83" y="1297"/>
      <point x="175" y="1266"/>
    </contour>
  </outline>
</glyph>
<glyph name="MatraO.gj" format="2">
  <advance width="501"/>
  <unicode hex="0ACB"/>
  <anchor x="229" y="-75" name="Bottom"/>
  <anchor x="210" y="1266" name="Top"/>
  <anchor x="250" y="1266" name="Top2"/>
  <outline>
    <contour>
      <point x="153" y="495" type="line"/>
      <point x="348" y="495" type="line"/>
      <point x="348" y="1192" type="line"/>
      <point x="153" y="1192" type="line"/>
    </contour>
    <contour>
      <point x="153" y="0" type="line"/>
      <point x="348" y="0" type="line"/>
      <point x="348" y="628" type="line"/>
      <point x="153" y="628" type="line"/>
    </contour>
    <contour>
      <point x="210" y="1266" type="curve"/>
      <point x="286" y="1383" type="line"/>
      <point x="75" y="1524"/>
      <point x="-136" y="1667"/>
      <point x="-346" y="1807" type="curve"/>
      <point x="-452" y="1640" type="line"/>
      <point x="-233" y="1515"/>
      <point x="-9" y="1389"/>
    </contour>
  </outline>
</glyph>
<glyph name="MatraAu.gj" format="2">
  <advance width="501"/>
  <unicode hex="0ACC"/>
  <anchor x="229" y="-75" name="Bottom"/>
  <anchor x="210" y="1266" name="Top"/>
  <anchor x="250" y="1266" name="Top2"/>
  <outline>
    <contour>
      <point x="153" y="495" type="line"/>
      <point x="348" y="495" type="line"/>
      <point x="348" y="1192" type="line"/>
      <point x="153" y="1192" type="line"/>
    </contour>
    <contour>
      <point x="153" y="0" type="line"/>
      <point x="348" y="0" type="line"/>
      <point x="348" y="628" type="line"/>
      <point x="153" y="628" type="line"/>
    </contour>
    <contour>
      <point x="210" y="1266" type="line"/>
      <point x="301" y="1384" type="line"/>
      <point x="-108" y="1975" type="line"/>
      <point x="-241" y="1862" type="line"/>
      <point x="148" y="1407" type="line"/>
      <point x="144" y="1403" type="line"/>
      <point x="-397" y="1671" type="line"/>
      <point x="-475" y="1512" type="line"/>
    </contour>
  </outline>
</glyph>
<glyph name="Halant.gj" format="2">
  <unicode hex="0ACD"/>
  <guideline x="239" y="-75" angle="0"/>
  <guideline x="177" y="-194" angle="90"/>
  <anchor x="177" y="-75" name="_Bottom"/>
  <outline>
    <contour>
      <point x="512" y="-648" type="line"/>
      <point x="615" y="-556" type="line"/>
      <point x="223" y="-101" type="line"/>
      <point x="75" y="-240" type="line"/>
    </contour>
  </outline>
</glyph>
<glyph name="Om.gj" format="2">
  <advance width="1826"/>
  <unicode hex="0AD0"/>
  <guideline x="1148" y="191" angle="275.819"/>
  <anchor x="1205" y="1095" name="_Top2"/>
  <outline>
    <contour>
      <point x="1370" y="62" type="curve" smooth="yes"/>
      <point x="1624" y="62"/>
      <point x="1745" y="191"/>
      <point x="1745" y="465" type="curve" smooth="yes"/>
      <point x="1745" y="606" type="line" smooth="yes"/>
      <point x="1745" y="882"/>
      <point x="1625" y="1026"/>
      <point x="1379" y="1026" type="curve" smooth="yes"/>
      <point x="1185" y="1026"/>
      <point x="1086" y="935"/>
      <point x="1030" y="749" type="curve" smooth="yes"/>
      <point x="1011" y="686" type="line" smooth="yes"/>
      <point x="980" y="585"/>
      <point x="948" y="539"/>
      <point x="869" y="537" type="curve" smooth="yes"/>
      <point x="825" y="536"/>
      <point x="780" y="550"/>
      <point x="742" y="568" type="curve"/>
      <point x="766" y="445" type="line"/>
      <point x="824" y="405"/>
      <point x="879" y="380"/>
      <point x="951" y="380" type="curve" smooth="yes"/>
      <point x="1073" y="380"/>
      <point x="1130" y="461"/>
      <point x="1173" y="607" type="curve" smooth="yes"/>
      <point x="1194" y="679" type="line" smooth="yes"/>
      <point x="1233" y="812"/>
      <point x="1280" y="863"/>
      <point x="1374" y="863" type="curve" smooth="yes"/>
      <point x="1491" y="863"/>
      <point x="1544" y="784"/>
      <point x="1544" y="609" type="curve" smooth="yes"/>
      <point x="1544" y="469" type="line" smooth="yes"/>
      <point x="1544" y="300"/>
      <point x="1475" y="221"/>
      <point x="1337" y="221" type="curve" smooth="yes"/>
      <point x="1258" y="221"/>
      <point x="1193" y="244"/>
      <point x="1140" y="269" type="curve"/>
      <point x="1156" y="109" type="line"/>
      <point x="1206" y="86"/>
      <point x="1276" y="62"/>
    </contour>
    <contour>
      <point x="1205" y="1144" type="curve" smooth="yes"/>
      <point x="1439" y="1144"/>
      <point x="1563" y="1245"/>
      <point x="1563" y="1443" type="curve" smooth="yes"/>
      <point x="1563" y="1454"/>
      <point x="1563" y="1465"/>
      <point x="1561" y="1491" type="curve"/>
      <point x="1407" y="1491" type="line"/>
      <point x="1407" y="1462" type="line" smooth="yes"/>
      <point x="1407" y="1337"/>
      <point x="1338" y="1277"/>
      <point x="1206" y="1277" type="curve" smooth="yes"/>
      <point x="1070" y="1277"/>
      <point x="1005" y="1338"/>
      <point x="1005" y="1462" type="curve" smooth="yes"/>
      <point x="1005" y="1491" type="line"/>
      <point x="851" y="1491" type="line"/>
      <point x="849" y="1465"/>
      <point x="849" y="1454"/>
      <point x="849" y="1443" type="curve" smooth="yes"/>
      <point x="849" y="1245"/>
      <point x="970" y="1144"/>
    </contour>
    <contour>
      <point x="1206" y="1387" type="curve" smooth="yes"/>
      <point x="1272" y="1387"/>
      <point x="1302" y="1430"/>
      <point x="1302" y="1498" type="curve" smooth="yes"/>
      <point x="1302" y="1508" type="line" smooth="yes"/>
      <point x="1302" y="1575"/>
      <point x="1272" y="1619"/>
      <point x="1206" y="1619" type="curve" smooth="yes"/>
      <point x="1138" y="1619"/>
      <point x="1109" y="1575"/>
      <point x="1109" y="1508" type="curve" smooth="yes"/>
      <point x="1109" y="1498" type="line" smooth="yes"/>
      <point x="1109" y="1430"/>
      <point x="1138" y="1387"/>
    </contour>
    <contour>
      <point x="433" y="-23" type="curve" smooth="yes"/>
      <point x="717" y="-23"/>
      <point x="868" y="93"/>
      <point x="868" y="309" type="curve" smooth="yes"/>
      <point x="868" y="328" type="line" smooth="yes"/>
      <point x="868" y="499"/>
      <point x="778" y="590"/>
      <point x="606" y="613" type="curve"/>
      <point x="606" y="617" type="line"/>
      <point x="768" y="635"/>
      <point x="853" y="718"/>
      <point x="853" y="889" type="curve" smooth="yes"/>
      <point x="853" y="904" type="line" smooth="yes"/>
      <point x="853" y="1114"/>
      <point x="705" y="1218"/>
      <point x="438" y="1218" type="curve" smooth="yes"/>
      <point x="296" y="1218"/>
      <point x="186" y="1184"/>
      <point x="116" y="1149" type="curve"/>
      <point x="96" y="981" type="line"/>
      <point x="177" y="1023"/>
      <point x="283" y="1056"/>
      <point x="405" y="1056" type="curve" smooth="yes"/>
      <point x="567" y="1056"/>
      <point x="651" y="997"/>
      <point x="651" y="877" type="curve" smooth="yes"/>
      <point x="651" y="868" type="line" smooth="yes"/>
      <point x="651" y="749"/>
      <point x="576" y="701"/>
      <point x="430" y="698" type="curve" smooth="yes"/>
      <point x="202" y="694" type="line"/>
      <point x="202" y="538" type="line"/>
      <point x="429" y="533" type="line" smooth="yes"/>
      <point x="586" y="530"/>
      <point x="666" y="476"/>
      <point x="666" y="348" type="curve" smooth="yes"/>
      <point x="666" y="336" type="line" smooth="yes"/>
      <point x="666" y="205"/>
      <point x="577" y="144"/>
      <point x="404" y="144" type="curve" smooth="yes"/>
      <point x="258" y="144"/>
      <point x="156" y="186"/>
      <point x="72" y="237" type="curve"/>
      <point x="91" y="55" type="line"/>
      <point x="161" y="13"/>
      <point x="276" y="-23"/>
    </contour>
  </outline>
</glyph>
<glyph name="VowelRuu.gj" format="2">
  <advance width="1792"/>
  <unicode hex="0AE0"/>
  <anchor x="880" y="-75" name="Bottom"/>
  <anchor x="862" y="1266" name="Top"/>
  <anchor x="902" y="1266" name="Top2"/>
  <outline>
    <contour>
      <point x="1535" y="23" type="curve" smooth="yes"/>
      <point x="1608" y="23"/>
      <point x="1669" y="37"/>
      <point x="1710" y="58" type="curve"/>
      <point x="1722" y="213" type="line"/>
      <point x="1677" y="192"/>
      <point x="1630" y="180"/>
      <point x="1570" y="180" type="curve" smooth="yes"/>
      <point x="1472" y="180"/>
      <point x="1422" y="212"/>
      <point x="1422" y="289" type="curve" smooth="yes"/>
      <point x="1422" y="294" type="line" smooth="yes"/>
      <point x="1422" y="384"/>
      <point x="1482" y="419"/>
      <point x="1669" y="420" type="curve"/>
      <point x="1669" y="549" type="line"/>
      <point x="1578" y="597"/>
      <point x="1504" y="674"/>
      <point x="1471" y="759" type="curve"/>
      <point x="1318" y="704" type="line"/>
      <point x="1349" y="634"/>
      <point x="1416" y="565"/>
      <point x="1489" y="527" type="curve"/>
      <point x="1489" y="522" type="line"/>
      <point x="1313" y="505"/>
      <point x="1238" y="426"/>
      <point x="1238" y="275" type="curve" smooth="yes"/>
      <point x="1238" y="266" type="line" smooth="yes"/>
      <point x="1238" y="103"/>
      <point x="1350" y="23"/>
    </contour>
    <contour>
      <point x="257" y="352" type="curve"/>
      <point x="492" y="405" type="line"/>
      <point x="474" y="445" type="line"/>
      <point x="558" y="500"/>
      <point x="597" y="586"/>
      <point x="597" y="723" type="curve" smooth="yes"/>
      <point x="597" y="739" type="line" smooth="yes"/>
      <point x="597" y="943"/>
      <point x="499" y="1053"/>
      <point x="304" y="1053" type="curve" smooth="yes"/>
      <point x="216" y="1053"/>
      <point x="144" y="1027"/>
      <point x="99" y="1001" type="curve"/>
      <point x="84" y="837" type="line"/>
      <point x="129" y="865"/>
      <point x="187" y="888"/>
      <point x="253" y="888" type="curve" smooth="yes"/>
      <point x="352" y="888"/>
      <point x="400" y="817"/>
      <point x="400" y="677" type="curve" smooth="yes"/>
      <point x="400" y="662" type="line" smooth="yes"/>
      <point x="400" y="514"/>
      <point x="356" y="426"/>
    </contour>
    <contour>
      <point x="86" y="109" type="line"/>
      <point x="843" y="422" type="line"/>
      <point x="841" y="597" type="line"/>
      <point x="644" y="514" type="line" smooth="yes"/>
      <point x="571" y="483"/>
      <point x="505" y="451"/>
      <point x="437" y="417" type="curve"/>
      <point x="415" y="419" type="line"/>
      <point x="86" y="292" type="line"/>
    </contour>
    <contour>
      <point x="955" y="455" type="line"/>
      <point x="1448" y="664" type="line"/>
      <point x="1395" y="813" type="line"/>
      <point x="953" y="631" type="line"/>
    </contour>
    <contour>
      <point x="1309" y="677" type="line"/>
      <point x="1488" y="703" type="line"/>
      <point x="1549" y="785" type="line"/>
      <point x="1535" y="883"/>
      <point x="1512" y="973"/>
      <point x="1480" y="1058" type="curve"/>
      <point x="1309" y="1058" type="line"/>
    </contour>
    <contour>
      <point x="805" y="495" type="line"/>
      <point x="1000" y="495" type="line"/>
      <point x="1000" y="1192" type="line"/>
      <point x="805" y="1192" type="line"/>
    </contour>
    <contour>
      <point x="805" y="0" type="line"/>
      <point x="1000" y="0" type="line"/>
      <point x="1000" y="628" type="line"/>
      <point x="805" y="628" type="line"/>
    </contour>
  </outline>
</glyph>
<glyph name="VowelLruu.gj" format="2">
  <advance width="1527"/>
  <unicode hex="0AE1"/>
  <anchor x="1092" y="1271" name="Top2"/>
  <outline>
    <contour>
      <point x="1183" y="-780" type="curve" smooth="yes"/>
      <point x="1276" y="-780"/>
      <point x="1344" y="-763"/>
      <point x="1402" y="-732" type="curve"/>
      <point x="1421" y="-560" type="line"/>
      <point x="1363" y="-594"/>
      <point x="1297" y="-619"/>
      <point x="1214" y="-619" type="curve" smooth="yes"/>
      <point x="1123" y="-619"/>
      <point x="1062" y="-585"/>
      <point x="1062" y="-504" type="curve" smooth="yes"/>
      <point x="1062" y="-501" type="line" smooth="yes"/>
      <point x="1062" y="-442"/>
      <point x="1095" y="-395"/>
      <point x="1159" y="-375" type="curve"/>
      <point x="1006" y="-330" type="line"/>
      <point x="1006" y="-348" type="line"/>
      <point x="913" y="-380"/>
      <point x="869" y="-443"/>
      <point x="869" y="-530" type="curve" smooth="yes"/>
      <point x="869" y="-534" type="line" smooth="yes"/>
      <point x="869" y="-694"/>
      <point x="998" y="-780"/>
    </contour>
    <contour>
      <point x="1207" y="-387" type="curve" smooth="yes"/>
      <point x="1295" y="-387"/>
      <point x="1363" y="-370"/>
      <point x="1419" y="-341" type="curve"/>
      <point x="1436" y="-158" type="line"/>
      <point x="1378" y="-192"/>
      <point x="1310" y="-219"/>
      <point x="1228" y="-219" type="curve" smooth="yes"/>
      <point x="1136" y="-219"/>
      <point x="1086" y="-178"/>
      <point x="1086" y="-108" type="curve" smooth="yes"/>
      <point x="1086" y="-103" type="line" smooth="yes"/>
      <point x="1086" y="85"/>
      <point x="1432" y="206"/>
      <point x="1432" y="563" type="curve" smooth="yes"/>
      <point x="1432" y="592" type="line" smooth="yes"/>
      <point x="1432" y="832"/>
      <point x="1316" y="964"/>
      <point x="1072" y="964" type="curve" smooth="yes"/>
      <point x="890" y="964"/>
      <point x="794" y="877"/>
      <point x="774" y="747" type="curve"/>
      <point x="744" y="747" type="line"/>
      <point x="743" y="319" type="line"/>
      <point x="861" y="319" type="line"/>
      <point x="868" y="570" type="line" smooth="yes"/>
      <point x="872" y="728"/>
      <point x="932" y="795"/>
      <point x="1053" y="796" type="curve" smooth="yes"/>
      <point x="1174" y="797"/>
      <point x="1230" y="723"/>
      <point x="1230" y="588" type="curve" smooth="yes"/>
      <point x="1230" y="561" type="line" smooth="yes"/>
      <point x="1230" y="281"/>
      <point x="886" y="179"/>
      <point x="886" y="-103" type="curve" smooth="yes"/>
      <point x="886" y="-109" type="line" smooth="yes"/>
      <point x="886" y="-294"/>
      <point x="1011" y="-387"/>
    </contour>
    <contour>
      <point x="300" y="0" type="curve"/>
      <point x="544" y="0" type="line"/>
      <point x="544" y="5" type="line"/>
      <point x="392" y="146"/>
      <point x="316" y="275"/>
      <point x="316" y="502" type="curve" smooth="yes"/>
      <point x="316" y="541" type="line" smooth="yes"/>
      <point x="316" y="710"/>
      <point x="373" y="796"/>
      <point x="505" y="796" type="curve" smooth="yes"/>
      <point x="612" y="796"/>
      <point x="669" y="729"/>
      <point x="673" y="570" type="curve" smooth="yes"/>
      <point x="680" y="319" type="line"/>
      <point x="768" y="319" type="line"/>
      <point x="768" y="747" type="line"/>
      <point x="747" y="876"/>
      <point x="661" y="964"/>
      <point x="486" y="964" type="curve" smooth="yes"/>
      <point x="233" y="964"/>
      <point x="114" y="814"/>
      <point x="114" y="549" type="curve" smooth="yes"/>
      <point x="114" y="503" type="line" smooth="yes"/>
      <point x="114" y="270"/>
      <point x="167" y="125"/>
    </contour>
    <contour>
      <point x="995" y="860" type="line"/>
      <point x="1190" y="860" type="line"/>
      <point x="1190" y="1192" type="line"/>
      <point x="995" y="1192" type="line"/>
    </contour>
  </outline>
</glyph>
<glyph name="MatraLru.gj" format="2">
  <unicode hex="0AE2"/>
  <guideline x="764" y="25" angle="90"/>
  <anchor x="764" y="-75" name="_Bottom"/>
  <outline>
    <contour>
      <point x="221" y="-630" type="curve"/>
      <point x="413" y="-630" type="line"/>
      <point x="309" y="-535"/>
      <point x="266" y="-452"/>
      <point x="266" y="-348" type="curve" smooth="yes"/>
      <point x="266" y="-334" type="line" smooth="yes"/>
      <point x="266" y="-249"/>
      <point x="307" y="-206"/>
      <point x="372" y="-206" type="curve" smooth="yes"/>
      <point x="433" y="-206"/>
      <point x="466" y="-240"/>
      <point x="468" y="-320" type="curve" smooth="yes"/>
      <point x="472" y="-460" type="line"/>
      <point x="614" y="-460" type="line"/>
      <point x="618" y="-320" type="line" smooth="yes"/>
      <point x="620" y="-240"/>
      <point x="658" y="-207"/>
      <point x="721" y="-207" type="curve" smooth="yes"/>
      <point x="786" y="-207"/>
      <point x="818" y="-247"/>
      <point x="818" y="-310" type="curve" smooth="yes"/>
      <point x="818" y="-316" type="line"/>
      <point x="985" y="-306" type="line"/>
      <point x="985" y="-300" type="line" smooth="yes"/>
      <point x="985" y="-168"/>
      <point x="906" y="-75"/>
      <point x="747" y="-75" type="curve" smooth="yes"/>
      <point x="633" y="-75"/>
      <point x="567" y="-121"/>
      <point x="547" y="-199" type="curve"/>
      <point x="541" y="-199" type="line"/>
      <point x="522" y="-121"/>
      <point x="464" y="-75"/>
      <point x="351" y="-75" type="curve" smooth="yes"/>
      <point x="192" y="-75"/>
      <point x="98" y="-168"/>
      <point x="98" y="-327" type="curve" smooth="yes"/>
      <point x="98" y="-338" type="line" smooth="yes"/>
      <point x="98" y="-461"/>
      <point x="138" y="-548"/>
    </contour>
    <contour>
      <point x="847" y="-816" type="curve" smooth="yes"/>
      <point x="906" y="-816"/>
      <point x="949" y="-805"/>
      <point x="981" y="-786" type="curve"/>
      <point x="987" y="-662" type="line"/>
      <point x="958" y="-683"/>
      <point x="920" y="-695"/>
      <point x="877" y="-695" type="curve" smooth="yes"/>
      <point x="827" y="-695"/>
      <point x="797" y="-677"/>
      <point x="797" y="-637" type="curve" smooth="yes"/>
      <point x="797" y="-595"/>
      <point x="827" y="-569"/>
      <point x="883" y="-514" type="curve" smooth="yes"/>
      <point x="956" y="-448"/>
      <point x="985" y="-393"/>
      <point x="985" y="-309" type="curve" smooth="yes"/>
      <point x="985" y="-303" type="line"/>
      <point x="818" y="-314" type="line"/>
      <point x="818" y="-318" type="line" smooth="yes"/>
      <point x="818" y="-374"/>
      <point x="799" y="-409"/>
      <point x="742" y="-466" type="curve" smooth="yes"/>
      <point x="673" y="-533"/>
      <point x="644" y="-580"/>
      <point x="644" y="-652" type="curve" smooth="yes"/>
      <point x="644" y="-756"/>
      <point x="726" y="-816"/>
    </contour>
  </outline>
</glyph>
<glyph name="MatraLruu.gj" format="2">
  <unicode hex="0AE3"/>
  <guideline x="764" y="-48" angle="90"/>
  <anchor x="764" y="-75" name="_Bottom"/>
  <outline>
    <contour>
      <point x="221" y="-630" type="curve"/>
      <point x="413" y="-630" type="line"/>
      <point x="309" y="-535"/>
      <point x="266" y="-452"/>
      <point x="266" y="-348" type="curve" smooth="yes"/>
      <point x="266" y="-334" type="line" smooth="yes"/>
      <point x="266" y="-249"/>
      <point x="307" y="-206"/>
      <point x="372" y="-206" type="curve" smooth="yes"/>
      <point x="433" y="-206"/>
      <point x="466" y="-240"/>
      <point x="468" y="-320" type="curve" smooth="yes"/>
      <point x="472" y="-460" type="line"/>
      <point x="614" y="-460" type="line"/>
      <point x="618" y="-320" type="line" smooth="yes"/>
      <point x="620" y="-240"/>
      <point x="658" y="-207"/>
      <point x="721" y="-207" type="curve" smooth="yes"/>
      <point x="786" y="-207"/>
      <point x="818" y="-247"/>
      <point x="818" y="-310" type="curve" smooth="yes"/>
      <point x="818" y="-314" type="line"/>
      <point x="985" y="-306" type="line"/>
      <point x="985" y="-300" type="line" smooth="yes"/>
      <point x="985" y="-168"/>
      <point x="906" y="-75"/>
      <point x="747" y="-75" type="curve" smooth="yes"/>
      <point x="633" y="-75"/>
      <point x="567" y="-121"/>
      <point x="547" y="-199" type="curve"/>
      <point x="541" y="-199" type="line"/>
      <point x="522" y="-121"/>
      <point x="464" y="-75"/>
      <point x="351" y="-75" type="curve" smooth="yes"/>
      <point x="192" y="-75"/>
      <point x="98" y="-168"/>
      <point x="98" y="-327" type="curve" smooth="yes"/>
      <point x="98" y="-338" type="line" smooth="yes"/>
      <point x="98" y="-461"/>
      <point x="138" y="-548"/>
    </contour>
    <contour>
      <point x="840" y="-808" type="curve" smooth="yes"/>
      <point x="898" y="-808"/>
      <point x="947" y="-798"/>
      <point x="982" y="-777" type="curve"/>
      <point x="989" y="-657" type="line"/>
      <point x="953" y="-680"/>
      <point x="911" y="-692"/>
      <point x="864" y="-692" type="curve" smooth="yes"/>
      <point x="808" y="-692"/>
      <point x="779" y="-672"/>
      <point x="779" y="-637" type="curve" smooth="yes"/>
      <point x="779" y="-595"/>
      <point x="811" y="-571"/>
      <point x="884" y="-509" type="curve" smooth="yes"/>
      <point x="958" y="-444"/>
      <point x="985" y="-392"/>
      <point x="985" y="-309" type="curve" smooth="yes"/>
      <point x="985" y="-303" type="line"/>
      <point x="818" y="-313" type="line"/>
      <point x="818" y="-318" type="line" smooth="yes"/>
      <point x="818" y="-378"/>
      <point x="796" y="-410"/>
      <point x="731" y="-469" type="curve" smooth="yes"/>
      <point x="659" y="-532"/>
      <point x="628" y="-575"/>
      <point x="628" y="-645" type="curve" smooth="yes"/>
      <point x="628" y="-744"/>
      <point x="707" y="-808"/>
    </contour>
    <contour>
      <point x="847" y="-1047" type="curve" smooth="yes"/>
      <point x="912" y="-1047"/>
      <point x="959" y="-1034"/>
      <point x="992" y="-1014" type="curve"/>
      <point x="999" y="-902" type="line"/>
      <point x="960" y="-925"/>
      <point x="919" y="-936"/>
      <point x="871" y="-936" type="curve" smooth="yes"/>
      <point x="812" y="-937"/>
      <point x="776" y="-912"/>
      <point x="776" y="-869" type="curve" smooth="yes"/>
      <point x="776" y="-833"/>
      <point x="798" y="-809"/>
      <point x="845" y="-798" type="curve"/>
      <point x="732" y="-773" type="line"/>
      <point x="732" y="-787" type="line"/>
      <point x="668" y="-802"/>
      <point x="636" y="-842"/>
      <point x="636" y="-899" type="curve" smooth="yes"/>
      <point x="636" y="-994"/>
      <point x="724" y="-1047"/>
    </contour>
  </outline>
</glyph>
<glyph name="Zero.gj" format="2">
  <advance width="1204"/>
  <unicode hex="0AE6"/>
  <outline>
    <contour>
      <point x="602" y="1218" type="curve" smooth="yes"/>
      <point x="297" y="1218"/>
      <point x="124" y="1034"/>
      <point x="124" y="686" type="curve" smooth="yes"/>
      <point x="124" y="590" type="line"/>
      <point x="325" y="590" type="line"/>
      <point x="325" y="687" type="line" smooth="yes"/>
      <point x="325" y="928"/>
      <point x="421" y="1051"/>
      <point x="602" y="1051" type="curve" smooth="yes"/>
      <point x="783" y="1051"/>
      <point x="879" y="928"/>
      <point x="879" y="687" type="curve" smooth="yes"/>
      <point x="879" y="589" type="line"/>
      <point x="1080" y="589" type="line"/>
      <point x="1080" y="686" type="line" smooth="yes"/>
      <point x="1080" y="1032"/>
      <point x="907" y="1218"/>
    </contour>
    <contour>
      <point x="602" y="-22" type="curve" smooth="yes"/>
      <point x="906" y="-22"/>
      <point x="1080" y="164"/>
      <point x="1080" y="505" type="curve" smooth="yes"/>
      <point x="1080" y="619" type="line"/>
      <point x="879" y="619" type="line"/>
      <point x="879" y="504" type="line" smooth="yes"/>
      <point x="879" y="268"/>
      <point x="781" y="146"/>
      <point x="602" y="146" type="curve" smooth="yes"/>
      <point x="421" y="146"/>
      <point x="325" y="268"/>
      <point x="325" y="504" type="curve" smooth="yes"/>
      <point x="325" y="619" type="line"/>
      <point x="124" y="619" type="line"/>
      <point x="124" y="505" type="line" smooth="yes"/>
      <point x="124" y="162"/>
      <point x="297" y="-22"/>
    </contour>
  </outline>
</glyph>
<glyph name="One.gj" format="2">
  <advance width="1085"/>
  <unicode hex="0AE7"/>
  <guideline x="397" y="811" angle="0"/>
  <guideline x="423" y="759" angle="0"/>
  <guideline x="397" y="811" angle="0"/>
  <guideline x="423" y="747" angle="0"/>
  <guideline x="397" y="818" angle="0"/>
  <guideline x="423" y="785" angle="0"/>
  <guideline x="397" y="797" angle="0"/>
  <outline>
    <contour>
      <point x="434" y="360" type="curve" smooth="yes"/>
      <point x="591" y="360"/>
      <point x="685" y="432"/>
      <point x="710" y="532" type="curve"/>
      <point x="730" y="532" type="line"/>
      <point x="722" y="686" type="line"/>
      <point x="696" y="586"/>
      <point x="618" y="528"/>
      <point x="490" y="528" type="curve" smooth="yes"/>
      <point x="357" y="528"/>
      <point x="284" y="598"/>
      <point x="284" y="759" type="curve" smooth="yes"/>
      <point x="284" y="811" type="line" smooth="yes"/>
      <point x="284" y="975"/>
      <point x="358" y="1054"/>
      <point x="497" y="1054" type="curve" smooth="yes"/>
      <point x="643" y="1054"/>
      <point x="718" y="971"/>
      <point x="718" y="797" type="curve" smooth="yes"/>
      <point x="718" y="565" type="line"/>
      <point x="913" y="565" type="line"/>
      <point x="913" y="785" type="line" smooth="yes"/>
      <point x="913" y="1074"/>
      <point x="777" y="1218"/>
      <point x="492" y="1218" type="curve" smooth="yes"/>
      <point x="220" y="1218"/>
      <point x="83" y="1084"/>
      <point x="83" y="818" type="curve" smooth="yes"/>
      <point x="83" y="747" type="line" smooth="yes"/>
      <point x="83" y="489"/>
      <point x="201" y="360"/>
    </contour>
    <contour>
      <point x="919" y="-12" type="curve" smooth="yes"/>
      <point x="965" y="-12"/>
      <point x="1007" y="-6"/>
      <point x="1040" y="6" type="curve"/>
      <point x="1052" y="152" type="line"/>
      <point x="1034" y="147"/>
      <point x="1011" y="144"/>
      <point x="990" y="144" type="curve" smooth="yes"/>
      <point x="936" y="144"/>
      <point x="913" y="175"/>
      <point x="913" y="243" type="curve" smooth="yes"/>
      <point x="913" y="602" type="line"/>
      <point x="721" y="602" type="line"/>
      <point x="721" y="216" type="line" smooth="yes"/>
      <point x="721" y="62"/>
      <point x="786" y="-12"/>
    </contour>
  </outline>
</glyph>
<glyph name="Two.gj" format="2">
  <advance width="899"/>
  <unicode hex="0AE8"/>
  <guideline x="526" y="786" angle="0"/>
  <guideline x="536" y="824" angle="0"/>
  <guideline x="526" y="786" angle="0"/>
  <guideline x="536" y="833" angle="0"/>
  <guideline x="675" y="128" angle="132.4552"/>
  <outline>
    <contour>
      <point x="292" y="358" type="line"/>
      <point x="296" y="391" type="line"/>
      <point x="403" y="391" type="line" smooth="yes"/>
      <point x="662" y="391"/>
      <point x="803" y="536"/>
      <point x="803" y="786" type="curve" smooth="yes"/>
      <point x="804" y="833" type="line" smooth="yes"/>
      <point x="804" y="1092"/>
      <point x="650" y="1218"/>
      <point x="390" y="1218" type="curve" smooth="yes"/>
      <point x="255" y="1218"/>
      <point x="156" y="1187"/>
      <point x="89" y="1152" type="curve"/>
      <point x="73" y="992" type="line"/>
      <point x="150" y="1025"/>
      <point x="245" y="1054"/>
      <point x="359" y="1054" type="curve" smooth="yes"/>
      <point x="515" y="1054"/>
      <point x="601" y="978"/>
      <point x="601" y="824" type="curve" smooth="yes"/>
      <point x="601" y="786" type="line" smooth="yes"/>
      <point x="601" y="619"/>
      <point x="507" y="545"/>
      <point x="326" y="544" type="curve" smooth="yes"/>
      <point x="64" y="543" type="line"/>
      <point x="64" y="396" type="line"/>
    </contour>
    <contour>
      <point x="533" y="0" type="line"/>
      <point x="782" y="0" type="line"/>
      <point x="782" y="10" type="line"/>
      <point x="615" y="188" type="line" smooth="yes"/>
      <point x="534" y="274"/>
      <point x="414" y="386"/>
      <point x="342" y="444" type="curve"/>
      <point x="161" y="407" type="line"/>
    </contour>
  </outline>
</glyph>
<glyph name="Three.gj" format="2">
  <advance width="963"/>
  <unicode hex="0AE9"/>
  <outline>
    <contour>
      <point x="433" y="-23" type="curve" smooth="yes"/>
      <point x="717" y="-23"/>
      <point x="868" y="93"/>
      <point x="868" y="309" type="curve" smooth="yes"/>
      <point x="868" y="328" type="line" smooth="yes"/>
      <point x="868" y="499"/>
      <point x="778" y="590"/>
      <point x="606" y="613" type="curve"/>
      <point x="606" y="617" type="line"/>
      <point x="768" y="635"/>
      <point x="853" y="718"/>
      <point x="853" y="889" type="curve" smooth="yes"/>
      <point x="853" y="904" type="line" smooth="yes"/>
      <point x="853" y="1114"/>
      <point x="705" y="1218"/>
      <point x="438" y="1218" type="curve" smooth="yes"/>
      <point x="296" y="1218"/>
      <point x="186" y="1184"/>
      <point x="116" y="1149" type="curve"/>
      <point x="96" y="981" type="line"/>
      <point x="177" y="1023"/>
      <point x="283" y="1056"/>
      <point x="405" y="1056" type="curve" smooth="yes"/>
      <point x="567" y="1056"/>
      <point x="651" y="997"/>
      <point x="651" y="877" type="curve" smooth="yes"/>
      <point x="651" y="868" type="line" smooth="yes"/>
      <point x="651" y="749"/>
      <point x="576" y="701"/>
      <point x="430" y="698" type="curve" smooth="yes"/>
      <point x="202" y="694" type="line"/>
      <point x="202" y="538" type="line"/>
      <point x="429" y="533" type="line" smooth="yes"/>
      <point x="586" y="530"/>
      <point x="666" y="476"/>
      <point x="666" y="348" type="curve" smooth="yes"/>
      <point x="666" y="336" type="line" smooth="yes"/>
      <point x="666" y="205"/>
      <point x="577" y="144"/>
      <point x="404" y="144" type="curve" smooth="yes"/>
      <point x="258" y="144"/>
      <point x="156" y="186"/>
      <point x="72" y="237" type="curve"/>
      <point x="91" y="55" type="line"/>
      <point x="161" y="13"/>
      <point x="276" y="-23"/>
    </contour>
  </outline>
</glyph>
<glyph name="Four.gj" format="2">
  <advance width="1124"/>
  <unicode hex="0AEA"/>
  <outline>
    <contour>
      <point x="565" y="-22" type="curve" smooth="yes"/>
      <point x="807" y="-22"/>
      <point x="941" y="86"/>
      <point x="941" y="289" type="curve" smooth="yes"/>
      <point x="941" y="298" type="line" smooth="yes"/>
      <point x="941" y="439"/>
      <point x="868" y="531"/>
      <point x="762" y="646" type="curve" smooth="yes"/>
      <point x="648" y="769" type="line"/>
      <point x="520" y="665" type="line"/>
      <point x="619" y="547" type="line" smooth="yes"/>
      <point x="691" y="462"/>
      <point x="743" y="407"/>
      <point x="743" y="308" type="curve" smooth="yes"/>
      <point x="743" y="297" type="line" smooth="yes"/>
      <point x="743" y="190"/>
      <point x="679" y="137"/>
      <point x="565" y="137" type="curve" smooth="yes"/>
      <point x="450" y="137"/>
      <point x="385" y="192"/>
      <point x="385" y="299" type="curve" smooth="yes"/>
      <point x="385" y="310" type="line" smooth="yes"/>
      <point x="385" y="407"/>
      <point x="433" y="465"/>
      <point x="505" y="547" type="curve" smooth="yes"/>
      <point x="620" y="678" type="line"/>
      <point x="494" y="782" type="line"/>
      <point x="367" y="649" type="line" smooth="yes"/>
      <point x="255" y="532"/>
      <point x="188" y="443"/>
      <point x="188" y="298" type="curve" smooth="yes"/>
      <point x="188" y="289" type="line" smooth="yes"/>
      <point x="188" y="86"/>
      <point x="321" y="-22"/>
    </contour>
    <contour>
      <point x="490" y="656" type="line"/>
      <point x="614" y="749" type="line"/>
      <point x="238" y="1192" type="line"/>
      <point x="17" y="1192" type="line"/>
      <point x="17" y="1177" type="line"/>
    </contour>
    <contour>
      <point x="624" y="646" type="line"/>
      <point x="1107" y="1177" type="line"/>
      <point x="1107" y="1192" type="line"/>
      <point x="887" y="1192" type="line"/>
      <point x="497" y="721" type="line"/>
    </contour>
  </outline>
</glyph>
<glyph name="Five.gj" format="2">
  <advance width="1202"/>
  <unicode hex="0AEB"/>
  <outline>
    <contour>
      <point x="537" y="318" type="curve" smooth="yes"/>
      <point x="704" y="318"/>
      <point x="796" y="400"/>
      <point x="827" y="496" type="curve"/>
      <point x="847" y="496" type="line"/>
      <point x="838" y="665" type="line"/>
      <point x="811" y="554"/>
      <point x="730" y="486"/>
      <point x="594" y="486" type="curve" smooth="yes"/>
      <point x="450" y="486"/>
      <point x="374" y="560"/>
      <point x="374" y="731" type="curve" smooth="yes"/>
      <point x="374" y="886" type="line"/>
      <point x="179" y="886" type="line"/>
      <point x="179" y="711" type="line" smooth="yes"/>
      <point x="179" y="448"/>
      <point x="295" y="318"/>
    </contour>
    <contour>
      <point x="1036" y="-12" type="curve" smooth="yes"/>
      <point x="1082" y="-12"/>
      <point x="1124" y="-6"/>
      <point x="1157" y="6" type="curve"/>
      <point x="1169" y="152" type="line"/>
      <point x="1151" y="147"/>
      <point x="1128" y="144"/>
      <point x="1107" y="144" type="curve" smooth="yes"/>
      <point x="1053" y="144"/>
      <point x="1030" y="175"/>
      <point x="1030" y="243" type="curve" smooth="yes"/>
      <point x="1030" y="602" type="line"/>
      <point x="838" y="602" type="line"/>
      <point x="838" y="216" type="line" smooth="yes"/>
      <point x="838" y="62"/>
      <point x="903" y="-12"/>
    </contour>
    <contour>
      <point x="835" y="555" type="line"/>
      <point x="1030" y="555" type="line"/>
      <point x="1030" y="1192" type="line"/>
      <point x="835" y="1192" type="line"/>
    </contour>
    <contour>
      <point x="179" y="762" type="line"/>
      <point x="374" y="762" type="line"/>
      <point x="374" y="974" type="line" smooth="yes"/>
      <point x="374" y="1130"/>
      <point x="305" y="1203"/>
      <point x="168" y="1203" type="curve" smooth="yes"/>
      <point x="121" y="1203"/>
      <point x="80" y="1195"/>
      <point x="46" y="1183" type="curve"/>
      <point x="34" y="1037" type="line"/>
      <point x="54" y="1043"/>
      <point x="76" y="1048"/>
      <point x="98" y="1048" type="curve" smooth="yes"/>
      <point x="156" y="1048"/>
      <point x="179" y="1016"/>
      <point x="179" y="948" type="curve" smooth="yes"/>
    </contour>
  </outline>
</glyph>
<glyph name="Six.gj" format="2">
  <advance width="1078"/>
  <unicode hex="0AEC"/>
  <outline>
    <contour>
      <point x="496" y="-22" type="curve" smooth="yes"/>
      <point x="804" y="-22"/>
      <point x="958" y="113"/>
      <point x="958" y="382" type="curve" smooth="yes"/>
      <point x="958" y="807" type="line"/>
      <point x="766" y="807" type="line"/>
      <point x="766" y="616" type="line"/>
      <point x="772" y="574" type="line"/>
      <point x="772" y="395" type="line" smooth="yes"/>
      <point x="772" y="214"/>
      <point x="677" y="134"/>
      <point x="476" y="134" type="curve" smooth="yes"/>
      <point x="353" y="134"/>
      <point x="248" y="161"/>
      <point x="144" y="210" type="curve"/>
      <point x="159" y="47" type="line"/>
      <point x="243" y="7"/>
      <point x="361" y="-22"/>
    </contour>
    <contour>
      <point x="479" y="368" type="curve" smooth="yes"/>
      <point x="640" y="368"/>
      <point x="735" y="444"/>
      <point x="762" y="519" type="curve"/>
      <point x="779" y="519" type="line"/>
      <point x="778" y="674" type="line"/>
      <point x="749" y="595"/>
      <point x="655" y="531"/>
      <point x="531" y="531" type="curve" smooth="yes"/>
      <point x="372" y="531"/>
      <point x="299" y="613"/>
      <point x="299" y="773" type="curve" smooth="yes"/>
      <point x="299" y="785" type="line"/>
      <point x="98" y="785" type="line"/>
      <point x="98" y="765" type="line" smooth="yes"/>
      <point x="98" y="511"/>
      <point x="222" y="368"/>
    </contour>
    <contour>
      <point x="98" y="781" type="line"/>
      <point x="299" y="781" type="line"/>
      <point x="299" y="796" type="line" smooth="yes"/>
      <point x="299" y="965"/>
      <point x="391" y="1059"/>
      <point x="587" y="1059" type="curve" smooth="yes"/>
      <point x="718" y="1059"/>
      <point x="819" y="1033"/>
      <point x="907" y="999" type="curve"/>
      <point x="892" y="1157" type="line"/>
      <point x="821" y="1189"/>
      <point x="705" y="1218"/>
      <point x="566" y="1218" type="curve" smooth="yes"/>
      <point x="264" y="1218"/>
      <point x="98" y="1078"/>
      <point x="98" y="804" type="curve" smooth="yes"/>
    </contour>
  </outline>
</glyph>
<glyph name="Seven.gj" format="2">
  <advance width="1306"/>
  <unicode hex="0AED"/>
  <outline>
    <contour>
      <point x="639" y="-22" type="curve" smooth="yes"/>
      <point x="992" y="-22"/>
      <point x="1193" y="174"/>
      <point x="1193" y="548" type="curve" smooth="yes"/>
      <point x="1193" y="603" type="line"/>
      <point x="993" y="603" type="line"/>
      <point x="993" y="543" type="line" smooth="yes"/>
      <point x="993" y="285"/>
      <point x="881" y="146"/>
      <point x="639" y="146" type="curve" smooth="yes"/>
      <point x="416" y="146"/>
      <point x="280" y="253"/>
      <point x="280" y="498" type="curve" smooth="yes"/>
      <point x="280" y="548"/>
      <point x="280" y="587"/>
      <point x="280" y="628" type="curve"/>
      <point x="100" y="628" type="line"/>
      <point x="96" y="580"/>
      <point x="93" y="539"/>
      <point x="93" y="480" type="curve" smooth="yes"/>
      <point x="93" y="145"/>
      <point x="278" y="-22"/>
    </contour>
    <contour>
      <point x="742" y="413" type="curve" smooth="yes"/>
      <point x="877" y="413"/>
      <point x="959" y="479"/>
      <point x="985" y="557" type="curve"/>
      <point x="1006" y="557" type="line"/>
      <point x="1003" y="696" type="line"/>
      <point x="978" y="616"/>
      <point x="902" y="568"/>
      <point x="814" y="568" type="curve" smooth="yes"/>
      <point x="700" y="568"/>
      <point x="641" y="632"/>
      <point x="641" y="761" type="curve" smooth="yes"/>
      <point x="641" y="850" type="line" smooth="yes"/>
      <point x="641" y="987"/>
      <point x="699" y="1056"/>
      <point x="810" y="1056" type="curve" smooth="yes"/>
      <point x="931" y="1056"/>
      <point x="995" y="981"/>
      <point x="995" y="833" type="curve" smooth="yes"/>
      <point x="995" y="595" type="line"/>
      <point x="1193" y="595" type="line"/>
      <point x="1193" y="798" type="line" smooth="yes"/>
      <point x="1193" y="1078"/>
      <point x="1065" y="1218"/>
      <point x="809" y="1218" type="curve" smooth="yes"/>
      <point x="570" y="1218"/>
      <point x="448" y="1095"/>
      <point x="448" y="852" type="curve" smooth="yes"/>
      <point x="448" y="749" type="line" smooth="yes"/>
      <point x="448" y="521"/>
      <point x="560" y="413"/>
    </contour>
  </outline>
</glyph>
<glyph name="Eight.gj" format="2">
  <advance width="1029"/>
  <unicode hex="0AEE"/>
  <guideline x="735" y="1036" angle="47.1488"/>
  <guideline x="941" y="169" angle="84.3207"/>
  <outline>
    <contour>
      <point x="569" y="-22" type="curve" smooth="yes"/>
      <point x="716" y="-22"/>
      <point x="843" y="18"/>
      <point x="932" y="75" type="curve"/>
      <point x="949" y="260" type="line"/>
      <point x="853" y="190"/>
      <point x="719" y="146"/>
      <point x="589" y="146" type="curve" smooth="yes"/>
      <point x="395" y="146"/>
      <point x="298" y="223"/>
      <point x="298" y="371" type="curve" smooth="yes"/>
      <point x="298" y="374" type="line" smooth="yes"/>
      <point x="298" y="514"/>
      <point x="375" y="651"/>
      <point x="575" y="864" type="curve" smooth="yes"/>
      <point x="883" y="1192" type="line"/>
      <point x="631" y="1192" type="line"/>
      <point x="417" y="955" type="line" smooth="yes"/>
      <point x="194" y="713"/>
      <point x="95" y="555"/>
      <point x="95" y="368" type="curve" smooth="yes"/>
      <point x="95" y="359" type="line" smooth="yes"/>
      <point x="95" y="112"/>
      <point x="259" y="-22"/>
    </contour>
  </outline>
</glyph>
<glyph name="Nine.gj" format="2">
  <advance width="1140"/>
  <unicode hex="0AEF"/>
  <outline>
    <contour>
      <point x="606" y="-23" type="curve" smooth="yes"/>
      <point x="761" y="-23"/>
      <point x="894" y="18"/>
      <point x="987" y="75" type="curve"/>
      <point x="1004" y="260" type="line"/>
      <point x="903" y="189"/>
      <point x="763" y="145"/>
      <point x="625" y="145" type="curve" smooth="yes"/>
      <point x="412" y="145"/>
      <point x="298" y="240"/>
      <point x="298" y="397" type="curve" smooth="yes"/>
      <point x="298" y="400" type="line" smooth="yes"/>
      <point x="298" y="559"/>
      <point x="365" y="694"/>
      <point x="591" y="949" type="curve" smooth="yes"/>
      <point x="806" y="1192" type="line"/>
      <point x="555" y="1192" type="line"/>
      <point x="412" y="1021" type="line" smooth="yes"/>
      <point x="194" y="760"/>
      <point x="95" y="598"/>
      <point x="95" y="393" type="curve" smooth="yes"/>
      <point x="95" y="385" type="line" smooth="yes"/>
      <point x="95" y="133"/>
      <point x="273" y="-23"/>
    </contour>
    <contour>
      <point x="577" y="400" type="line"/>
      <point x="593" y="400" type="line"/>
      <point x="1072" y="673" type="line"/>
      <point x="1067" y="856" type="line"/>
      <point x="572" y="570" type="line"/>
    </contour>
  </outline>
</glyph>
<glyph name="AbbreviationSign.gj" format="2">
  <advance width="921"/>
  <unicode hex="0AF0"/>
  <outline>
    <contour>
      <point x="461" y="690" type="curve" smooth="yes"/>
      <point x="229" y="690"/>
      <point x="95" y="564"/>
      <point x="95" y="352" type="curve" smooth="yes"/>
      <point x="95" y="332" type="line"/>
      <point x="273" y="332" type="line"/>
      <point x="273" y="351" type="line" smooth="yes"/>
      <point x="273" y="477"/>
      <point x="341" y="548"/>
      <point x="461" y="548" type="curve" smooth="yes"/>
      <point x="580" y="548"/>
      <point x="648" y="479"/>
      <point x="648" y="351" type="curve" smooth="yes"/>
      <point x="648" y="332" type="line"/>
      <point x="826" y="332" type="line"/>
      <point x="826" y="352" type="line" smooth="yes"/>
      <point x="826" y="567"/>
      <point x="694" y="690"/>
    </contour>
    <contour>
      <point x="461" y="-22" type="curve" smooth="yes"/>
      <point x="694" y="-22"/>
      <point x="826" y="102"/>
      <point x="826" y="316" type="curve" smooth="yes"/>
      <point x="826" y="337" type="line"/>
      <point x="648" y="337" type="line"/>
      <point x="648" y="318" type="line" smooth="yes"/>
      <point x="648" y="190"/>
      <point x="580" y="121"/>
      <point x="461" y="121" type="curve" smooth="yes"/>
      <point x="341" y="121"/>
      <point x="273" y="192"/>
      <point x="273" y="318" type="curve" smooth="yes"/>
      <point x="273" y="337" type="line"/>
      <point x="95" y="337" type="line"/>
      <point x="95" y="316" type="line" smooth="yes"/>
      <point x="95" y="104"/>
      <point x="229" y="-22"/>
    </contour>
  </outline>
</glyph>
<glyph name="RupeeSign.gj" format="2">
  <advance width="1820"/>
  <unicode hex="0AF1"/>
  <anchor x="572" y="-393" name="Bottom"/>
  <anchor x="501" y="1266" name="Top"/>
  <anchor x="477" y="1266" name="Top2"/>
  <outline>
    <contour>
      <point x="1360" y="690" type="curve" smooth="yes"/>
      <point x="1128" y="690"/>
      <point x="994" y="564"/>
      <point x="994" y="352" type="curve" smooth="yes"/>
      <point x="994" y="332" type="line"/>
      <point x="1172" y="332" type="line"/>
      <point x="1172" y="351" type="line" smooth="yes"/>
      <point x="1172" y="477"/>
      <point x="1240" y="548"/>
      <point x="1360" y="548" type="curve" smooth="yes"/>
      <point x="1479" y="548"/>
      <point x="1547" y="479"/>
      <point x="1547" y="351" type="curve" smooth="yes"/>
      <point x="1547" y="332" type="line"/>
      <point x="1725" y="332" type="line"/>
      <point x="1725" y="352" type="line" smooth="yes"/>
      <point x="1725" y="567"/>
      <point x="1593" y="690"/>
    </contour>
    <contour>
      <point x="1360" y="-22" type="curve" smooth="yes"/>
      <point x="1593" y="-22"/>
      <point x="1725" y="102"/>
      <point x="1725" y="316" type="curve" smooth="yes"/>
      <point x="1725" y="337" type="line"/>
      <point x="1547" y="337" type="line"/>
      <point x="1547" y="318" type="line" smooth="yes"/>
      <point x="1547" y="190"/>
      <point x="1479" y="121"/>
      <point x="1360" y="121" type="curve" smooth="yes"/>
      <point x="1240" y="121"/>
      <point x="1172" y="192"/>
      <point x="1172" y="318" type="curve" smooth="yes"/>
      <point x="1172" y="337" type="line"/>
      <point x="994" y="337" type="line"/>
      <point x="994" y="316" type="line" smooth="yes"/>
      <point x="994" y="104"/>
      <point x="1128" y="-22"/>
    </contour>
    <contour>
      <point x="425" y="-23" type="curve" smooth="yes"/>
      <point x="709" y="-23"/>
      <point x="860" y="93"/>
      <point x="860" y="309" type="curve" smooth="yes"/>
      <point x="860" y="328" type="line" smooth="yes"/>
      <point x="860" y="499"/>
      <point x="770" y="590"/>
      <point x="598" y="613" type="curve"/>
      <point x="598" y="617" type="line"/>
      <point x="760" y="635"/>
      <point x="845" y="718"/>
      <point x="845" y="889" type="curve" smooth="yes"/>
      <point x="845" y="904" type="line" smooth="yes"/>
      <point x="845" y="1114"/>
      <point x="697" y="1218"/>
      <point x="430" y="1218" type="curve" smooth="yes"/>
      <point x="288" y="1218"/>
      <point x="178" y="1184"/>
      <point x="108" y="1149" type="curve"/>
      <point x="88" y="981" type="line"/>
      <point x="169" y="1023"/>
      <point x="275" y="1056"/>
      <point x="397" y="1056" type="curve" smooth="yes"/>
      <point x="559" y="1056"/>
      <point x="643" y="997"/>
      <point x="643" y="877" type="curve" smooth="yes"/>
      <point x="643" y="868" type="line" smooth="yes"/>
      <point x="643" y="749"/>
      <point x="568" y="701"/>
      <point x="422" y="698" type="curve" smooth="yes"/>
      <point x="194" y="694" type="line"/>
      <point x="194" y="538" type="line"/>
      <point x="421" y="533" type="line" smooth="yes"/>
      <point x="578" y="530"/>
      <point x="658" y="476"/>
      <point x="658" y="348" type="curve" smooth="yes"/>
      <point x="658" y="336" type="line" smooth="yes"/>
      <point x="658" y="205"/>
      <point x="569" y="144"/>
      <point x="396" y="144" type="curve" smooth="yes"/>
      <point x="250" y="144"/>
      <point x="148" y="186"/>
      <point x="64" y="237" type="curve"/>
      <point x="83" y="55" type="line"/>
      <point x="153" y="13"/>
      <point x="268" y="-23"/>
    </contour>
    <contour>
      <point x="461" y="-327" type="line"/>
      <point x="706" y="-327" type="line"/>
      <point x="706" y="-321" type="line"/>
      <point x="529" y="-133" type="line" smooth="yes"/>
      <point x="469" y="-70"/>
      <point x="406" y="-14"/>
      <point x="302" y="48" type="curve"/>
      <point x="169" y="52" type="line"/>
    </contour>
  </outline>
</glyph>
<glyph name="Zha.gj" format="2">
  <advance width="1364"/>
  <unicode hex="0AF9"/>
  <anchor x="828" y="-75" name="Bottom"/>
  <anchor x="1115" y="1271" name="Top"/>
  <anchor x="1232" y="1271" name="Top2"/>
  <outline>
    <contour>
      <point x="889" y="698" type="line"/>
      <point x="1351" y="1176" type="line"/>
      <point x="1351" y="1192" type="line"/>
      <point x="1121" y="1192" type="line"/>
      <point x="758" y="794" type="line"/>
    </contour>
    <contour>
      <point x="239" y="416" type="line"/>
      <point x="239" y="925" type="line" smooth="yes"/>
      <point x="239" y="1017"/>
      <point x="278" y="1056"/>
      <point x="340" y="1056" type="curve" smooth="yes"/>
      <point x="402" y="1056"/>
      <point x="444" y="1031"/>
      <point x="518" y="944" type="curve" smooth="yes"/>
      <point x="760" y="660" type="line"/>
      <point x="916" y="760" type="line"/>
      <point x="664" y="1042" type="line" smooth="yes"/>
      <point x="557" y="1161"/>
      <point x="473" y="1218"/>
      <point x="330" y="1218" type="curve" smooth="yes"/>
      <point x="150" y="1218"/>
      <point x="50" y="1119"/>
      <point x="50" y="918" type="curve" smooth="yes"/>
      <point x="50" y="452" type="line"/>
    </contour>
    <contour>
      <point x="810" y="-22" type="curve" smooth="yes"/>
      <point x="1064" y="-22"/>
      <point x="1199" y="86"/>
      <point x="1199" y="298" type="curve" smooth="yes"/>
      <point x="1199" y="311" type="line" smooth="yes"/>
      <point x="1199" y="458"/>
      <point x="1128" y="539"/>
      <point x="1018" y="667" type="curve" smooth="yes"/>
      <point x="919" y="782" type="line"/>
      <point x="759" y="700" type="line"/>
      <point x="879" y="565" type="line" smooth="yes"/>
      <point x="955" y="480"/>
      <point x="1001" y="425"/>
      <point x="1001" y="322" type="curve" smooth="yes"/>
      <point x="1001" y="310" type="line" smooth="yes"/>
      <point x="1001" y="196"/>
      <point x="935" y="140"/>
      <point x="810" y="140" type="curve" smooth="yes"/>
      <point x="683" y="140"/>
      <point x="616" y="196"/>
      <point x="616" y="310" type="curve" smooth="yes"/>
      <point x="616" y="322" type="line" smooth="yes"/>
      <point x="616" y="424"/>
      <point x="663" y="484"/>
      <point x="741" y="566" type="curve" smooth="yes"/>
      <point x="868" y="698" type="line"/>
      <point x="737" y="802" type="line"/>
      <point x="604" y="668" type="line" smooth="yes"/>
      <point x="486" y="550"/>
      <point x="418" y="459"/>
      <point x="418" y="311" type="curve" smooth="yes"/>
      <point x="418" y="298" type="line" smooth="yes"/>
      <point x="418" y="87"/>
      <point x="555" y="-22"/>
    </contour>
    <contour>
      <point x="389" y="-240" type="curve" smooth="yes"/>
      <point x="465" y="-240"/>
      <point x="498" y="-199"/>
      <point x="498" y="-131" type="curve" smooth="yes"/>
      <point x="498" y="-122" type="line" smooth="yes"/>
      <point x="498" y="-55"/>
      <point x="464" y="-14"/>
      <point x="389" y="-14" type="curve" smooth="yes"/>
      <point x="316" y="-14"/>
      <point x="281" y="-56"/>
      <point x="281" y="-122" type="curve" smooth="yes"/>
      <point x="281" y="-131" type="line" smooth="yes"/>
      <point x="281" y="-199"/>
      <point x="315" y="-240"/>
    </contour>
    <contour>
      <point x="100" y="-55" type="curve" smooth="yes"/>
      <point x="176" y="-55"/>
      <point x="209" y="-14"/>
      <point x="209" y="54" type="curve" smooth="yes"/>
      <point x="209" y="63" type="line" smooth="yes"/>
      <point x="209" y="130"/>
      <point x="175" y="171"/>
      <point x="100" y="171" type="curve" smooth="yes"/>
      <point x="27" y="171"/>
      <point x="-8" y="129"/>
      <point x="-8" y="63" type="curve" smooth="yes"/>
      <point x="-8" y="54" type="line" smooth="yes"/>
      <point x="-8" y="-14"/>
      <point x="26" y="-55"/>
    </contour>
    <contour>
      <point x="104" y="-437" type="curve" smooth="yes"/>
      <point x="180" y="-437"/>
      <point x="213" y="-396"/>
      <point x="213" y="-328" type="curve" smooth="yes"/>
      <point x="213" y="-319" type="line" smooth="yes"/>
      <point x="213" y="-252"/>
      <point x="179" y="-211"/>
      <point x="104" y="-211" type="curve" smooth="yes"/>
      <point x="31" y="-211"/>
      <point x="-4" y="-253"/>
      <point x="-4" y="-319" type="curve" smooth="yes"/>
      <point x="-4" y="-328" type="line" smooth="yes"/>
      <point x="-4" y="-396"/>
      <point x="30" y="-437"/>
    </contour>
  </outline>
</glyph>
<glyph name="Germandbls" format="2">
  <advance width="1268"/>
  <unicode hex="1E9E"/>
  <anchor x="632" y="0" name="bottom"/>
  <anchor x="632" y="1278" name="top"/>
  <outline>
    <contour>
      <point x="328" y="0" type="line"/>
      <point x="328" y="808" type="line" smooth="yes"/>
      <point x="328" y="1016"/>
      <point x="421" y="1118"/>
      <point x="625" y="1118" type="curve" smooth="yes"/>
      <point x="973" y="1118" type="line"/>
      <point x="941" y="1164" type="line"/>
      <point x="580" y="722" type="line"/>
      <point x="580" y="579" type="line"/>
      <point x="632" y="588"/>
      <point x="681" y="593"/>
      <point x="738" y="593" type="curve" smooth="yes"/>
      <point x="915" y="593"/>
      <point x="983" y="530"/>
      <point x="983" y="397" type="curve" smooth="yes"/>
      <point x="983" y="351" type="line" smooth="yes"/>
      <point x="983" y="221"/>
      <point x="913" y="152"/>
      <point x="755" y="152" type="curve" smooth="yes"/>
      <point x="647" y="152"/>
      <point x="554" y="183"/>
      <point x="484" y="222" type="curve"/>
      <point x="502" y="38" type="line"/>
      <point x="555" y="12"/>
      <point x="651" y="-22"/>
      <point x="774" y="-22" type="curve" smooth="yes"/>
      <point x="1051" y="-22"/>
      <point x="1183" y="104"/>
      <point x="1183" y="338" type="curve" smooth="yes"/>
      <point x="1183" y="403" type="line" smooth="yes"/>
      <point x="1183" y="620"/>
      <point x="1068" y="733"/>
      <point x="832" y="733" type="curve" smooth="yes"/>
      <point x="785" y="733"/>
      <point x="707" y="724"/>
      <point x="653" y="706" type="curve"/>
      <point x="752" y="664" type="line"/>
      <point x="1134" y="1124" type="line"/>
      <point x="1134" y="1278" type="line"/>
      <point x="600" y="1278" type="line" smooth="yes"/>
      <point x="282" y="1278"/>
      <point x="132" y="1119"/>
      <point x="132" y="812" type="curve" smooth="yes"/>
      <point x="132" y="0" type="line"/>
    </contour>
  </outline>
</glyph>
<glyph name="quoteleft" format="2">
  <advance width="407"/>
  <unicode hex="2018"/>
  <outline>
    <contour>
      <point x="91" y="829" type="curve"/>
      <point x="277" y="829" type="line"/>
      <point x="273" y="872"/>
      <point x="270" y="908"/>
      <point x="270" y="950" type="curve" smooth="yes"/>
      <point x="270" y="1088"/>
      <point x="299" y="1200"/>
      <point x="358" y="1301" type="curve"/>
      <point x="219" y="1339" type="line"/>
      <point x="122" y="1223"/>
      <point x="82" y="1094"/>
      <point x="82" y="940" type="curve" smooth="yes"/>
      <point x="82" y="895"/>
      <point x="87" y="855"/>
    </contour>
  </outline>
</glyph>
<glyph name="sixsuperior" format="2">
  <advance width="678"/>
  <unicode hex="2076"/>
  <outline>
    <contour>
      <point x="354" y="708" type="curve" smooth="yes"/>
      <point x="533" y="708"/>
      <point x="631" y="789"/>
      <point x="631" y="936" type="curve" smooth="yes"/>
      <point x="631" y="959" type="line" smooth="yes"/>
      <point x="631" y="1090"/>
      <point x="556" y="1165"/>
      <point x="411" y="1165" type="curve" smooth="yes"/>
      <point x="294" y="1165"/>
      <point x="233" y="1112"/>
      <point x="206" y="1048" type="curve"/>
      <point x="182" y="1048" type="line"/>
      <point x="198" y="964" type="line"/>
      <point x="228" y="1020"/>
      <point x="285" y="1058"/>
      <point x="368" y="1058" type="curve" smooth="yes"/>
      <point x="455" y="1058"/>
      <point x="488" y="1019"/>
      <point x="488" y="950" type="curve" smooth="yes"/>
      <point x="488" y="938" type="line" smooth="yes"/>
      <point x="488" y="867"/>
      <point x="442" y="829"/>
      <point x="356" y="829" type="curve" smooth="yes"/>
      <point x="253" y="829"/>
      <point x="200" y="891"/>
      <point x="200" y="991" type="curve" smooth="yes"/>
      <point x="200" y="1111" type="line" smooth="yes"/>
      <point x="200" y="1225"/>
      <point x="259" y="1298"/>
      <point x="401" y="1298" type="curve" smooth="yes"/>
      <point x="484" y="1298"/>
      <point x="541" y="1280"/>
      <point x="593" y="1258" type="curve"/>
      <point x="579" y="1378" type="line"/>
      <point x="528" y="1399"/>
      <point x="458" y="1418"/>
      <point x="371" y="1418" type="curve" smooth="yes"/>
      <point x="160" y="1418"/>
      <point x="54" y="1305"/>
      <point x="54" y="1114" type="curve" smooth="yes"/>
      <point x="54" y="1013" type="line" smooth="yes"/>
      <point x="54" y="816"/>
      <point x="159" y="708"/>
    </contour>
  </outline>
</glyph>
<glyph name="minus" format="2">
  <advance width="979"/>
  <unicode hex="2212"/>
  <outline>
    <contour>
      <point x="99" y="541" type="line"/>
      <point x="880" y="541" type="line"/>
      <point x="880" y="701" type="line"/>
      <point x="99" y="701" type="line"/>
    </contour>
  </outline>
</glyph>
<glyph name="BaBa.gj" format="2">
  <advance width="2600"/>
  <anchor x="2327" y="-75" name="Bottom"/>
  <anchor x="2309" y="1266" name="Top"/>
  <anchor x="2349" y="1266" name="Top2"/>
  <outline>
    <contour>
      <point x="802" y="547" type="line"/>
      <point x="1309" y="547" type="line"/>
      <point x="1294" y="709" type="line"/>
      <point x="802" y="709" type="line"/>
    </contour>
    <contour>
      <point x="503" y="137" type="curve" smooth="yes"/>
      <point x="756" y="137"/>
      <point x="883" y="265"/>
      <point x="883" y="530" type="curve" smooth="yes"/>
      <point x="883" y="1001" type="line"/>
      <point x="689" y="1001" type="line"/>
      <point x="689" y="528" type="line" smooth="yes"/>
      <point x="689" y="377"/>
      <point x="629" y="304"/>
      <point x="505" y="304" type="curve" smooth="yes"/>
      <point x="375" y="304"/>
      <point x="313" y="390"/>
      <point x="313" y="562" type="curve" smooth="yes"/>
      <point x="313" y="731" type="line" smooth="yes"/>
      <point x="313" y="924"/>
      <point x="367" y="1057"/>
      <point x="482" y="1192" type="curve"/>
      <point x="268" y="1192" type="line"/>
      <point x="168" y="1084"/>
      <point x="111" y="941"/>
      <point x="111" y="733" type="curve" smooth="yes"/>
      <point x="111" y="564" type="line" smooth="yes"/>
      <point x="111" y="275"/>
      <point x="241" y="137"/>
    </contour>
    <contour>
      <point x="2252" y="495" type="line"/>
      <point x="2447" y="495" type="line"/>
      <point x="2447" y="1192" type="line"/>
      <point x="2252" y="1192" type="line"/>
    </contour>
    <contour>
      <point x="2252" y="0" type="line"/>
      <point x="2447" y="0" type="line"/>
      <point x="2447" y="628" type="line"/>
      <point x="2252" y="628" type="line"/>
    </contour>
    <contour>
      <point x="1870" y="547" type="line"/>
      <point x="2374" y="547" type="line"/>
      <point x="2359" y="709" type="line"/>
      <point x="1870" y="709" type="line"/>
    </contour>
    <contour>
      <point x="1571" y="137" type="curve" smooth="yes"/>
      <point x="1824" y="137"/>
      <point x="1951" y="265"/>
      <point x="1951" y="530" type="curve" smooth="yes"/>
      <point x="1951" y="1001" type="line"/>
      <point x="1757" y="1001" type="line"/>
      <point x="1757" y="528" type="line" smooth="yes"/>
      <point x="1757" y="377"/>
      <point x="1697" y="304"/>
      <point x="1573" y="304" type="curve" smooth="yes"/>
      <point x="1443" y="304"/>
      <point x="1381" y="390"/>
      <point x="1381" y="562" type="curve" smooth="yes"/>
      <point x="1381" y="731" type="line" smooth="yes"/>
      <point x="1381" y="924"/>
      <point x="1435" y="1057"/>
      <point x="1550" y="1192" type="curve"/>
      <point x="1336" y="1192" type="line"/>
      <point x="1236" y="1084"/>
      <point x="1179" y="941"/>
      <point x="1179" y="733" type="curve" smooth="yes"/>
      <point x="1179" y="564" type="line" smooth="yes"/>
      <point x="1179" y="275"/>
      <point x="1309" y="137"/>
    </contour>
  </outline>
</glyph>
<glyph name="BaBha.gj" format="2">
  <advance width="2653"/>
  <anchor x="2380" y="-75" name="Bottom"/>
  <anchor x="2362" y="1266" name="Top"/>
  <anchor x="2402" y="1266" name="Top2"/>
  <outline>
    <contour>
      <point x="802" y="547" type="line"/>
      <point x="1286" y="547" type="line"/>
      <point x="1271" y="709" type="line"/>
      <point x="802" y="709" type="line"/>
    </contour>
    <contour>
      <point x="503" y="137" type="curve" smooth="yes"/>
      <point x="756" y="137"/>
      <point x="883" y="265"/>
      <point x="883" y="530" type="curve" smooth="yes"/>
      <point x="883" y="1001" type="line"/>
      <point x="689" y="1001" type="line"/>
      <point x="689" y="528" type="line" smooth="yes"/>
      <point x="689" y="377"/>
      <point x="629" y="304"/>
      <point x="505" y="304" type="curve" smooth="yes"/>
      <point x="375" y="304"/>
      <point x="313" y="390"/>
      <point x="313" y="562" type="curve" smooth="yes"/>
      <point x="313" y="731" type="line" smooth="yes"/>
      <point x="313" y="924"/>
      <point x="367" y="1057"/>
      <point x="482" y="1192" type="curve"/>
      <point x="268" y="1192" type="line"/>
      <point x="168" y="1084"/>
      <point x="111" y="941"/>
      <point x="111" y="733" type="curve" smooth="yes"/>
      <point x="111" y="564" type="line" smooth="yes"/>
      <point x="111" y="275"/>
      <point x="241" y="137"/>
    </contour>
    <contour>
      <point x="2305" y="495" type="line"/>
      <point x="2500" y="495" type="line"/>
      <point x="2500" y="1192" type="line"/>
      <point x="2305" y="1192" type="line"/>
    </contour>
    <contour>
      <point x="2305" y="0" type="line"/>
      <point x="2500" y="0" type="line"/>
      <point x="2500" y="628" type="line"/>
      <point x="2305" y="628" type="line"/>
    </contour>
    <contour>
      <point x="1883" y="496" type="line"/>
      <point x="2396" y="496" type="line"/>
      <point x="2381" y="658" type="line"/>
      <point x="1883" y="658" type="line"/>
    </contour>
    <contour>
      <point x="1347" y="0" type="curve"/>
      <point x="1560" y="0" type="line"/>
      <point x="1420" y="168"/>
      <point x="1354" y="333"/>
      <point x="1354" y="573" type="curve" smooth="yes"/>
      <point x="1354" y="725" type="line" smooth="yes"/>
      <point x="1354" y="943"/>
      <point x="1453" y="1051"/>
      <point x="1643" y="1051" type="curve" smooth="yes"/>
      <point x="1699" y="1051"/>
      <point x="1751" y="1041"/>
      <point x="1796" y="1016" type="curve"/>
      <point x="1765" y="1077" type="line"/>
      <point x="1765" y="587" type="line"/>
      <point x="1960" y="587" type="line"/>
      <point x="1960" y="1151" type="line"/>
      <point x="1868" y="1196"/>
      <point x="1759" y="1218"/>
      <point x="1641" y="1218" type="curve" smooth="yes"/>
      <point x="1314" y="1218"/>
      <point x="1153" y="1052"/>
      <point x="1153" y="726" type="curve" smooth="yes"/>
      <point x="1153" y="575" type="line" smooth="yes"/>
      <point x="1153" y="314"/>
      <point x="1223" y="135"/>
    </contour>
    <contour>
      <point x="1782" y="168" type="curve"/>
      <point x="1955" y="168" type="line"/>
      <point x="1955" y="649" type="line"/>
      <point x="1776" y="649" type="line"/>
      <point x="1678" y="588" type="line"/>
      <point x="1692" y="424"/>
      <point x="1728" y="303"/>
    </contour>
  </outline>
</glyph>
<glyph name="BaDa.gj" format="2">
  <advance width="1978"/>
  <anchor x="1577" y="-75" name="Bottom"/>
  <anchor x="1672" y="1266" name="Top"/>
  <anchor x="1556" y="1266" name="Top2"/>
  <outline>
    <contour>
      <point x="802" y="507" type="line"/>
      <point x="1406" y="507" type="line"/>
      <point x="1391" y="669" type="line"/>
      <point x="802" y="669" type="line"/>
    </contour>
    <contour>
      <point x="503" y="137" type="curve" smooth="yes"/>
      <point x="756" y="137"/>
      <point x="883" y="265"/>
      <point x="883" y="530" type="curve" smooth="yes"/>
      <point x="883" y="1001" type="line"/>
      <point x="689" y="1001" type="line"/>
      <point x="689" y="528" type="line" smooth="yes"/>
      <point x="689" y="377"/>
      <point x="629" y="304"/>
      <point x="505" y="304" type="curve" smooth="yes"/>
      <point x="375" y="304"/>
      <point x="313" y="390"/>
      <point x="313" y="562" type="curve" smooth="yes"/>
      <point x="313" y="731" type="line" smooth="yes"/>
      <point x="313" y="924"/>
      <point x="367" y="1057"/>
      <point x="482" y="1192" type="curve"/>
      <point x="268" y="1192" type="line"/>
      <point x="168" y="1084"/>
      <point x="111" y="941"/>
      <point x="111" y="733" type="curve" smooth="yes"/>
      <point x="111" y="564" type="line" smooth="yes"/>
      <point x="111" y="275"/>
      <point x="241" y="137"/>
    </contour>
    <contour>
      <point x="1557" y="-22" type="curve" smooth="yes"/>
      <point x="1711" y="-22"/>
      <point x="1826" y="17"/>
      <point x="1894" y="59" type="curve"/>
      <point x="1912" y="239" type="line"/>
      <point x="1828" y="186"/>
      <point x="1725" y="145"/>
      <point x="1585" y="145" type="curve" smooth="yes"/>
      <point x="1416" y="145"/>
      <point x="1330" y="206"/>
      <point x="1330" y="335" type="curve" smooth="yes"/>
      <point x="1330" y="347" type="line" smooth="yes"/>
      <point x="1330" y="471"/>
      <point x="1406" y="528"/>
      <point x="1560" y="531" type="curve" smooth="yes"/>
      <point x="1789" y="536" type="line"/>
      <point x="1789" y="695" type="line"/>
      <point x="1559" y="700" type="line" smooth="yes"/>
      <point x="1418" y="703"/>
      <point x="1345" y="753"/>
      <point x="1345" y="865" type="curve" smooth="yes"/>
      <point x="1345" y="878" type="line" smooth="yes"/>
      <point x="1345" y="997"/>
      <point x="1427" y="1056"/>
      <point x="1585" y="1056" type="curve" smooth="yes"/>
      <point x="1705" y="1056"/>
      <point x="1808" y="1024"/>
      <point x="1889" y="981" type="curve"/>
      <point x="1870" y="1148" type="line"/>
      <point x="1800" y="1185"/>
      <point x="1689" y="1218"/>
      <point x="1551" y="1218" type="curve" smooth="yes"/>
      <point x="1289" y="1218"/>
      <point x="1143" y="1113"/>
      <point x="1143" y="903" type="curve" smooth="yes"/>
      <point x="1143" y="888" type="line" smooth="yes"/>
      <point x="1143" y="719"/>
      <point x="1224" y="636"/>
      <point x="1381" y="618" type="curve"/>
      <point x="1381" y="613" type="line"/>
      <point x="1217" y="591"/>
      <point x="1128" y="498"/>
      <point x="1128" y="324" type="curve" smooth="yes"/>
      <point x="1128" y="310" type="line" smooth="yes"/>
      <point x="1128" y="94"/>
      <point x="1276" y="-22"/>
    </contour>
  </outline>
</glyph>
<glyph name="BaDda.gj" format="2">
  <advance width="2059"/>
  <anchor x="1582" y="-75" name="Bottom"/>
  <anchor x="1681" y="1266" name="Top"/>
  <anchor x="1552" y="1266" name="Top2"/>
  <outline>
    <contour>
      <point x="802" y="582" type="line"/>
      <point x="1421" y="582" type="line"/>
      <point x="1406" y="744" type="line"/>
      <point x="802" y="744" type="line"/>
    </contour>
    <contour>
      <point x="503" y="137" type="curve" smooth="yes"/>
      <point x="756" y="137"/>
      <point x="883" y="265"/>
      <point x="883" y="530" type="curve" smooth="yes"/>
      <point x="883" y="1001" type="line"/>
      <point x="689" y="1001" type="line"/>
      <point x="689" y="528" type="line" smooth="yes"/>
      <point x="689" y="377"/>
      <point x="629" y="304"/>
      <point x="505" y="304" type="curve" smooth="yes"/>
      <point x="375" y="304"/>
      <point x="313" y="390"/>
      <point x="313" y="562" type="curve" smooth="yes"/>
      <point x="313" y="731" type="line" smooth="yes"/>
      <point x="313" y="924"/>
      <point x="367" y="1057"/>
      <point x="482" y="1192" type="curve"/>
      <point x="268" y="1192" type="line"/>
      <point x="168" y="1084"/>
      <point x="111" y="941"/>
      <point x="111" y="733" type="curve" smooth="yes"/>
      <point x="111" y="564" type="line" smooth="yes"/>
      <point x="111" y="275"/>
      <point x="241" y="137"/>
    </contour>
    <contour>
      <point x="1529" y="-22" type="curve" smooth="yes"/>
      <point x="1810" y="-22"/>
      <point x="1965" y="87"/>
      <point x="1965" y="322" type="curve" smooth="yes"/>
      <point x="1965" y="343" type="line" smooth="yes"/>
      <point x="1965" y="543"/>
      <point x="1874" y="626"/>
      <point x="1619" y="690" type="curve" smooth="yes"/>
      <point x="1547" y="708" type="line" smooth="yes"/>
      <point x="1392" y="747"/>
      <point x="1336" y="788"/>
      <point x="1336" y="881" type="curve" smooth="yes"/>
      <point x="1336" y="892" type="line" smooth="yes"/>
      <point x="1336" y="1001"/>
      <point x="1412" y="1054"/>
      <point x="1585" y="1054" type="curve" smooth="yes"/>
      <point x="1712" y="1054"/>
      <point x="1821" y="1023"/>
      <point x="1907" y="981" type="curve"/>
      <point x="1889" y="1149" type="line"/>
      <point x="1816" y="1185"/>
      <point x="1699" y="1218"/>
      <point x="1554" y="1218" type="curve" smooth="yes"/>
      <point x="1275" y="1218"/>
      <point x="1134" y="1110"/>
      <point x="1134" y="900" type="curve" smooth="yes"/>
      <point x="1134" y="883" type="line" smooth="yes"/>
      <point x="1134" y="708"/>
      <point x="1226" y="615"/>
      <point x="1471" y="557" type="curve" smooth="yes"/>
      <point x="1538" y="541" type="line" smooth="yes"/>
      <point x="1714" y="499"/>
      <point x="1763" y="455"/>
      <point x="1763" y="346" type="curve" smooth="yes"/>
      <point x="1763" y="332" type="line" smooth="yes"/>
      <point x="1763" y="206"/>
      <point x="1681" y="146"/>
      <point x="1508" y="146" type="curve" smooth="yes"/>
      <point x="1354" y="146"/>
      <point x="1227" y="191"/>
      <point x="1122" y="249" type="curve"/>
      <point x="1142" y="63" type="line"/>
      <point x="1231" y="18"/>
      <point x="1360" y="-22"/>
    </contour>
  </outline>
</glyph>
<glyph name="BaDha.gj" format="2">
  <advance width="2276"/>
  <anchor x="2003" y="-75" name="Bottom"/>
  <anchor x="1984" y="1271" name="Top"/>
  <anchor x="2025" y="1271" name="Top2"/>
  <outline>
    <contour>
      <point x="802" y="517" type="line"/>
      <point x="1349" y="517" type="line"/>
      <point x="1334" y="679" type="line"/>
      <point x="802" y="679" type="line"/>
    </contour>
    <contour>
      <point x="503" y="137" type="curve" smooth="yes"/>
      <point x="756" y="137"/>
      <point x="883" y="265"/>
      <point x="883" y="530" type="curve" smooth="yes"/>
      <point x="883" y="1001" type="line"/>
      <point x="689" y="1001" type="line"/>
      <point x="689" y="528" type="line" smooth="yes"/>
      <point x="689" y="377"/>
      <point x="629" y="304"/>
      <point x="505" y="304" type="curve" smooth="yes"/>
      <point x="375" y="304"/>
      <point x="313" y="390"/>
      <point x="313" y="562" type="curve" smooth="yes"/>
      <point x="313" y="731" type="line" smooth="yes"/>
      <point x="313" y="924"/>
      <point x="367" y="1057"/>
      <point x="482" y="1192" type="curve"/>
      <point x="268" y="1192" type="line"/>
      <point x="168" y="1084"/>
      <point x="111" y="941"/>
      <point x="111" y="733" type="curve" smooth="yes"/>
      <point x="111" y="564" type="line" smooth="yes"/>
      <point x="111" y="275"/>
      <point x="241" y="137"/>
    </contour>
    <contour>
      <point x="1548" y="93" type="curve" smooth="yes"/>
      <point x="1765" y="93"/>
      <point x="1880" y="168"/>
      <point x="1919" y="269" type="curve"/>
      <point x="1944" y="269" type="line"/>
      <point x="1931" y="439" type="line"/>
      <point x="1901" y="326"/>
      <point x="1782" y="257"/>
      <point x="1599" y="257" type="curve" smooth="yes"/>
      <point x="1429" y="257"/>
      <point x="1343" y="312"/>
      <point x="1343" y="439" type="curve" smooth="yes"/>
      <point x="1343" y="446" type="line" smooth="yes"/>
      <point x="1343" y="558"/>
      <point x="1412" y="604"/>
      <point x="1553" y="609" type="curve" smooth="yes"/>
      <point x="1709" y="614" type="line"/>
      <point x="1709" y="768" type="line"/>
      <point x="1551" y="773" type="line" smooth="yes"/>
      <point x="1410" y="777"/>
      <point x="1344" y="816"/>
      <point x="1344" y="919" type="curve" smooth="yes"/>
      <point x="1344" y="924" type="line" smooth="yes"/>
      <point x="1344" y="1038"/>
      <point x="1434" y="1145"/>
      <point x="1581" y="1275" type="curve"/>
      <point x="1581" y="1283" type="line"/>
      <point x="1352" y="1283" type="line"/>
      <point x="1220" y="1163"/>
      <point x="1142" y="1058"/>
      <point x="1142" y="930" type="curve" smooth="yes"/>
      <point x="1142" y="925" type="line" smooth="yes"/>
      <point x="1142" y="778"/>
      <point x="1217" y="708"/>
      <point x="1370" y="693" type="curve"/>
      <point x="1370" y="689" type="line"/>
      <point x="1217" y="669"/>
      <point x="1140" y="584"/>
      <point x="1140" y="425" type="curve" smooth="yes"/>
      <point x="1140" y="411" type="line" smooth="yes"/>
      <point x="1140" y="204"/>
      <point x="1282" y="93"/>
    </contour>
    <contour>
      <point x="1928" y="495" type="line"/>
      <point x="2123" y="495" type="line"/>
      <point x="2123" y="1192" type="line"/>
      <point x="1928" y="1192" type="line"/>
    </contour>
    <contour>
      <point x="1928" y="0" type="line"/>
      <point x="2123" y="0" type="line"/>
      <point x="2123" y="628" type="line"/>
      <point x="1928" y="628" type="line"/>
    </contour>
  </outline>
</glyph>
<glyph name="BaDhaVa.gj" format="2">
  <advance width="2965"/>
  <anchor x="2692" y="-75" name="Bottom"/>
  <anchor x="2674" y="1266" name="Top"/>
  <anchor x="2714" y="1266" name="Top2"/>
  <outline>
    <contour>
      <point x="802" y="521" type="line"/>
      <point x="1378" y="521" type="line"/>
      <point x="1363" y="683" type="line"/>
      <point x="802" y="683" type="line"/>
    </contour>
    <contour>
      <point x="503" y="137" type="curve" smooth="yes"/>
      <point x="756" y="137"/>
      <point x="883" y="265"/>
      <point x="883" y="530" type="curve" smooth="yes"/>
      <point x="883" y="1001" type="line"/>
      <point x="689" y="1001" type="line"/>
      <point x="689" y="528" type="line" smooth="yes"/>
      <point x="689" y="377"/>
      <point x="629" y="304"/>
      <point x="505" y="304" type="curve" smooth="yes"/>
      <point x="375" y="304"/>
      <point x="313" y="390"/>
      <point x="313" y="562" type="curve" smooth="yes"/>
      <point x="313" y="731" type="line" smooth="yes"/>
      <point x="313" y="924"/>
      <point x="367" y="1057"/>
      <point x="482" y="1192" type="curve"/>
      <point x="268" y="1192" type="line"/>
      <point x="168" y="1084"/>
      <point x="111" y="941"/>
      <point x="111" y="733" type="curve" smooth="yes"/>
      <point x="111" y="564" type="line" smooth="yes"/>
      <point x="111" y="275"/>
      <point x="241" y="137"/>
    </contour>
    <contour>
      <point x="1607" y="93" type="curve" smooth="yes"/>
      <point x="1869" y="93"/>
      <point x="1986" y="197"/>
      <point x="2035" y="371" type="curve"/>
      <point x="1941" y="416" type="line"/>
      <point x="1897" y="318"/>
      <point x="1796" y="257"/>
      <point x="1630" y="257" type="curve" smooth="yes"/>
      <point x="1450" y="257"/>
      <point x="1364" y="312"/>
      <point x="1364" y="439" type="curve" smooth="yes"/>
      <point x="1364" y="446" type="line" smooth="yes"/>
      <point x="1364" y="558"/>
      <point x="1433" y="604"/>
      <point x="1574" y="609" type="curve" smooth="yes"/>
      <point x="1730" y="614" type="line"/>
      <point x="1730" y="768" type="line"/>
      <point x="1572" y="773" type="line" smooth="yes"/>
      <point x="1431" y="777"/>
      <point x="1365" y="816"/>
      <point x="1365" y="919" type="curve" smooth="yes"/>
      <point x="1365" y="924" type="line" smooth="yes"/>
      <point x="1365" y="1038"/>
      <point x="1455" y="1145"/>
      <point x="1602" y="1275" type="curve"/>
      <point x="1602" y="1283" type="line"/>
      <point x="1373" y="1283" type="line"/>
      <point x="1241" y="1163"/>
      <point x="1163" y="1058"/>
      <point x="1163" y="930" type="curve" smooth="yes"/>
      <point x="1163" y="925" type="line" smooth="yes"/>
      <point x="1163" y="778"/>
      <point x="1238" y="708"/>
      <point x="1391" y="693" type="curve"/>
      <point x="1391" y="689" type="line"/>
      <point x="1238" y="669"/>
      <point x="1161" y="584"/>
      <point x="1161" y="425" type="curve" smooth="yes"/>
      <point x="1161" y="411" type="line" smooth="yes"/>
      <point x="1161" y="204"/>
      <point x="1302" y="93"/>
    </contour>
    <contour>
      <point x="2298" y="197" type="curve" smooth="yes"/>
      <point x="2475" y="197"/>
      <point x="2570" y="272"/>
      <point x="2607" y="371" type="curve"/>
      <point x="2626" y="371" type="line"/>
      <point x="2620" y="549" type="line"/>
      <point x="2593" y="436"/>
      <point x="2497" y="366"/>
      <point x="2348" y="366" type="curve" smooth="yes"/>
      <point x="2176" y="366"/>
      <point x="2093" y="457"/>
      <point x="2093" y="633" type="curve" smooth="yes"/>
      <point x="2093" y="755" type="line" smooth="yes"/>
      <point x="2093" y="935"/>
      <point x="2170" y="1027"/>
      <point x="2334" y="1027" type="curve" smooth="yes"/>
      <point x="2399" y="1027"/>
      <point x="2446" y="1018"/>
      <point x="2481" y="1007" type="curve"/>
      <point x="2465" y="1167" type="line"/>
      <point x="2427" y="1180"/>
      <point x="2369" y="1192"/>
      <point x="2293" y="1192" type="curve" smooth="yes"/>
      <point x="2029" y="1192"/>
      <point x="1892" y="1047"/>
      <point x="1892" y="757" type="curve" smooth="yes"/>
      <point x="1892" y="631" type="line" smooth="yes"/>
      <point x="1892" y="352"/>
      <point x="2026" y="197"/>
    </contour>
    <contour>
      <point x="2617" y="495" type="line"/>
      <point x="2812" y="495" type="line"/>
      <point x="2812" y="1192" type="line"/>
      <point x="2617" y="1192" type="line"/>
    </contour>
    <contour>
      <point x="2617" y="0" type="line"/>
      <point x="2812" y="0" type="line"/>
      <point x="2812" y="628" type="line"/>
      <point x="2617" y="628" type="line"/>
    </contour>
  </outline>
</glyph>
<glyph name="BaHa.gj" format="2">
  <advance width="2142"/>
  <anchor x="1673" y="-112" name="Bottom"/>
  <anchor x="1731" y="1266" name="Top"/>
  <anchor x="1610" y="1266" name="Top2"/>
  <outline>
    <contour>
      <point x="802" y="646" type="line"/>
      <point x="1412" y="646" type="line"/>
      <point x="1397" y="808" type="line"/>
      <point x="802" y="808" type="line"/>
    </contour>
    <contour>
      <point x="503" y="137" type="curve" smooth="yes"/>
      <point x="756" y="137"/>
      <point x="883" y="265"/>
      <point x="883" y="530" type="curve" smooth="yes"/>
      <point x="883" y="1001" type="line"/>
      <point x="689" y="1001" type="line"/>
      <point x="689" y="528" type="line" smooth="yes"/>
      <point x="689" y="377"/>
      <point x="629" y="304"/>
      <point x="505" y="304" type="curve" smooth="yes"/>
      <point x="375" y="304"/>
      <point x="313" y="390"/>
      <point x="313" y="562" type="curve" smooth="yes"/>
      <point x="313" y="731" type="line" smooth="yes"/>
      <point x="313" y="924"/>
      <point x="367" y="1057"/>
      <point x="482" y="1192" type="curve"/>
      <point x="268" y="1192" type="line"/>
      <point x="168" y="1084"/>
      <point x="111" y="941"/>
      <point x="111" y="733" type="curve" smooth="yes"/>
      <point x="111" y="564" type="line" smooth="yes"/>
      <point x="111" y="275"/>
      <point x="241" y="137"/>
    </contour>
    <contour>
      <point x="1659" y="-57" type="curve" smooth="yes"/>
      <point x="1798" y="-57"/>
      <point x="1921" y="-33"/>
      <point x="2013" y="4" type="curve"/>
      <point x="2030" y="180" type="line"/>
      <point x="1933" y="138"/>
      <point x="1815" y="111"/>
      <point x="1682" y="111" type="curve" smooth="yes"/>
      <point x="1460" y="111"/>
      <point x="1343" y="200"/>
      <point x="1343" y="383" type="curve" smooth="yes"/>
      <point x="1343" y="434"/>
      <point x="1345" y="481"/>
      <point x="1353" y="534" type="curve"/>
      <point x="1161" y="534" type="line"/>
      <point x="1148" y="471"/>
      <point x="1141" y="413"/>
      <point x="1141" y="350" type="curve" smooth="yes"/>
      <point x="1141" y="80"/>
      <point x="1317" y="-57"/>
    </contour>
    <contour>
      <point x="1818" y="310" type="curve"/>
      <point x="2003" y="310" type="line"/>
      <point x="2028" y="365"/>
      <point x="2042" y="427"/>
      <point x="2042" y="484" type="curve" smooth="yes"/>
      <point x="2042" y="660"/>
      <point x="1934" y="740"/>
      <point x="1745" y="757" type="curve" smooth="yes"/>
      <point x="1556" y="774" type="line" smooth="yes"/>
      <point x="1434" y="785"/>
      <point x="1384" y="828"/>
      <point x="1384" y="902" type="curve" smooth="yes"/>
      <point x="1384" y="906" type="line" smooth="yes"/>
      <point x="1384" y="1004"/>
      <point x="1461" y="1054"/>
      <point x="1626" y="1054" type="curve" smooth="yes"/>
      <point x="1758" y="1054"/>
      <point x="1871" y="1021"/>
      <point x="1958" y="978" type="curve"/>
      <point x="1939" y="1150" type="line"/>
      <point x="1865" y="1185"/>
      <point x="1748" y="1218"/>
      <point x="1601" y="1218" type="curve" smooth="yes"/>
      <point x="1323" y="1218"/>
      <point x="1182" y="1115"/>
      <point x="1182" y="909" type="curve" smooth="yes"/>
      <point x="1182" y="899" type="line" smooth="yes"/>
      <point x="1182" y="724"/>
      <point x="1289" y="630"/>
      <point x="1494" y="615" type="curve" smooth="yes"/>
      <point x="1662" y="603" type="line" smooth="yes"/>
      <point x="1795" y="593"/>
      <point x="1844" y="549"/>
      <point x="1844" y="440" type="curve" smooth="yes"/>
      <point x="1844" y="398"/>
      <point x="1836" y="357"/>
    </contour>
  </outline>
</glyph>
<glyph name="BaHalf_alt.gj" format="2">
  <advance width="1068"/>
  <outline>
    <contour>
      <point x="802" y="547" type="line"/>
      <point x="1233" y="547" type="line"/>
      <point x="1218" y="709" type="line"/>
      <point x="802" y="709" type="line"/>
    </contour>
    <contour>
      <point x="503" y="137" type="curve" smooth="yes"/>
      <point x="756" y="137"/>
      <point x="883" y="265"/>
      <point x="883" y="530" type="curve" smooth="yes"/>
      <point x="883" y="1001" type="line"/>
      <point x="689" y="1001" type="line"/>
      <point x="689" y="528" type="line" smooth="yes"/>
      <point x="689" y="377"/>
      <point x="629" y="304"/>
      <point x="505" y="304" type="curve" smooth="yes"/>
      <point x="375" y="304"/>
      <point x="313" y="390"/>
      <point x="313" y="562" type="curve" smooth="yes"/>
      <point x="313" y="731" type="line" smooth="yes"/>
      <point x="313" y="924"/>
      <point x="367" y="1057"/>
      <point x="482" y="1192" type="curve"/>
      <point x="268" y="1192" type="line"/>
      <point x="168" y="1084"/>
      <point x="111" y="941"/>
      <point x="111" y="733" type="curve" smooth="yes"/>
      <point x="111" y="564" type="line" smooth="yes"/>
      <point x="111" y="275"/>
      <point x="241" y="137"/>
    </contour>
  </outline>
</glyph>
<glyph name="BaJaYa.gj" format="2">
  <advance width="3658"/>
  <anchor x="3385" y="-75" name="Bottom"/>
  <anchor x="3367" y="1266" name="Top"/>
  <anchor x="3407" y="1266" name="Top2"/>
  <outline>
    <contour>
      <point x="802" y="603" type="line"/>
      <point x="1272" y="603" type="line"/>
      <point x="1257" y="765" type="line"/>
      <point x="802" y="765" type="line"/>
    </contour>
    <contour>
      <point x="503" y="137" type="curve" smooth="yes"/>
      <point x="756" y="137"/>
      <point x="883" y="265"/>
      <point x="883" y="530" type="curve" smooth="yes"/>
      <point x="883" y="1001" type="line"/>
      <point x="689" y="1001" type="line"/>
      <point x="689" y="528" type="line" smooth="yes"/>
      <point x="689" y="377"/>
      <point x="629" y="304"/>
      <point x="505" y="304" type="curve" smooth="yes"/>
      <point x="375" y="304"/>
      <point x="313" y="390"/>
      <point x="313" y="562" type="curve" smooth="yes"/>
      <point x="313" y="731" type="line" smooth="yes"/>
      <point x="313" y="924"/>
      <point x="367" y="1057"/>
      <point x="482" y="1192" type="curve"/>
      <point x="268" y="1192" type="line"/>
      <point x="168" y="1084"/>
      <point x="111" y="941"/>
      <point x="111" y="733" type="curve" smooth="yes"/>
      <point x="111" y="564" type="line" smooth="yes"/>
      <point x="111" y="275"/>
      <point x="241" y="137"/>
    </contour>
    <contour>
      <point x="1352" y="416" type="line"/>
      <point x="1352" y="925" type="line" smooth="yes"/>
      <point x="1352" y="1017"/>
      <point x="1391" y="1056"/>
      <point x="1453" y="1056" type="curve" smooth="yes"/>
      <point x="1515" y="1056"/>
      <point x="1557" y="1031"/>
      <point x="1631" y="944" type="curve" smooth="yes"/>
      <point x="1873" y="660" type="line"/>
      <point x="2029" y="760" type="line"/>
      <point x="1777" y="1042" type="line" smooth="yes"/>
      <point x="1670" y="1161"/>
      <point x="1586" y="1218"/>
      <point x="1443" y="1218" type="curve" smooth="yes"/>
      <point x="1263" y="1218"/>
      <point x="1163" y="1119"/>
      <point x="1163" y="918" type="curve" smooth="yes"/>
      <point x="1163" y="452" type="line"/>
    </contour>
    <contour>
      <point x="1923" y="-22" type="curve" smooth="yes"/>
      <point x="2177" y="-22"/>
      <point x="2312" y="86"/>
      <point x="2312" y="298" type="curve" smooth="yes"/>
      <point x="2312" y="311" type="line" smooth="yes"/>
      <point x="2312" y="458"/>
      <point x="2241" y="539"/>
      <point x="2131" y="667" type="curve" smooth="yes"/>
      <point x="2032" y="782" type="line"/>
      <point x="1872" y="700" type="line"/>
      <point x="1992" y="565" type="line" smooth="yes"/>
      <point x="2068" y="480"/>
      <point x="2114" y="425"/>
      <point x="2114" y="322" type="curve" smooth="yes"/>
      <point x="2114" y="310" type="line" smooth="yes"/>
      <point x="2114" y="196"/>
      <point x="2048" y="140"/>
      <point x="1923" y="140" type="curve" smooth="yes"/>
      <point x="1796" y="140"/>
      <point x="1729" y="196"/>
      <point x="1729" y="310" type="curve" smooth="yes"/>
      <point x="1729" y="322" type="line" smooth="yes"/>
      <point x="1729" y="424"/>
      <point x="1776" y="484"/>
      <point x="1854" y="566" type="curve" smooth="yes"/>
      <point x="1981" y="698" type="line"/>
      <point x="1850" y="802" type="line"/>
      <point x="1717" y="668" type="line" smooth="yes"/>
      <point x="1599" y="550"/>
      <point x="1531" y="459"/>
      <point x="1531" y="311" type="curve" smooth="yes"/>
      <point x="1531" y="298" type="line" smooth="yes"/>
      <point x="1531" y="87"/>
      <point x="1668" y="-22"/>
    </contour>
    <contour>
      <point x="2103" y="653" type="line"/>
      <point x="2568" y="653" type="line"/>
      <point x="2554" y="805" type="line"/>
      <point x="2184" y="805" type="line"/>
      <point x="1813" y="786" type="line"/>
      <point x="1813" y="666" type="line"/>
    </contour>
    <contour>
      <point x="2938" y="107" type="curve" smooth="yes"/>
      <point x="3156" y="107"/>
      <point x="3265" y="188"/>
      <point x="3300" y="293" type="curve"/>
      <point x="3319" y="293" type="line"/>
      <point x="3315" y="471" type="line"/>
      <point x="3278" y="349"/>
      <point x="3168" y="275"/>
      <point x="2980" y="275" type="curve" smooth="yes"/>
      <point x="2779" y="275"/>
      <point x="2666" y="368"/>
      <point x="2666" y="540" type="curve" smooth="yes"/>
      <point x="2666" y="582"/>
      <point x="2667" y="607"/>
      <point x="2669" y="645" type="curve"/>
      <point x="2585" y="528" type="line"/>
      <point x="2722" y="528" type="line" smooth="yes"/>
      <point x="2936" y="528"/>
      <point x="3054" y="640"/>
      <point x="3054" y="853" type="curve" smooth="yes"/>
      <point x="3054" y="889" type="line" smooth="yes"/>
      <point x="3054" y="1111"/>
      <point x="2933" y="1218"/>
      <point x="2724" y="1218" type="curve" smooth="yes"/>
      <point x="2633" y="1218"/>
      <point x="2560" y="1198"/>
      <point x="2506" y="1167" type="curve"/>
      <point x="2491" y="1005" type="line"/>
      <point x="2544" y="1035"/>
      <point x="2607" y="1056"/>
      <point x="2681" y="1056" type="curve" smooth="yes"/>
      <point x="2794" y="1056"/>
      <point x="2857" y="1001"/>
      <point x="2857" y="884" type="curve" smooth="yes"/>
      <point x="2857" y="858" type="line" smooth="yes"/>
      <point x="2857" y="733"/>
      <point x="2784" y="678"/>
      <point x="2643" y="678" type="curve" smooth="yes"/>
      <point x="2475" y="678" type="line"/>
      <point x="2471" y="635"/>
      <point x="2469" y="594"/>
      <point x="2469" y="541" type="curve" smooth="yes"/>
      <point x="2469" y="266"/>
      <point x="2636" y="107"/>
    </contour>
    <contour>
      <point x="3310" y="495" type="line"/>
      <point x="3505" y="495" type="line"/>
      <point x="3505" y="1192" type="line"/>
      <point x="3310" y="1192" type="line"/>
    </contour>
    <contour>
      <point x="3310" y="0" type="line"/>
      <point x="3505" y="0" type="line"/>
      <point x="3505" y="628" type="line"/>
      <point x="3310" y="628" type="line"/>
    </contour>
  </outline>
</glyph>
<glyph name="BaJha.gj" format="2">
  <advance width="2415"/>
  <anchor x="2002" y="-75" name="Bottom"/>
  <anchor x="2101" y="1266" name="Top"/>
  <anchor x="2209" y="1266" name="Top2"/>
  <outline>
    <contour>
      <point x="802" y="564" type="line"/>
      <point x="1199" y="564" type="line"/>
      <point x="1184" y="726" type="line"/>
      <point x="802" y="726" type="line"/>
    </contour>
    <contour>
      <point x="503" y="137" type="curve" smooth="yes"/>
      <point x="756" y="137"/>
      <point x="883" y="265"/>
      <point x="883" y="530" type="curve" smooth="yes"/>
      <point x="883" y="1001" type="line"/>
      <point x="689" y="1001" type="line"/>
      <point x="689" y="528" type="line" smooth="yes"/>
      <point x="689" y="377"/>
      <point x="629" y="304"/>
      <point x="505" y="304" type="curve" smooth="yes"/>
      <point x="375" y="304"/>
      <point x="313" y="390"/>
      <point x="313" y="562" type="curve" smooth="yes"/>
      <point x="313" y="731" type="line" smooth="yes"/>
      <point x="313" y="924"/>
      <point x="367" y="1057"/>
      <point x="482" y="1192" type="curve"/>
      <point x="268" y="1192" type="line"/>
      <point x="168" y="1084"/>
      <point x="111" y="941"/>
      <point x="111" y="733" type="curve" smooth="yes"/>
      <point x="111" y="564" type="line" smooth="yes"/>
      <point x="111" y="275"/>
      <point x="241" y="137"/>
    </contour>
    <contour>
      <point x="1364" y="131" type="curve" smooth="yes"/>
      <point x="1617" y="131"/>
      <point x="1764" y="273"/>
      <point x="1764" y="575" type="curve" smooth="yes"/>
      <point x="1764" y="780" type="line" smooth="yes"/>
      <point x="1764" y="1077"/>
      <point x="1618" y="1218"/>
      <point x="1367" y="1218" type="curve" smooth="yes"/>
      <point x="1259" y="1218"/>
      <point x="1177" y="1191"/>
      <point x="1119" y="1159" type="curve"/>
      <point x="1103" y="991" type="line"/>
      <point x="1161" y="1025"/>
      <point x="1235" y="1052"/>
      <point x="1331" y="1052" type="curve" smooth="yes"/>
      <point x="1480" y="1052"/>
      <point x="1562" y="958"/>
      <point x="1562" y="774" type="curve" smooth="yes"/>
      <point x="1562" y="581" type="line" smooth="yes"/>
      <point x="1562" y="394"/>
      <point x="1481" y="299"/>
      <point x="1329" y="299" type="curve" smooth="yes"/>
      <point x="1225" y="299"/>
      <point x="1149" y="328"/>
      <point x="1083" y="366" type="curve"/>
      <point x="1099" y="190" type="line"/>
      <point x="1157" y="157"/>
      <point x="1246" y="131"/>
    </contour>
    <contour>
      <point x="1986" y="-22" type="curve" smooth="yes"/>
      <point x="2212" y="-22"/>
      <point x="2325" y="94"/>
      <point x="2325" y="324" type="curve" smooth="yes"/>
      <point x="2325" y="392" type="line" smooth="yes"/>
      <point x="2325" y="625"/>
      <point x="2198" y="736"/>
      <point x="1964" y="739" type="curve"/>
      <point x="1904" y="752" type="line"/>
      <point x="1733" y="752" type="line"/>
      <point x="1733" y="592" type="line"/>
      <point x="1904" y="592" type="line" smooth="yes"/>
      <point x="2059" y="592"/>
      <point x="2130" y="532"/>
      <point x="2130" y="388" type="curve" smooth="yes"/>
      <point x="2130" y="328" type="line" smooth="yes"/>
      <point x="2130" y="203"/>
      <point x="2070" y="140"/>
      <point x="1955" y="140" type="curve" smooth="yes"/>
      <point x="1883" y="140"/>
      <point x="1824" y="157"/>
      <point x="1777" y="178" type="curve"/>
      <point x="1793" y="14" type="line"/>
      <point x="1837" y="-4"/>
      <point x="1902" y="-22"/>
    </contour>
    <contour>
      <point x="1960" y="679" type="line"/>
      <point x="2010" y="738"/>
      <point x="2053" y="801"/>
      <point x="2100" y="867" type="curve" smooth="yes"/>
      <point x="2324" y="1183" type="line"/>
      <point x="2324" y="1192" type="line"/>
      <point x="2086" y="1192" type="line"/>
      <point x="1805" y="712" type="line"/>
    </contour>
  </outline>
</glyph>
<glyph name="BaLa.gj" format="2">
  <advance width="2445"/>
  <anchor x="2172" y="-75" name="Bottom"/>
  <anchor x="2154" y="1266" name="Top"/>
  <anchor x="2194" y="1266" name="Top2"/>
  <outline>
    <contour>
      <point x="802" y="547" type="line"/>
      <point x="1302" y="547" type="line"/>
      <point x="1287" y="709" type="line"/>
      <point x="802" y="709" type="line"/>
    </contour>
    <contour>
      <point x="503" y="137" type="curve" smooth="yes"/>
      <point x="756" y="137"/>
      <point x="883" y="265"/>
      <point x="883" y="530" type="curve" smooth="yes"/>
      <point x="883" y="1001" type="line"/>
      <point x="689" y="1001" type="line"/>
      <point x="689" y="528" type="line" smooth="yes"/>
      <point x="689" y="377"/>
      <point x="629" y="304"/>
      <point x="505" y="304" type="curve" smooth="yes"/>
      <point x="375" y="304"/>
      <point x="313" y="390"/>
      <point x="313" y="562" type="curve" smooth="yes"/>
      <point x="313" y="731" type="line" smooth="yes"/>
      <point x="313" y="924"/>
      <point x="367" y="1057"/>
      <point x="482" y="1192" type="curve"/>
      <point x="268" y="1192" type="line"/>
      <point x="168" y="1084"/>
      <point x="111" y="941"/>
      <point x="111" y="733" type="curve" smooth="yes"/>
      <point x="111" y="564" type="line" smooth="yes"/>
      <point x="111" y="275"/>
      <point x="241" y="137"/>
    </contour>
    <contour>
      <point x="2097" y="495" type="line"/>
      <point x="2292" y="495" type="line"/>
      <point x="2292" y="1192" type="line"/>
      <point x="2097" y="1192" type="line"/>
    </contour>
    <contour>
      <point x="2097" y="0" type="line"/>
      <point x="2292" y="0" type="line"/>
      <point x="2292" y="628" type="line"/>
      <point x="2097" y="628" type="line"/>
    </contour>
    <contour>
      <point x="1647" y="6" type="curve" smooth="yes"/>
      <point x="1753" y="6"/>
      <point x="1825" y="23"/>
      <point x="1881" y="45" type="curve"/>
      <point x="1897" y="210" type="line"/>
      <point x="1844" y="189"/>
      <point x="1776" y="173"/>
      <point x="1682" y="173" type="curve" smooth="yes"/>
      <point x="1476" y="173"/>
      <point x="1376" y="287"/>
      <point x="1376" y="515" type="curve" smooth="yes"/>
      <point x="1376" y="696" type="line" smooth="yes"/>
      <point x="1376" y="919"/>
      <point x="1474" y="1031"/>
      <point x="1676" y="1031" type="curve" smooth="yes"/>
      <point x="1761" y="1031"/>
      <point x="1827" y="1018"/>
      <point x="1876" y="1002" type="curve"/>
      <point x="1860" y="1161" type="line"/>
      <point x="1808" y="1182"/>
      <point x="1733" y="1198"/>
      <point x="1638" y="1198" type="curve" smooth="yes"/>
      <point x="1332" y="1198"/>
      <point x="1174" y="1032"/>
      <point x="1174" y="706" type="curve" smooth="yes"/>
      <point x="1174" y="505" type="line" smooth="yes"/>
      <point x="1174" y="176"/>
      <point x="1334" y="6"/>
    </contour>
    <contour>
      <point x="1619" y="480" type="line"/>
      <point x="2194" y="641" type="line"/>
      <point x="2203" y="825" type="line"/>
      <point x="1628" y="664" type="line"/>
    </contour>
  </outline>
</glyph>
